
<svg width="293" height="253" viewBox="0 0 293 253" fill="none" xmlns="http://www.w3.org/2000/svg">
	<style>
						.float
		{
			animation: floatr 4s ease-in-out infinite;
		}

		@keyframes floatr
		{
			0%{ transform: translateY(0vh); }
			50%{ transform: translateY(3vh); }
			100%{ transform: translateY(0vh); }
		}

			.floatinv
		{
			animation: floatinvr 4s ease-in-out infinite;
		}

		@keyframes floatinvr
		{
			0%{ transform: translateY(0vh); }
			50%{ transform: translateY(-3vh); }
			100%{ transform: translateY(0vh); }
		}

							.horz
		{
			animation: horzr 5s ease-in-out infinite;
		}

		@keyframes horzr
		{
			0%{ transform: translateX(0vh); }
			50%{ transform: translateX(3vh); }
			100%{ transform: translateX(0vh); }
		}

			.horzinv
		{
			animation: horzinvr 5s ease-in-out infinite;
		}

		@keyframes horzinvr
		{
			0%{ transform: translateX(0vh); }
			50%{ transform: translateX(-3vh); }
			100%{ transform: translateX(0vh); }
		}

						.tickk
	{
		stroke-dasharray: 400;
		stroke-dashoffset: 400;
		stroke: #ffffff;
        animation: ticker 4s ease forwards infinite;
        fill: #ffffff;
        stroke-width:0px;
	}
	@keyframes ticker{
		0% {  stroke-dashoffset: 400; fill: none;stroke-width:1px; fill-opacity: 0.1;}
		100%{ fill: #ffffff;stroke-dashoffset: 0;stroke-width:0px;ill-opacity: 1;}


	}

	</style>
<g id="Layer 2">
<g id="Layer 1">

<path id="Vector_2" d="M218.82 136.14V222.59H72.6V136.14C72.6 134.972 73.0633 133.852 73.8881 133.025C74.713 132.198 75.8321 131.733 77 131.73H214.4C214.98 131.729 215.555 131.842 216.091 132.063C216.627 132.284 217.114 132.608 217.525 133.018C217.935 133.428 218.261 133.914 218.483 134.45C218.706 134.986 218.82 135.56 218.82 136.14V136.14Z" fill="#A80045"/>
<path id="Vector_3" d="M83 140H208.37C209.54 140 210.661 140.465 211.488 141.292C212.315 142.119 212.78 143.24 212.78 144.41V213.79C212.78 214.872 212.35 215.91 211.585 216.675C210.82 217.44 209.782 217.87 208.7 217.87H82.7C81.6179 217.87 80.5801 217.44 79.815 216.675C79.0498 215.91 78.62 214.872 78.62 213.79V144.41C78.62 143.246 79.0805 142.128 79.901 141.302C80.7216 140.476 81.8356 140.008 83 140Z" fill="url(#paint0_linear)"/>
<path id="Vector_4" d="M292.5 229.69H0V252.8H292.5V229.69Z" fill="#FF9750"/>
<path id="Vector_5" d="M222.6 222.59H68.3C64.7654 222.59 61.9 225.453 61.9 228.985C61.9 232.517 64.7654 235.38 68.3 235.38H222.6C226.135 235.38 229 232.517 229 228.985C229 225.453 226.135 222.59 222.6 222.59Z" fill="url(#paint1_linear)"/>
<path id="Vector_6" d="M121.97 166.37H35.3C34.1347 166.37 33.19 167.315 33.19 168.48V226.88C33.19 228.045 34.1347 228.99 35.3 228.99H121.97C123.135 228.99 124.08 228.045 124.08 226.88V168.48C124.08 167.315 123.135 166.37 121.97 166.37Z" fill="url(#paint2_linear)"/>
<path id="Vector_7" d="M116.35 171.6H40.91C39.7447 171.6 38.8 172.545 38.8 173.71V217.16C38.8 218.325 39.7447 219.27 40.91 219.27H116.35C117.515 219.27 118.46 218.325 118.46 217.16V173.71C118.46 172.545 117.515 171.6 116.35 171.6Z" fill="white"/>
<path id="Vector_8" d="M78.63 225.77C79.8064 225.77 80.76 224.816 80.76 223.64C80.76 222.464 79.8064 221.51 78.63 221.51C77.4536 221.51 76.5 222.464 76.5 223.64C76.5 224.816 77.4536 225.77 78.63 225.77Z" fill="white"/>
<path id="Vector_9" d="M244.68 159.97H210.09C208.925 159.97 207.98 160.915 207.98 162.08V220.48C207.98 221.645 208.925 222.59 210.09 222.59H244.68C245.845 222.59 246.79 221.645 246.79 220.48V162.08C246.79 160.915 245.845 159.97 244.68 159.97Z" fill="url(#paint3_linear)"/>
<path id="Vector_10" d="M239.89 165.2H214.87C213.705 165.2 212.76 166.145 212.76 167.31V210.76C212.76 211.925 213.705 212.87 214.87 212.87H239.89C241.055 212.87 242 211.925 242 210.76V167.31C242 166.145 241.055 165.2 239.89 165.2Z" fill="white"/>
<path id="Vector_11" d="M227.38 219.37C228.556 219.37 229.51 218.416 229.51 217.24C229.51 216.064 228.556 215.11 227.38 215.11C226.204 215.11 225.25 216.064 225.25 217.24C225.25 218.416 226.204 219.37 227.38 219.37Z" fill="white"/>
<g id="logo3" class="tickk">
<path id="Vector_12" d="M134.67 163.5C135.872 163.529 137.062 163.742 138.2 164.13C139.686 164.632 141.122 165.271 142.49 166.04C145.938 168.018 149.101 170.457 151.89 173.29C153.843 175.232 155.62 177.344 157.2 179.6C158.538 181.468 159.661 183.481 160.55 185.6C161.232 187.144 161.615 188.803 161.68 190.49C161.714 191.012 161.642 191.536 161.471 192.031C161.299 192.525 161.03 192.981 160.68 193.37C159.887 194.073 158.848 194.433 157.79 194.37C156.588 194.337 155.397 194.121 154.26 193.73C152.77 193.237 151.333 192.597 149.97 191.82C146.519 189.845 143.356 187.406 140.57 184.57C138.617 182.628 136.84 180.516 135.26 178.26C133.922 176.392 132.798 174.379 131.91 172.26C131.228 170.712 130.845 169.05 130.78 167.36C130.709 166.838 130.759 166.307 130.927 165.807C131.096 165.308 131.377 164.855 131.75 164.483C132.123 164.111 132.577 163.83 133.077 163.663C133.577 163.496 134.108 163.447 134.63 163.52L134.67 163.5ZM134.63 162.31C133.95 162.269 133.269 162.364 132.626 162.591C131.984 162.817 131.393 163.171 130.89 163.63C127.3 167.22 131.26 176.98 139.72 185.44C146.06 191.79 153.13 195.59 157.79 195.59C158.47 195.631 159.151 195.536 159.794 195.309C160.436 195.083 161.027 194.729 161.53 194.27C165.12 190.69 161.16 180.92 152.7 172.46C146.36 166.12 139.29 162.31 134.63 162.31Z" fill="white"/>
<path id="Vector_13" d="M157.83 162.29V163.5C158.352 163.427 158.883 163.476 159.383 163.643C159.883 163.81 160.337 164.091 160.71 164.463C161.083 164.835 161.364 165.288 161.533 165.787C161.701 166.287 161.751 166.818 161.68 167.34C161.615 169.03 161.232 170.692 160.55 172.24C159.662 174.359 158.538 176.372 157.2 178.24C155.62 180.496 153.843 182.608 151.89 184.55C149.104 187.386 145.941 189.825 142.49 191.8C141.125 192.573 139.688 193.212 138.2 193.71C137.063 194.101 135.872 194.317 134.67 194.35C133.612 194.413 132.573 194.053 131.78 193.35C131.43 192.961 131.161 192.506 130.989 192.011C130.818 191.516 130.746 190.992 130.78 190.47C130.845 188.783 131.228 187.124 131.91 185.58C132.799 183.461 133.922 181.448 135.26 179.58C136.84 177.324 138.617 175.212 140.57 173.27C143.367 170.428 146.54 167.982 150 166C151.368 165.231 152.804 164.592 154.29 164.09C155.428 163.702 156.618 163.489 157.82 163.46V162.25L157.83 162.29ZM157.82 162.25C153.16 162.25 146.09 166.06 139.75 172.4C131.29 180.86 127.33 190.63 130.92 194.21C131.423 194.669 132.014 195.023 132.656 195.249C133.299 195.476 133.98 195.571 134.66 195.53C139.32 195.53 146.39 191.73 152.73 185.38C161.19 176.92 165.15 167.16 161.56 163.57C161.057 163.111 160.466 162.757 159.824 162.531C159.181 162.304 158.5 162.209 157.82 162.25V162.25Z" fill="white"/>
<path id="Vector_14" d="M146.25 171C149.005 170.994 151.756 171.228 154.47 171.7C156.743 172.085 158.966 172.718 161.1 173.59C162.673 174.204 164.118 175.106 165.36 176.25C165.779 176.569 166.118 176.981 166.352 177.452C166.585 177.924 166.707 178.444 166.707 178.97C166.707 179.496 166.585 180.016 166.352 180.488C166.118 180.959 165.779 181.371 165.36 181.69C164.118 182.834 162.673 183.736 161.1 184.35C158.968 185.226 156.744 185.86 154.47 186.24C149.031 187.187 143.469 187.187 138.03 186.24C135.756 185.86 133.532 185.226 131.4 184.35C129.827 183.736 128.382 182.834 127.14 181.69C126.721 181.371 126.382 180.959 126.148 180.488C125.915 180.016 125.793 179.496 125.793 178.97C125.793 178.444 125.915 177.924 126.148 177.452C126.382 176.981 126.721 176.569 127.14 176.25C128.382 175.106 129.827 174.204 131.4 173.59C133.534 172.718 135.757 172.085 138.03 171.7C140.744 171.228 143.495 170.994 146.25 171ZM146.25 169.79C134.25 169.79 124.58 173.9 124.58 178.97C124.58 184.04 134.28 188.15 146.25 188.15C158.22 188.15 167.92 184.04 167.92 178.97C167.92 173.9 158.22 169.79 146.25 169.79Z" fill="white"/>
<path id="Vector_15" d="M146.25 158.48C146.769 158.513 147.277 158.648 147.744 158.878C148.211 159.108 148.628 159.428 148.97 159.82C150.114 161.062 151.016 162.507 151.63 164.08C152.502 166.214 153.135 168.437 153.52 170.71C154.453 176.15 154.453 181.71 153.52 187.15C153.135 189.423 152.502 191.646 151.63 193.78C151.021 195.337 150.129 196.767 149 198C148.681 198.419 148.269 198.758 147.798 198.992C147.326 199.225 146.806 199.347 146.28 199.347C145.754 199.347 145.234 199.225 144.762 198.992C144.291 198.758 143.879 198.419 143.56 198C142.416 196.758 141.514 195.313 140.9 193.74C140.028 191.606 139.395 189.383 139.01 187.11C138.077 181.67 138.077 176.11 139.01 170.67C139.395 168.397 140.028 166.174 140.9 164.04C141.514 162.467 142.416 161.022 143.56 159.78C143.902 159.388 144.319 159.068 144.786 158.838C145.253 158.608 145.761 158.473 146.28 158.44L146.25 158.48ZM146.28 157.23C141.21 157.23 137.1 166.93 137.1 178.89C137.1 190.85 141.21 200.56 146.28 200.56C151.35 200.56 155.46 190.86 155.46 178.89C155.46 166.92 151.35 157.23 146.28 157.23V157.23Z" fill="white"/>
<path id="Vector_16" d="M146.25 173.51C143.96 173.51 141.48 174.08 141.48 175.32V182.54C141.48 183.79 143.96 184.35 146.24 184.35H146.3C146.969 184.35 147.638 184.3 148.3 184.2C150.02 183.92 151.02 183.31 151.02 182.54V175.32C151 174.08 148.54 173.51 146.25 173.51ZM149.72 182.51C149.239 182.872 148.661 183.081 148.06 183.11C147.461 183.203 146.856 183.247 146.25 183.24C144.08 183.24 142.94 182.73 142.78 182.51V181.41C145.041 182.103 147.459 182.103 149.72 181.41V182.51ZM142.78 176.61C145.041 177.303 147.459 177.303 149.72 176.61V177.7C149.56 177.91 148.43 178.43 146.25 178.43C144.07 178.43 142.94 177.91 142.78 177.7V176.61ZM142.78 180.1V179C145.041 179.693 147.459 179.693 149.72 179V180.09C149.56 180.3 148.42 180.82 146.25 180.82C144.08 180.82 142.94 180.32 142.78 180.11V180.1ZM146.26 174.6C148.38 174.6 149.54 175.09 149.7 175.31C149.54 175.54 148.38 176.03 146.26 176.03C144.14 176.03 142.97 175.54 142.81 175.31C143 175.1 144.13 174.61 146.26 174.61V174.6Z" fill="white"/>
</g>
<g id="arrow2" class="float">
<path id="Vector_17" opacity="0.1" d="M136.64 117.8H127.91V119.5H136.64V117.8Z" fill="url(#paint4_linear)"/>
<path id="Vector_18" opacity="0.2" d="M136.64 115.11H127.91V116.81H136.64V115.11Z" fill="url(#paint5_linear)"/>
<path id="Vector_19" opacity="0.3" d="M136.64 112.42H127.91V114.12H136.64V112.42Z" fill="url(#paint6_linear)"/>
<path id="Vector_20" opacity="0.4" d="M136.64 109.73H127.91V111.43H136.64V109.73Z" fill="url(#paint7_linear)"/>
<path id="Vector_21" opacity="0.5" d="M136.64 107.03H127.91V108.73H136.64V107.03Z" fill="url(#paint8_linear)"/>
<path id="Vector_22" opacity="0.6" d="M136.64 104.34H127.91V106.04H136.64V104.34Z" fill="url(#paint9_linear)"/>
<path id="Vector_23" opacity="0.7" d="M136.64 101.65H127.91V103.35H136.64V101.65Z" fill="url(#paint10_linear)"/>
<path id="Vector_24" opacity="0.8" d="M136.64 98.96H127.91V100.66H136.64V98.96Z" fill="url(#paint11_linear)"/>
<path id="Vector_25" opacity="0.9" d="M136.64 96.26H127.91V97.96H136.64V96.26Z" fill="url(#paint12_linear)"/>
<path id="Vector_26" d="M136.64 93.57H127.91V95.27H136.64V93.57Z" fill="url(#paint13_linear)"/>
<path id="Vector_27" d="M136.64 90.88H127.91V92.58H136.64V90.88Z" fill="url(#paint14_linear)"/>
<path id="Vector_28" d="M142.15 89.84H122.4L132.27 79.47L142.15 89.84Z" fill="url(#paint15_linear)"/>
</g>
<g id="arrow3" class="floatinv">
<path id="Vector_29" opacity="0.1" d="M230.24 111.29H238.97V109.59H230.24V111.29Z" fill="url(#paint16_linear)"/>
<path id="Vector_30" opacity="0.2" d="M230.24 113.99H238.97V112.29H230.24V113.99Z" fill="url(#paint17_linear)"/>
<path id="Vector_31" opacity="0.3" d="M230.24 116.67H238.97V114.97H230.24V116.67Z" fill="url(#paint18_linear)"/>
<path id="Vector_32" opacity="0.4" d="M230.24 119.37H238.97V117.67H230.24V119.37Z" fill="url(#paint19_linear)"/>
<path id="Vector_33" opacity="0.5" d="M230.24 122.06H238.97V120.36H230.24V122.06Z" fill="url(#paint20_linear)"/>
<path id="Vector_34" opacity="0.6" d="M230.24 124.76H238.97V123.06H230.24V124.76Z" fill="url(#paint21_linear)"/>
<path id="Vector_35" opacity="0.7" d="M230.24 127.45H238.97V125.75H230.24V127.45Z" fill="url(#paint22_linear)"/>
<path id="Vector_36" opacity="0.8" d="M230.24 130.14H238.97V128.44H230.24V130.14Z" fill="url(#paint23_linear)"/>
<path id="Vector_37" opacity="0.9" d="M230.24 132.83H238.97V131.13H230.24V132.83Z" fill="url(#paint24_linear)"/>
<path id="Vector_38" d="M230.24 135.53H238.97V133.83H230.24V135.53Z" fill="url(#paint25_linear)"/>
<path id="Vector_39" d="M230.24 138.22H238.97V136.52H230.24V138.22Z" fill="url(#paint26_linear)"/>
<path id="Vector_40" d="M224.73 139.25H244.47L234.6 149.63L224.73 139.25Z" fill="url(#paint27_linear)"/>
</g>
<g id="arrow1" class="float">
<path id="Vector_41" opacity="0.1" d="M43.17 147.08H34.44V148.78H43.17V147.08Z" fill="url(#paint28_linear)"/>
<path id="Vector_42" opacity="0.2" d="M43.17 144.38H34.44V146.08H43.17V144.38Z" fill="url(#paint29_linear)"/>
<path id="Vector_43" opacity="0.3" d="M43.17 141.69H34.44V143.39H43.17V141.69Z" fill="url(#paint30_linear)"/>
<path id="Vector_44" opacity="0.4" d="M43.17 139H34.44V140.7H43.17V139Z" fill="url(#paint31_linear)"/>
<path id="Vector_45" opacity="0.5" d="M43.17 136.31H34.44V138.01H43.17V136.31Z" fill="url(#paint32_linear)"/>
<path id="Vector_46" opacity="0.6" d="M43.17 133.61H34.44V135.31H43.17V133.61Z" fill="url(#paint33_linear)"/>
<path id="Vector_47" opacity="0.7" d="M43.17 130.92H34.44V132.62H43.17V130.92Z" fill="url(#paint34_linear)"/>
<path id="Vector_48" opacity="0.8" d="M43.17 128.23H34.44V129.93H43.17V128.23Z" fill="url(#paint35_linear)"/>
<path id="Vector_49" opacity="0.9" d="M43.17 125.54H34.44V127.24H43.17V125.54Z" fill="url(#paint36_linear)"/>
<path id="Vector_50" d="M43.17 122.84H34.44V124.54H43.17V122.84Z" fill="url(#paint37_linear)"/>
<path id="Vector_51" d="M43.17 120.15H34.44V121.85H43.17V120.15Z" fill="url(#paint38_linear)"/>
<path id="Vector_52" d="M48.68 119.12H28.93L38.8 108.74L48.68 119.12Z" fill="url(#paint39_linear)"/>
</g>
<g id="logo1" class="tickk">
<path id="Vector_53" d="M70.38 184.44C71.2381 184.46 72.0879 184.612 72.9 184.89C73.9403 185.249 74.9447 185.704 75.9 186.25C78.3602 187.657 80.6147 189.397 82.6 191.42C83.9933 192.806 85.2616 194.311 86.39 195.92C87.3415 197.256 88.1398 198.695 88.77 200.21C89.2545 201.309 89.5292 202.49 89.58 203.69C89.609 204.061 89.5628 204.433 89.4442 204.785C89.3256 205.138 89.1371 205.462 88.89 205.74C88.6099 205.986 88.2834 206.174 87.9297 206.293C87.5759 206.411 87.202 206.458 86.83 206.43C85.9753 206.409 85.1289 206.257 84.32 205.98C83.2593 205.624 82.2348 205.169 81.26 204.62C78.8048 203.21 76.5539 201.47 74.57 199.45C73.1961 198.078 71.9446 196.589 70.83 195C69.8794 193.661 69.078 192.223 68.44 190.71C67.9628 189.605 67.6917 188.422 67.64 187.22C67.5886 186.848 67.624 186.469 67.7435 186.114C67.863 185.758 68.0634 185.434 68.3288 185.169C68.5943 184.903 68.9177 184.703 69.2735 184.584C69.6294 184.464 70.0081 184.429 70.38 184.48V184.44ZM70.38 183.62C69.8964 183.592 69.412 183.66 68.9552 183.822C68.4985 183.983 68.0785 184.234 67.72 184.56C65.17 187.08 68 194 74 200.06C78.52 204.58 83.56 207.29 86.87 207.29C87.3552 207.319 87.8414 207.251 88.2999 207.089C88.7584 206.928 89.18 206.677 89.54 206.35C92.09 203.8 89.28 196.84 83.25 190.81C78.73 186.29 73.69 183.58 70.37 183.58L70.38 183.62Z" fill="url(#paint40_linear)"/>
<path id="Vector_54" d="M86.88 183.58V184.44C87.2526 184.387 87.6325 184.421 87.9897 184.54C88.3469 184.658 88.6716 184.859 88.9382 185.124C89.2049 185.39 89.4062 185.714 89.5262 186.071C89.6463 186.427 89.6818 186.807 89.63 187.18C89.5793 188.384 89.3046 189.567 88.82 190.67C88.1925 192.198 87.3941 193.651 86.44 195C85.3114 196.605 84.0431 198.108 82.65 199.49C80.6647 201.513 78.4101 203.253 75.95 204.66C74.9947 205.206 73.9903 205.661 72.95 206.02C72.1379 206.298 71.2881 206.45 70.43 206.47C69.6986 206.511 68.9802 206.264 68.43 205.78C68.1829 205.502 67.9944 205.178 67.8758 204.825C67.7572 204.473 67.711 204.101 67.74 203.73C67.7917 202.531 68.0629 201.351 68.54 200.25C69.178 198.737 69.9794 197.299 70.93 195.96C72.0584 194.351 73.3267 192.846 74.72 191.46C76.7039 189.44 78.9548 187.7 81.41 186.29C82.3847 185.741 83.4093 185.286 84.47 184.93C85.2788 184.653 86.1253 184.501 86.98 184.48V183.62L86.88 183.58ZM86.98 183.62C83.67 183.62 78.63 186.33 74.11 190.85C68.11 196.85 65.27 203.85 67.82 206.39C68.1785 206.716 68.5985 206.967 69.0552 207.128C69.512 207.29 69.9964 207.358 70.48 207.33C73.8 207.33 78.84 204.62 83.36 200.1C89.36 194.1 92.2 187.1 89.65 184.56C89.29 184.233 88.8683 183.982 88.4098 183.821C87.9513 183.659 87.4652 183.591 86.98 183.62V183.62Z" fill="url(#paint41_linear)"/>
<path id="Vector_55" d="M78.63 189.76C80.5942 189.754 82.5551 189.922 84.49 190.26C86.1073 190.534 87.69 190.983 89.21 191.6C90.3185 192.043 91.3356 192.687 92.21 193.5C92.5085 193.728 92.7504 194.021 92.917 194.358C93.0835 194.694 93.1701 195.065 93.1701 195.44C93.1701 195.815 93.0835 196.186 92.917 196.522C92.7504 196.859 92.5085 197.152 92.21 197.38C91.3348 198.189 90.3177 198.83 89.21 199.27C87.692 199.895 86.1088 200.347 84.49 200.62C80.6151 201.287 76.6549 201.287 72.78 200.62C71.1609 200.349 69.5776 199.896 68.06 199.27C66.9523 198.83 65.9353 198.189 65.06 197.38C64.7615 197.152 64.5196 196.859 64.353 196.522C64.1865 196.186 64.0999 195.815 64.0999 195.44C64.0999 195.065 64.1865 194.694 64.353 194.358C64.5196 194.021 64.7615 193.728 65.06 193.5C65.9344 192.687 66.9515 192.043 68.06 191.6C69.5796 190.982 71.1624 190.533 72.78 190.26C74.7116 189.922 76.6691 189.755 78.63 189.76V189.76ZM78.63 188.9C70.11 188.9 63.2 191.82 63.2 195.44C63.2 199.06 70.11 202 78.63 202C87.15 202 94.07 199.07 94.07 195.46C94.07 191.85 87.16 188.92 78.63 188.92V188.9Z" fill="url(#paint42_linear)"/>
<path id="Vector_56" d="M78.63 180.86C79.0035 180.89 79.3673 180.994 79.7003 181.165C80.0333 181.337 80.3289 181.573 80.57 181.86C81.3827 182.734 82.0269 183.751 82.47 184.86C83.0899 186.379 83.5393 187.962 83.81 189.58C84.4767 193.455 84.4767 197.415 83.81 201.29C83.5391 202.905 83.0897 204.484 82.47 206C82.0256 207.108 81.3816 208.125 80.57 209C80.3433 209.298 80.0507 209.54 79.715 209.707C79.3794 209.873 79.0097 209.96 78.635 209.96C78.2603 209.96 77.8906 209.873 77.555 209.707C77.2193 209.54 76.9267 209.298 76.7 209C75.8884 208.125 75.2444 207.108 74.8 206C74.1799 204.477 73.7272 202.891 73.45 201.27C72.7833 197.395 72.7833 193.435 73.45 189.56C73.7285 187.943 74.1811 186.36 74.8 184.84C75.2431 183.731 75.8873 182.714 76.7 181.84C76.9399 181.554 77.2339 181.319 77.5652 181.147C77.8964 180.976 78.2583 180.871 78.63 180.84V180.86ZM78.63 179.98C75.02 179.98 72.09 186.89 72.09 195.42C72.09 203.95 75.02 210.85 78.63 210.85C82.24 210.85 85.18 203.94 85.18 195.42C85.18 186.9 82.25 180 78.63 180V179.98Z" fill="url(#paint43_linear)"/>
<path id="Vector_57" d="M78.63 191.57C77 191.57 75.24 191.98 75.24 192.87V198C75.24 198.88 77 199.29 78.63 199.29C79.1087 199.289 79.5867 199.252 80.06 199.18C81.32 199 82 198.56 82 198V192.86C82 192 80.26 191.57 78.63 191.57ZM81.11 198C80.7685 198.258 80.3575 198.408 79.93 198.43C79.4998 198.495 79.065 198.525 78.63 198.52C77.7738 198.609 76.911 198.431 76.16 198.01V197.22C77.7886 197.724 79.5314 197.724 81.16 197.22L81.11 198ZM76.11 193.8C77.7386 194.304 79.4814 194.304 81.11 193.8V194.57C80.3611 195.007 79.492 195.193 78.63 195.1C77.771 195.195 76.9045 195.009 76.16 194.57L76.11 193.8ZM76.11 196.28V195.51C77.7386 196.014 79.4814 196.014 81.11 195.51V196.28C80.3592 196.711 79.4909 196.894 78.63 196.8C77.771 196.895 76.9045 196.709 76.16 196.27L76.11 196.28ZM78.59 192.37C79.443 192.282 80.3024 192.46 81.05 192.88C80.3024 193.3 79.443 193.478 78.59 193.39C77.737 193.478 76.8776 193.3 76.13 192.88C76.8908 192.446 77.7694 192.264 78.64 192.36L78.59 192.37Z" fill="url(#paint44_linear)"/>
</g>
<g id="logo2" class="tickk">
<path id="Vector_58" d="M222 181.82C222.562 181.833 223.119 181.934 223.65 182.12C224.344 182.35 225.014 182.648 225.65 183.01C227.265 183.933 228.746 185.074 230.05 186.4C230.96 187.31 231.79 188.297 232.53 189.35C233.159 190.227 233.686 191.173 234.1 192.17C234.418 192.893 234.598 193.67 234.63 194.46C234.648 194.702 234.618 194.945 234.54 195.175C234.463 195.406 234.341 195.618 234.18 195.8C233.997 195.962 233.783 196.086 233.551 196.165C233.319 196.244 233.074 196.276 232.83 196.26C232.268 196.246 231.711 196.145 231.18 195.96C230.486 195.73 229.816 195.432 229.18 195.07C227.567 194.144 226.087 193.003 224.78 191.68C223.865 190.756 223.035 189.752 222.3 188.68C221.671 187.806 221.144 186.864 220.73 185.87C220.412 185.147 220.232 184.37 220.2 183.58C220.167 183.336 220.191 183.087 220.27 182.854C220.348 182.62 220.48 182.408 220.654 182.234C220.828 182.06 221.041 181.928 221.274 181.85C221.507 181.771 221.756 181.747 222 181.78V181.78V181.82ZM222 181.21C221.683 181.192 221.366 181.238 221.067 181.344C220.769 181.451 220.494 181.616 220.26 181.83C218.58 183.51 220.43 188.08 224.38 192.04C227.38 195.04 230.66 196.78 232.84 196.78C233.158 196.798 233.477 196.753 233.777 196.646C234.078 196.54 234.354 196.374 234.59 196.16C236.26 194.49 234.41 189.92 230.46 185.96C227.46 182.96 224.18 181.21 222 181.21V181.21Z" fill="url(#paint45_linear)"/>
<path id="Vector_59" d="M232.8 181.25V181.82C233.045 181.785 233.294 181.807 233.528 181.885C233.763 181.963 233.976 182.095 234.15 182.27C234.325 182.444 234.457 182.657 234.535 182.892C234.613 183.126 234.635 183.375 234.6 183.62C234.568 184.41 234.388 185.187 234.07 185.91C233.656 186.904 233.129 187.846 232.5 188.72C231.765 189.792 230.935 190.796 230.02 191.72C228.713 193.043 227.233 194.184 225.62 195.11C224.984 195.472 224.314 195.77 223.62 196C223.089 196.186 222.532 196.287 221.97 196.3C221.727 196.316 221.484 196.284 221.254 196.205C221.024 196.126 220.812 196.002 220.63 195.84C220.466 195.66 220.341 195.448 220.262 195.217C220.183 194.987 220.151 194.743 220.17 194.5C220.202 193.71 220.382 192.933 220.7 192.21C221.114 191.213 221.641 190.267 222.27 189.39C223.01 188.337 223.84 187.35 224.75 186.44C226.054 185.114 227.535 183.973 229.15 183.05C229.786 182.688 230.456 182.39 231.15 182.16C231.681 181.975 232.238 181.874 232.8 181.86V181.29V181.25ZM232.8 181.29C230.62 181.29 227.31 183.08 224.34 186.04C220.34 190.04 218.54 194.57 220.22 196.24C220.454 196.454 220.729 196.619 221.027 196.726C221.326 196.832 221.643 196.878 221.96 196.86C224.14 196.86 227.45 195.08 230.42 192.12C234.42 188.12 236.22 183.59 234.55 181.91C234.314 181.696 234.038 181.53 233.737 181.424C233.437 181.317 233.118 181.272 232.8 181.29V181.29Z" fill="url(#paint46_linear)"/>
<path id="Vector_60" d="M227.38 185.31C228.671 185.305 229.959 185.416 231.23 185.64C232.292 185.819 233.332 186.114 234.33 186.52C235.071 186.805 235.75 187.229 236.33 187.77C236.525 187.919 236.683 188.112 236.792 188.332C236.9 188.552 236.957 188.794 236.957 189.04C236.957 189.286 236.9 189.528 236.792 189.748C236.683 189.968 236.525 190.161 236.33 190.31C235.746 190.844 235.068 191.265 234.33 191.55C233.332 191.959 232.293 192.257 231.23 192.44C228.686 192.88 226.084 192.88 223.54 192.44C222.477 192.26 221.437 191.962 220.44 191.55C219.703 191.263 219.025 190.843 218.44 190.31C218.072 189.985 217.846 189.529 217.81 189.04C217.844 188.55 218.071 188.094 218.44 187.77C219.021 187.23 219.7 186.806 220.44 186.52C221.437 186.112 222.477 185.817 223.54 185.64C224.808 185.416 226.093 185.305 227.38 185.31V185.31ZM227.38 184.74C221.78 184.74 217.25 186.67 217.25 189.04C217.25 191.41 221.78 193.33 227.38 193.33C232.98 193.33 237.51 191.41 237.51 189.04C237.51 186.67 232.98 184.74 227.38 184.74Z" fill="url(#paint47_linear)"/>
<path id="Vector_61" d="M227.38 179.47C227.623 179.485 227.861 179.548 228.079 179.656C228.297 179.764 228.491 179.915 228.65 180.1C229.191 180.68 229.615 181.359 229.9 182.1C230.301 183.1 230.596 184.139 230.78 185.2C231.22 187.744 231.22 190.346 230.78 192.89C230.599 193.952 230.304 194.991 229.9 195.99C229.611 196.729 229.188 197.407 228.65 197.99C228.326 198.359 227.87 198.586 227.38 198.62C226.891 198.584 226.435 198.358 226.11 197.99C225.579 197.402 225.156 196.725 224.86 195.99C224.456 194.991 224.161 193.952 223.98 192.89C223.54 190.346 223.54 187.744 223.98 185.2C224.164 184.139 224.459 183.1 224.86 182.1C225.152 181.363 225.576 180.686 226.11 180.1C226.27 179.916 226.464 179.766 226.682 179.658C226.9 179.55 227.137 179.486 227.38 179.47V179.47ZM227.38 178.91C225.01 178.91 223.09 183.44 223.09 189.04C223.09 194.64 225.01 199.17 227.38 199.17C229.75 199.17 231.67 194.63 231.67 189.04C231.67 183.45 229.75 178.91 227.38 178.91Z" fill="url(#paint48_linear)"/>
<path id="Vector_62" d="M227.38 186.5C226.31 186.5 225.15 186.77 225.15 187.35V190.72C225.15 191.31 226.31 191.57 227.38 191.57C227.695 191.572 228.009 191.549 228.32 191.5C229.13 191.37 229.59 191.09 229.59 190.72V187.35C229.61 186.77 228.45 186.5 227.38 186.5ZM229.01 190.72C228.779 190.88 228.51 190.977 228.23 191C227.948 191.04 227.664 191.06 227.38 191.06C226.818 191.12 226.251 191.001 225.76 190.72V190.2C226.282 190.372 226.83 190.453 227.38 190.44C227.933 190.453 228.484 190.371 229.01 190.2V190.72ZM225.76 188C226.283 188.167 226.831 188.249 227.38 188.24C227.929 188.247 228.476 188.166 229 188V188.51C228.505 188.79 227.935 188.909 227.37 188.85C226.808 188.911 226.24 188.792 225.75 188.51L225.76 188ZM225.76 189.63V189.12C226.282 189.292 226.83 189.373 227.38 189.36C227.933 189.373 228.484 189.291 229.01 189.12V189.63C228.515 189.91 227.945 190.028 227.38 189.97C226.813 190.019 226.246 189.886 225.76 189.59V189.63ZM227.38 187.06C227.941 187.004 228.506 187.119 229 187.39C228.491 187.615 227.941 187.731 227.385 187.731C226.829 187.731 226.279 187.615 225.77 187.39C226.254 187.099 226.816 186.963 227.38 187V187.06Z" fill="url(#paint49_linear)"/>
</g>
<path id="cloud2" class="horzinv" d="M274.82 94.31C274.82 97.8303 273.422 101.207 270.934 103.697C268.446 106.187 265.07 107.587 261.55 107.59V107.74H204.5C202.021 107.746 199.574 107.175 197.353 106.073C195.132 104.972 193.198 103.369 191.702 101.392C190.207 99.4141 189.191 97.1163 188.736 94.6792C188.28 92.2422 188.397 89.7327 189.078 87.3486C189.758 84.9646 190.983 82.7713 192.657 80.9419C194.33 79.1124 196.405 77.6968 198.719 76.8067C201.033 75.9166 203.522 75.5765 205.99 75.8131C208.458 76.0497 210.837 76.8565 212.94 78.17C213.989 72.5229 217.071 67.4561 221.603 63.9282C226.136 60.4004 231.804 58.6562 237.536 59.0257C243.268 59.3953 248.665 61.8529 252.707 65.9336C256.749 70.0143 259.155 75.435 259.47 81.17C260.158 81.0655 260.854 81.012 261.55 81.01C263.295 81.0113 265.022 81.3564 266.634 82.0257C268.245 82.6949 269.709 83.6751 270.941 84.9102C272.173 86.1454 273.15 87.6113 273.816 89.2241C274.481 90.837 274.823 92.5652 274.82 94.31V94.31Z" fill="url(#paint50_linear)"/>
<path id="cloud1" class="horz" d="M140.57 70C140.567 71.9273 139.801 73.7749 138.438 75.1377C137.075 76.5006 135.227 77.2674 133.3 77.27H45C41.4958 77.282 38.0625 76.2833 35.1115 74.3935C32.1605 72.5037 29.8171 69.803 28.3622 66.6151C26.9072 63.4272 26.4024 59.8873 26.9083 56.4198C27.4142 52.9523 28.9093 49.7042 31.2144 47.0649C33.5195 44.4256 36.5368 42.5069 39.9047 41.539C43.2726 40.571 46.8481 40.5948 50.2028 41.6075C53.5575 42.6202 56.5491 44.5788 58.8188 47.2486C61.0886 49.9184 62.5403 53.1861 63 56.66C64.2055 54.9293 65.8119 53.516 67.6821 52.5408C69.5524 51.5656 71.6308 51.0576 73.74 51.06C74.16 51.06 74.57 51.06 74.98 51.12C75.5609 45.4712 78.3035 40.2658 82.6341 36.5927C86.9647 32.9196 92.5479 31.0632 98.2157 31.412C103.884 31.7607 109.197 34.2876 113.045 38.4639C116.892 42.6403 118.976 48.1426 118.86 53.82C118.86 54.38 118.86 54.95 118.8 55.51C119.375 55.4179 119.957 55.3711 120.54 55.37C122.884 55.3624 125.169 56.1115 127.053 57.5059C128.938 58.9004 130.322 60.8658 131 63.11C132.093 62.7474 133.256 62.6494 134.393 62.8241C135.531 62.9989 136.611 63.4413 137.545 64.115C138.478 64.7887 139.238 65.6744 139.762 66.6993C140.287 67.7241 140.56 68.8588 140.56 70.01L140.57 70Z" fill="url(#paint51_linear)"/>
<path id="Vector_63" d="M16.38 163.87C16.38 163.87 10.54 169.87 10.26 172.19C9.98 174.51 13 178 13 178L16.38 163.87Z" fill="#A80045"/>
<path id="Vector_64" d="M18.88 226.49C18.88 226.49 19.08 229.7 19.7 229.74H22.85H26.76C26.7328 229.442 26.6016 229.164 26.3894 228.954C26.1773 228.743 25.8977 228.615 25.6 228.59C24.8268 228.475 24.0885 228.191 23.4384 227.757C22.7882 227.323 22.2424 226.75 21.84 226.08C21.11 224.48 18.88 226.49 18.88 226.49Z" fill="#333333"/>
<path id="Vector_65" d="M10.17 226.49C10.17 226.49 10.36 229.7 10.98 229.74H18.06C18.0286 229.44 17.8937 229.16 17.6784 228.948C17.4631 228.736 17.1808 228.606 16.88 228.58C16.1079 228.466 15.3708 228.182 14.7222 227.748C14.0736 227.313 13.5297 226.74 13.13 226.07C12.4 224.48 10.17 226.49 10.17 226.49Z" fill="#333333"/>
<path id="Vector_66" d="M23.22 192.08C22.046 198.245 20.4285 204.318 18.38 210.25C14.56 221.87 14 226.9 14 226.9C13.2938 226.995 12.5824 227.045 11.87 227.05C11.1978 227.013 10.5293 226.926 9.87 226.79C9.87 226.79 9.87 214.09 11.59 208.24C13.31 202.39 11.97 187.17 11.97 187.17L23.22 192.08Z" fill="#163560"/>
<path id="Vector_67" d="M25.21 187.53C25.2028 194.891 24.6815 202.242 23.65 209.53C21.94 221.65 22.52 226.79 22.52 226.79C22.52 226.79 21.12 227.04 20.62 227.06C20.12 227.08 18.43 226.92 18.43 226.92C18.43 226.92 16 214.79 16.69 208.72C17.38 202.65 13.34 187.92 13.34 187.92L25.21 187.53Z" fill="#1C468A"/>
<path id="Vector_68" d="M17.3 164.44L19.22 165.87L22.01 165.29C22.01 165.03 21.79 163.98 21.62 163.03V162.86C21.48 162.05 21.35 161.35 21.35 161.35L18.75 160.05L17.75 159.57C17.75 159.57 17.83 160.47 17.84 160.57C17.9698 161.885 17.7847 163.211 17.3 164.44V164.44Z" fill="#FFD0C5"/>
<path id="Vector_69" d="M21.82 163.72C20.4485 163.277 19.0441 162.942 17.62 162.72C17.22 162.86 16.98 163.64 16.98 163.64L23.08 165.02C22.8039 164.467 22.3639 164.013 21.82 163.72V163.72Z" fill="#E58638"/>
<path id="Vector_70" d="M11.77 188.75C12.41 191.63 22.93 191.98 25.64 189.36C25.95 189.06 25.96 187.67 25.85 185.8C25.62 182.14 24.85 176.64 24.85 173.8C24.8238 172.456 24.6732 171.117 24.4 169.8C24.0806 168.169 23.6394 166.565 23.08 165C23.08 165 17.94 163.34 16.98 163.62C12.34 165 11.14 185.87 11.77 188.75Z" fill="url(#paint52_linear)"/>
<path id="Vector_71" opacity="0.5" d="M25.85 185.8C25.62 182.14 24.85 176.64 24.85 173.8C24.8238 172.456 24.6732 171.117 24.4 169.8L21.31 169.26C21.31 169.26 18.3 181.62 25.85 185.8Z" fill="#A80045"/>
<path id="Vector_72" d="M24.17 180.7C24.113 180.846 24.1046 181.007 24.146 181.158C24.1874 181.309 24.2765 181.443 24.4 181.54C24.6109 181.679 24.7807 181.872 24.8915 182.099C25.0023 182.326 25.0501 182.578 25.03 182.83C24.93 183.23 23.96 183.83 23.62 183.78C23.28 183.73 22.62 183.15 22.68 182.93C22.74 182.71 22.22 181.08 23.04 180.45C23.86 179.82 24.17 180.7 24.17 180.7Z" fill="#FFD0C5"/>
<path id="Vector_73" d="M20.72 164.29C22.9737 164.93 24.9047 166.393 26.13 168.39C28.54 171.93 30.13 174.57 29.67 175.84C29.21 177.11 25.2 181.54 24.5 181.54C24.0391 181.548 23.5916 181.385 23.2443 181.082C22.8969 180.779 22.6744 180.358 22.62 179.9C22.62 179.9 25.46 175.64 24.9 175.01C24.66 174.73 21.21 171.93 20.72 173.2C19.91 175.29 20.72 164.29 20.72 164.29Z" fill="url(#paint53_linear)"/>
<path id="Vector_74" d="M18 160.64C18.57 161.73 20.7 162.64 21.59 163.03V162.86C21.45 162.05 21.32 161.35 21.32 161.35L18.72 160.05C18.15 160 17.8 160.19 18 160.64Z" fill="#F7BAAD"/>
<path id="Vector_75" d="M22.16 161.41C22.16 161.41 18.31 162.61 17.6 160.2C16.89 157.79 15.91 156.32 18.34 155.45C20.77 154.58 21.52 155.36 21.96 156.11C22.4 156.86 23.15 161 22.16 161.41Z" fill="#FFD0C5"/>
<path id="Vector_76" d="M21.8 155.87C21.8 155.87 21.56 158.68 20.98 158.56C20.4 158.44 19.87 158.35 19.98 159.19C20.09 160.03 20.87 161.01 19.08 161.19C17.29 161.37 14.72 156.73 15.21 155.86C16.61 153.31 23.85 152.8 21.8 155.87Z" fill="#333333"/>
</g>
</g>
<defs>
<linearGradient id="paint0_linear" x1="78.63" y1="178.93" x2="212.78" y2="178.93" gradientUnits="userSpaceOnUse">
<stop stop-color="#D23274"/>
<stop offset="1" stop-color="#F24A37"/>
</linearGradient>
<linearGradient id="paint1_linear" x1="24366.6" y1="3233.23" x2="24366.6" y2="3069.52" gradientUnits="userSpaceOnUse">
<stop stop-color="#D23274"/>
<stop offset="1" stop-color="#F24A37"/>
</linearGradient>
<linearGradient id="paint2_linear" x1="3049.83" y1="12545.1" x2="11310.8" y2="12545.1" gradientUnits="userSpaceOnUse">
<stop stop-color="#D23274"/>
<stop offset="1" stop-color="#F24A37"/>
</linearGradient>
<linearGradient id="paint3_linear" x1="8279.68" y1="12137.9" x2="9785.51" y2="12137.9" gradientUnits="userSpaceOnUse">
<stop stop-color="#D23274"/>
<stop offset="1" stop-color="#F24A37"/>
</linearGradient>
<linearGradient id="paint4_linear" x1="132.27" y1="119.51" x2="132.27" y2="117.8" gradientUnits="userSpaceOnUse">
<stop stop-color="#D23274"/>
<stop offset="1" stop-color="#FF8F49"/>
</linearGradient>
<linearGradient id="paint5_linear" x1="1282.63" y1="313.704" x2="1282.63" y2="310.797" gradientUnits="userSpaceOnUse">
<stop stop-color="#D23274"/>
<stop offset="1" stop-color="#FF8F49"/>
</linearGradient>
<linearGradient id="paint6_linear" x1="1282.63" y1="306.425" x2="1282.63" y2="303.534" gradientUnits="userSpaceOnUse">
<stop stop-color="#D23274"/>
<stop offset="1" stop-color="#FF8F49"/>
</linearGradient>
<linearGradient id="paint7_linear" x1="1282.63" y1="299.161" x2="1282.63" y2="296.271" gradientUnits="userSpaceOnUse">
<stop stop-color="#D23274"/>
<stop offset="1" stop-color="#FF8F49"/>
</linearGradient>
<linearGradient id="paint8_linear" x1="1282.63" y1="291.889" x2="1282.63" y2="288.982" gradientUnits="userSpaceOnUse">
<stop stop-color="#D23274"/>
<stop offset="1" stop-color="#FF8F49"/>
</linearGradient>
<linearGradient id="paint9_linear" x1="1282.63" y1="284.625" x2="1282.63" y2="281.718" gradientUnits="userSpaceOnUse">
<stop stop-color="#D23274"/>
<stop offset="1" stop-color="#FF8F49"/>
</linearGradient>
<linearGradient id="paint10_linear" x1="1282.63" y1="277.345" x2="1282.63" y2="274.455" gradientUnits="userSpaceOnUse">
<stop stop-color="#D23274"/>
<stop offset="1" stop-color="#FF8F49"/>
</linearGradient>
<linearGradient id="paint11_linear" x1="1282.63" y1="270.082" x2="1282.63" y2="267.192" gradientUnits="userSpaceOnUse">
<stop stop-color="#D23274"/>
<stop offset="1" stop-color="#FF8F49"/>
</linearGradient>
<linearGradient id="paint12_linear" x1="1282.63" y1="262.809" x2="1282.63" y2="259.902" gradientUnits="userSpaceOnUse">
<stop stop-color="#D23274"/>
<stop offset="1" stop-color="#FF8F49"/>
</linearGradient>
<linearGradient id="paint13_linear" x1="1282.63" y1="255.546" x2="1282.63" y2="252.639" gradientUnits="userSpaceOnUse">
<stop stop-color="#D23274"/>
<stop offset="1" stop-color="#FF8F49"/>
</linearGradient>
<linearGradient id="paint14_linear" x1="1282.63" y1="248.266" x2="1282.63" y2="245.376" gradientUnits="userSpaceOnUse">
<stop stop-color="#D23274"/>
<stop offset="1" stop-color="#FF8F49"/>
</linearGradient>
<linearGradient id="paint15_linear" x1="2734.73" y1="1011.21" x2="2734.73" y2="903.574" gradientUnits="userSpaceOnUse">
<stop stop-color="#D23274"/>
<stop offset="1" stop-color="#FF8F49"/>
</linearGradient>
<linearGradient id="paint16_linear" x1="-1970.42" y1="-114.564" x2="-1970.42" y2="-117.471" gradientUnits="userSpaceOnUse">
<stop stop-color="#D23274"/>
<stop offset="1" stop-color="#FF8F49"/>
</linearGradient>
<linearGradient id="paint17_linear" x1="-1970.42" y1="-112.671" x2="-1970.42" y2="-115.561" gradientUnits="userSpaceOnUse">
<stop stop-color="#D23274"/>
<stop offset="1" stop-color="#FF8F49"/>
</linearGradient>
<linearGradient id="paint18_linear" x1="-1970.42" y1="-110.807" x2="-1970.42" y2="-113.697" gradientUnits="userSpaceOnUse">
<stop stop-color="#D23274"/>
<stop offset="1" stop-color="#FF8F49"/>
</linearGradient>
<linearGradient id="paint19_linear" x1="-1970.42" y1="-108.915" x2="-1970.42" y2="-111.805" gradientUnits="userSpaceOnUse">
<stop stop-color="#D23274"/>
<stop offset="1" stop-color="#FF8F49"/>
</linearGradient>
<linearGradient id="paint20_linear" x1="-1970.42" y1="-107.024" x2="-1970.42" y2="-109.931" gradientUnits="userSpaceOnUse">
<stop stop-color="#D23274"/>
<stop offset="1" stop-color="#FF8F49"/>
</linearGradient>
<linearGradient id="paint21_linear" x1="-1970.42" y1="-105.131" x2="-1970.42" y2="-108.021" gradientUnits="userSpaceOnUse">
<stop stop-color="#D23274"/>
<stop offset="1" stop-color="#FF8F49"/>
</linearGradient>
<linearGradient id="paint22_linear" x1="-1970.42" y1="-103.259" x2="-1970.42" y2="-106.149" gradientUnits="userSpaceOnUse">
<stop stop-color="#D23274"/>
<stop offset="1" stop-color="#FF8F49"/>
</linearGradient>
<linearGradient id="paint23_linear" x1="-1970.42" y1="-101.375" x2="-1970.42" y2="-104.265" gradientUnits="userSpaceOnUse">
<stop stop-color="#D23274"/>
<stop offset="1" stop-color="#FF8F49"/>
</linearGradient>
<linearGradient id="paint24_linear" x1="-1970.42" y1="-99.4846" x2="-1970.42" y2="-102.392" gradientUnits="userSpaceOnUse">
<stop stop-color="#D23274"/>
<stop offset="1" stop-color="#FF8F49"/>
</linearGradient>
<linearGradient id="paint25_linear" x1="-1970.42" y1="-97.5916" x2="-1970.42" y2="-100.482" gradientUnits="userSpaceOnUse">
<stop stop-color="#D23274"/>
<stop offset="1" stop-color="#FF8F49"/>
</linearGradient>
<linearGradient id="paint26_linear" x1="-1970.42" y1="-95.7207" x2="-1970.42" y2="-98.6107" gradientUnits="userSpaceOnUse">
<stop stop-color="#D23274"/>
<stop offset="1" stop-color="#FF8F49"/>
</linearGradient>
<linearGradient id="paint27_linear" x1="-4777.64" y1="-1187.91" x2="-4777.64" y2="-1295.65" gradientUnits="userSpaceOnUse">
<stop stop-color="#D23274"/>
<stop offset="1" stop-color="#FF8F49"/>
</linearGradient>
<linearGradient id="paint28_linear" x1="373.164" y1="400.006" x2="373.164" y2="397.116" gradientUnits="userSpaceOnUse">
<stop stop-color="#D23274"/>
<stop offset="1" stop-color="#FF8F49"/>
</linearGradient>
<linearGradient id="paint29_linear" x1="373.164" y1="392.733" x2="373.164" y2="389.826" gradientUnits="userSpaceOnUse">
<stop stop-color="#D23274"/>
<stop offset="1" stop-color="#FF8F49"/>
</linearGradient>
<linearGradient id="paint30_linear" x1="373.164" y1="385.47" x2="373.164" y2="382.563" gradientUnits="userSpaceOnUse">
<stop stop-color="#D23274"/>
<stop offset="1" stop-color="#FF8F49"/>
</linearGradient>
<linearGradient id="paint31_linear" x1="373.164" y1="378.19" x2="373.164" y2="375.3" gradientUnits="userSpaceOnUse">
<stop stop-color="#D23274"/>
<stop offset="1" stop-color="#FF8F49"/>
</linearGradient>
<linearGradient id="paint32_linear" x1="373.164" y1="370.927" x2="373.164" y2="368.037" gradientUnits="userSpaceOnUse">
<stop stop-color="#D23274"/>
<stop offset="1" stop-color="#FF8F49"/>
</linearGradient>
<linearGradient id="paint33_linear" x1="373.164" y1="363.654" x2="373.164" y2="360.747" gradientUnits="userSpaceOnUse">
<stop stop-color="#D23274"/>
<stop offset="1" stop-color="#FF8F49"/>
</linearGradient>
<linearGradient id="paint34_linear" x1="373.164" y1="356.391" x2="373.164" y2="353.484" gradientUnits="userSpaceOnUse">
<stop stop-color="#D23274"/>
<stop offset="1" stop-color="#FF8F49"/>
</linearGradient>
<linearGradient id="paint35_linear" x1="373.164" y1="349.111" x2="373.164" y2="346.221" gradientUnits="userSpaceOnUse">
<stop stop-color="#D23274"/>
<stop offset="1" stop-color="#FF8F49"/>
</linearGradient>
<linearGradient id="paint36_linear" x1="373.164" y1="341.848" x2="373.164" y2="338.958" gradientUnits="userSpaceOnUse">
<stop stop-color="#D23274"/>
<stop offset="1" stop-color="#FF8F49"/>
</linearGradient>
<linearGradient id="paint37_linear" x1="373.164" y1="334.576" x2="373.164" y2="331.669" gradientUnits="userSpaceOnUse">
<stop stop-color="#D23274"/>
<stop offset="1" stop-color="#FF8F49"/>
</linearGradient>
<linearGradient id="paint38_linear" x1="373.164" y1="327.312" x2="373.164" y2="324.405" gradientUnits="userSpaceOnUse">
<stop stop-color="#D23274"/>
<stop offset="1" stop-color="#FF8F49"/>
</linearGradient>
<linearGradient id="paint39_linear" x1="795.23" y1="1345.21" x2="795.23" y2="1237.46" gradientUnits="userSpaceOnUse">
<stop stop-color="#D23274"/>
<stop offset="1" stop-color="#FF8F49"/>
</linearGradient>
<linearGradient id="paint40_linear" x1="1649.42" y1="4818.73" x2="2211.32" y2="4818.73" gradientUnits="userSpaceOnUse">
<stop stop-color="#D23274"/>
<stop offset="1" stop-color="#F24A37"/>
</linearGradient>
<linearGradient id="paint41_linear" x1="1649.8" y1="4826.49" x2="2211.81" y2="4826.49" gradientUnits="userSpaceOnUse">
<stop stop-color="#D23274"/>
<stop offset="1" stop-color="#F24A37"/>
</linearGradient>
<linearGradient id="paint42_linear" x1="2014.18" y1="2749.17" x2="2967.14" y2="2749.17" gradientUnits="userSpaceOnUse">
<stop stop-color="#D23274"/>
<stop offset="1" stop-color="#F24A37"/>
</linearGradient>
<linearGradient id="paint43_linear" x1="1015.75" y1="6213.21" x2="1187.1" y2="6213.21" gradientUnits="userSpaceOnUse">
<stop stop-color="#D23274"/>
<stop offset="1" stop-color="#F24A37"/>
</linearGradient>
<linearGradient id="paint44_linear" x1="583.863" y1="1700.36" x2="629.763" y2="1700.36" gradientUnits="userSpaceOnUse">
<stop stop-color="#D23274"/>
<stop offset="1" stop-color="#F24A37"/>
</linearGradient>
<linearGradient id="paint45_linear" x1="3637.75" y1="3126" x2="3879.94" y2="3126" gradientUnits="userSpaceOnUse">
<stop stop-color="#D23274"/>
<stop offset="1" stop-color="#F24A37"/>
</linearGradient>
<linearGradient id="paint46_linear" x1="3640.82" y1="3132.88" x2="3883.24" y2="3132.88" gradientUnits="userSpaceOnUse">
<stop stop-color="#D23274"/>
<stop offset="1" stop-color="#F24A37"/>
</linearGradient>
<linearGradient id="paint47_linear" x1="4618.73" y1="1808.59" x2="5029.2" y2="1808.59" gradientUnits="userSpaceOnUse">
<stop stop-color="#D23274"/>
<stop offset="1" stop-color="#F24A37"/>
</linearGradient>
<linearGradient id="paint48_linear" x1="2137.2" y1="4008.86" x2="2210.82" y2="4008.86" gradientUnits="userSpaceOnUse">
<stop stop-color="#D23274"/>
<stop offset="1" stop-color="#F24A37"/>
</linearGradient>
<linearGradient id="paint49_linear" x1="1224.87" y1="1144.96" x2="1244.68" y2="1144.96" gradientUnits="userSpaceOnUse">
<stop stop-color="#D23274"/>
<stop offset="1" stop-color="#F24A37"/>
</linearGradient>
<linearGradient id="paint50_linear" x1="188.52" y1="83.38" x2="274.82" y2="83.38" gradientUnits="userSpaceOnUse">
<stop stop-color="#FF6224"/>
<stop offset="1" stop-color="#FF9750"/>
</linearGradient>
<linearGradient id="paint51_linear" x1="3074.55" y1="2534.74" x2="16031" y2="2534.74" gradientUnits="userSpaceOnUse">
<stop stop-color="#FF6224"/>
<stop offset="1" stop-color="#FF9750"/>
</linearGradient>
<linearGradient id="paint52_linear" x1="177.769" y1="5049.52" x2="382.102" y2="5049.52" gradientUnits="userSpaceOnUse">
<stop stop-color="#D23274"/>
<stop offset="1" stop-color="#F24A37"/>
</linearGradient>
<linearGradient id="paint53_linear" x1="207.582" y1="3255.54" x2="342.592" y2="3128.27" gradientUnits="userSpaceOnUse">
<stop stop-color="#D23274"/>
<stop offset="1" stop-color="#F24A37"/>
</linearGradient>
</defs>
</svg>
