<svg width="293" height="222" viewBox="0 0 293 222" fill="none" xmlns="http://www.w3.org/2000/svg">
	<style>
						.float
		{
			animation: floatr 4s ease-in-out infinite;
		}

		@keyframes floatr
		{
			0%{ transform: translateY(0vh); }
			50%{ transform: translateY(3vh); }
			100%{ transform: translateY(0vh); }
		}

			.floatinv
		{
			animation: floatinvr 4s ease-in-out infinite;
		}

		@keyframes floatinvr
		{
			0%{ transform: translateY(0vh); }
			50%{ transform: translateY(-3vh); }
			100%{ transform: translateY(0vh); }
		}

							.horz
		{
			animation: horzr 5s ease-in-out infinite;
		}

		@keyframes horzr
		{
			0%{ transform: translateX(0vh); }
			50%{ transform: translateX(3vh); }
			100%{ transform: translateX(0vh); }
		}

			.horzinv
		{
			animation: horzinvr 5s ease-in-out infinite;
		}

		@keyframes horzinvr
		{
			0%{ transform: translateX(0vh); }
			50%{ transform: translateX(-3vh); }
			100%{ transform: translateX(0vh); }
		}

						.tickk
	{
		stroke-dasharray: 400;
		stroke-dashoffset: 400;
		stroke: #ffffff;
        animation: ticker 4s ease forwards infinite;
        fill: #ffffff;
        stroke-width:0px;
	}
	@keyframes ticker{
		0% {  stroke-dashoffset: 400; fill: none;stroke-width:1px; fill-opacity: 0.1;}
		100%{ fill: #ffffff;stroke-dashoffset: 0;stroke-width:0px;ill-opacity: 1;}


	}

	</style>
<g id="Layer 1">
<path id="Vector 2" d="M218.82 105.14V191.59H72.6V105.14C72.6 103.972 73.0633 102.852 73.8881 102.025C74.713 101.198 75.8321 100.733 77 100.73H214.4C214.98 100.729 215.555 100.842 216.091 101.063C216.627 101.284 217.114 101.608 217.525 102.018C217.935 102.428 218.261 102.914 218.483 103.45C218.706 103.986 218.82 104.56 218.82 105.14Z" fill="#FFC101"/>
<path id="Vector 3" d="M83 109H208.37C209.54 109 210.661 109.465 211.488 110.292C212.315 111.119 212.78 112.24 212.78 113.41V182.79C212.78 183.872 212.35 184.91 211.585 185.675C210.82 186.44 209.782 186.87 208.7 186.87H82.7C81.6179 186.87 80.5801 186.44 79.815 185.675C79.0498 184.91 78.62 183.872 78.62 182.79V113.41C78.62 112.246 79.0805 111.128 79.901 110.302C80.7216 109.476 81.8356 109.008 83 109Z" fill="#FFD756"/>
<path id="Vector 4" d="M292.5 198.69H0V221.8H292.5V198.69Z" fill="#ACACAC"/>
<path id="Vector 5" d="M222.6 191.59H68.3C64.7654 191.59 61.9 194.453 61.9 197.985C61.9 201.517 64.7654 204.38 68.3 204.38H222.6C226.135 204.38 229 201.517 229 197.985C229 194.453 226.135 191.59 222.6 191.59Z" fill="#FFCE35"/>
<path id="Vector 6" d="M121.97 135.37H35.3C34.1347 135.37 33.19 136.315 33.19 137.48V195.88C33.19 197.045 34.1347 197.99 35.3 197.99H121.97C123.135 197.99 124.08 197.045 124.08 195.88V137.48C124.08 136.315 123.135 135.37 121.97 135.37Z" fill="#FFC101"/>
<path id="Vector 7" d="M116.35 140.6H40.91C39.7447 140.6 38.8 141.545 38.8 142.71V186.16C38.8 187.325 39.7447 188.27 40.91 188.27H116.35C117.515 188.27 118.46 187.325 118.46 186.16V142.71C118.46 141.545 117.515 140.6 116.35 140.6Z" fill="white"/>
<path id="Vector 8" d="M78.63 194.77C79.8064 194.77 80.76 193.816 80.76 192.64C80.76 191.464 79.8064 190.51 78.63 190.51C77.4536 190.51 76.5 191.464 76.5 192.64C76.5 193.816 77.4536 194.77 78.63 194.77Z" fill="white"/>
<path id="Vector 9" d="M244.68 128.97H210.09C208.925 128.97 207.98 129.915 207.98 131.08V189.48C207.98 190.645 208.925 191.59 210.09 191.59H244.68C245.845 191.59 246.79 190.645 246.79 189.48V131.08C246.79 129.915 245.845 128.97 244.68 128.97Z" fill="#FFC101"/>
<path id="Vector 10" d="M239.89 134.2H214.87C213.705 134.2 212.76 135.145 212.76 136.31V179.76C212.76 180.925 213.705 181.87 214.87 181.87H239.89C241.055 181.87 242 180.925 242 179.76V136.31C242 135.145 241.055 134.2 239.89 134.2Z" fill="white"/>
<path id="Vector 11" d="M227.38 188.37C228.556 188.37 229.51 187.416 229.51 186.24C229.51 185.064 228.556 184.11 227.38 184.11C226.204 184.11 225.25 185.064 225.25 186.24C225.25 187.416 226.204 188.37 227.38 188.37Z" fill="white"/>
<g id="logo3">
<path id="Vector 12" d="M134.67 132.5C135.872 132.529 137.062 132.742 138.2 133.13C139.686 133.632 141.122 134.271 142.49 135.04C145.938 137.018 149.101 139.457 151.89 142.29C153.843 144.232 155.62 146.344 157.2 148.6C158.538 150.468 159.661 152.481 160.55 154.6C161.232 156.144 161.615 157.803 161.68 159.49C161.714 160.012 161.642 160.536 161.471 161.031C161.299 161.525 161.03 161.981 160.68 162.37C159.887 163.073 158.848 163.433 157.79 163.37C156.588 163.337 155.397 163.121 154.26 162.73C152.77 162.237 151.333 161.597 149.97 160.82C146.519 158.845 143.356 156.406 140.57 153.57C138.617 151.628 136.84 149.516 135.26 147.26C133.922 145.392 132.798 143.379 131.91 141.26C131.228 139.712 130.845 138.05 130.78 136.36C130.709 135.838 130.759 135.307 130.927 134.807C131.096 134.308 131.377 133.855 131.75 133.483C132.123 133.111 132.577 132.83 133.077 132.663C133.577 132.496 134.108 132.447 134.63 132.52L134.67 132.5ZM134.63 131.31C133.95 131.269 133.269 131.364 132.626 131.591C131.984 131.817 131.393 132.171 130.89 132.63C127.3 136.22 131.26 145.98 139.72 154.44C146.06 160.79 153.13 164.59 157.79 164.59C158.47 164.631 159.151 164.536 159.794 164.309C160.436 164.083 161.027 163.729 161.53 163.27C165.12 159.69 161.16 149.92 152.7 141.46C146.36 135.12 139.29 131.31 134.63 131.31Z" fill="white"/>
<path id="Vector 13" d="M157.83 131.29V132.5C158.352 132.427 158.883 132.476 159.383 132.643C159.883 132.81 160.337 133.091 160.71 133.463C161.083 133.835 161.364 134.288 161.533 134.787C161.701 135.287 161.751 135.818 161.68 136.34C161.615 138.03 161.232 139.692 160.55 141.24C159.662 143.359 158.538 145.372 157.2 147.24C155.62 149.496 153.843 151.608 151.89 153.55C149.104 156.386 145.941 158.825 142.49 160.8C141.125 161.573 139.688 162.212 138.2 162.71C137.063 163.101 135.872 163.317 134.67 163.35C133.612 163.413 132.573 163.053 131.78 162.35C131.43 161.961 131.161 161.506 130.989 161.011C130.818 160.516 130.746 159.992 130.78 159.47C130.845 157.783 131.228 156.124 131.91 154.58C132.799 152.461 133.922 150.448 135.26 148.58C136.84 146.324 138.617 144.212 140.57 142.27C143.367 139.428 146.54 136.982 150 135C151.368 134.231 152.804 133.592 154.29 133.09C155.428 132.702 156.618 132.489 157.82 132.46V131.25L157.83 131.29ZM157.82 131.25C153.16 131.25 146.09 135.06 139.75 141.4C131.29 149.86 127.33 159.63 130.92 163.21C131.423 163.669 132.014 164.023 132.656 164.249C133.299 164.476 133.98 164.571 134.66 164.53C139.32 164.53 146.39 160.73 152.73 154.38C161.19 145.92 165.15 136.16 161.56 132.57C161.057 132.111 160.466 131.757 159.824 131.531C159.181 131.304 158.5 131.209 157.82 131.25Z" fill="white"/>
<path id="Vector 14" d="M146.25 140C149.005 139.994 151.756 140.228 154.47 140.7C156.743 141.085 158.966 141.718 161.1 142.59C162.673 143.204 164.118 144.106 165.36 145.25C165.779 145.569 166.118 145.981 166.352 146.452C166.585 146.924 166.707 147.444 166.707 147.97C166.707 148.496 166.585 149.016 166.352 149.488C166.118 149.959 165.779 150.371 165.36 150.69C164.118 151.834 162.673 152.736 161.1 153.35C158.968 154.226 156.744 154.86 154.47 155.24C149.031 156.187 143.469 156.187 138.03 155.24C135.756 154.86 133.532 154.226 131.4 153.35C129.827 152.736 128.382 151.834 127.14 150.69C126.721 150.371 126.382 149.959 126.148 149.488C125.915 149.016 125.793 148.496 125.793 147.97C125.793 147.444 125.915 146.924 126.148 146.452C126.382 145.981 126.721 145.569 127.14 145.25C128.382 144.106 129.827 143.204 131.4 142.59C133.534 141.718 135.757 141.085 138.03 140.7C140.744 140.228 143.495 139.994 146.25 140ZM146.25 138.79C134.25 138.79 124.58 142.9 124.58 147.97C124.58 153.04 134.28 157.15 146.25 157.15C158.22 157.15 167.92 153.04 167.92 147.97C167.92 142.9 158.22 138.79 146.25 138.79Z" fill="white"/>
<path id="Vector 15" d="M146.25 127.48C146.769 127.513 147.277 127.648 147.744 127.878C148.211 128.108 148.628 128.428 148.97 128.82C150.114 130.062 151.016 131.507 151.63 133.08C152.502 135.214 153.135 137.437 153.52 139.71C154.453 145.15 154.453 150.71 153.52 156.15C153.135 158.423 152.502 160.646 151.63 162.78C151.021 164.337 150.129 165.767 149 167C148.681 167.419 148.269 167.758 147.798 167.992C147.326 168.225 146.806 168.347 146.28 168.347C145.754 168.347 145.234 168.225 144.762 167.992C144.291 167.758 143.879 167.419 143.56 167C142.416 165.758 141.514 164.313 140.9 162.74C140.028 160.606 139.395 158.383 139.01 156.11C138.077 150.67 138.077 145.11 139.01 139.67C139.395 137.397 140.028 135.174 140.9 133.04C141.514 131.467 142.416 130.022 143.56 128.78C143.902 128.388 144.319 128.068 144.786 127.838C145.253 127.608 145.761 127.473 146.28 127.44L146.25 127.48ZM146.28 126.23C141.21 126.23 137.1 135.93 137.1 147.89C137.1 159.85 141.21 169.56 146.28 169.56C151.35 169.56 155.46 159.86 155.46 147.89C155.46 135.92 151.35 126.23 146.28 126.23Z" fill="white"/>
<path id="Vector 16" d="M146.25 142.51C143.96 142.51 141.48 143.08 141.48 144.32V151.54C141.48 152.79 143.96 153.35 146.24 153.35H146.3C146.969 153.35 147.638 153.3 148.3 153.2C150.02 152.92 151.02 152.31 151.02 151.54V144.32C151 143.08 148.54 142.51 146.25 142.51ZM149.72 151.51C149.239 151.872 148.661 152.081 148.06 152.11C147.461 152.203 146.856 152.247 146.25 152.24C144.08 152.24 142.94 151.73 142.78 151.51V150.41C145.041 151.103 147.459 151.103 149.72 150.41V151.51ZM142.78 145.61C145.041 146.303 147.459 146.303 149.72 145.61V146.7C149.56 146.91 148.43 147.43 146.25 147.43C144.07 147.43 142.94 146.91 142.78 146.7V145.61ZM142.78 149.1V148C145.041 148.693 147.459 148.693 149.72 148V149.09C149.56 149.3 148.42 149.82 146.25 149.82C144.08 149.82 142.94 149.32 142.78 149.11V149.1ZM146.26 143.6C148.38 143.6 149.54 144.09 149.7 144.31C149.54 144.54 148.38 145.03 146.26 145.03C144.14 145.03 142.97 144.54 142.81 144.31C143 144.1 144.13 143.61 146.26 143.61V143.6Z" fill="white"/>
</g>
<g id="arrow2" class="float">
<path id="Vector 17" opacity="0.1" d="M136.64 86.8H127.91V88.5H136.64V86.8Z" fill="#56544D"/>
<path id="Vector 18" opacity="0.2" d="M136.64 84.11H127.91V85.81H136.64V84.11Z" fill="#56544D"/>
<path id="Vector 19" opacity="0.3" d="M136.64 81.42H127.91V83.12H136.64V81.42Z" fill="#56544D"/>
<path id="Vector 20" opacity="0.4" d="M136.64 78.73H127.91V80.43H136.64V78.73Z" fill="#BBA14F"/>
<path id="Vector 21" opacity="0.5" d="M136.64 76.03H127.91V77.73H136.64V76.03Z" fill="#BBA14F"/>
<path id="Vector 22" opacity="0.6" d="M136.64 73.34H127.91V75.04H136.64V73.34Z" fill="#BBA14F"/>
<path id="Vector 23" opacity="0.7" d="M136.64 70.65H127.91V72.35H136.64V70.65Z" fill="#BBA14F"/>
<path id="Vector 24" opacity="0.8" d="M136.64 67.96H127.91V69.66H136.64V67.96Z" fill="#FFCE35"/>
<path id="Vector 25" opacity="0.9" d="M136.64 65.26H127.91V66.96H136.64V65.26Z" fill="#FFCE35"/>
<path id="Vector 26" d="M136.64 62.57H127.91V64.27H136.64V62.57Z" fill="#FFCE35"/>
<path id="Vector 27" d="M136.64 59.88H127.91V61.58H136.64V59.88Z" fill="#FFCE35"/>
<path id="Vector 28" d="M142.15 58.84H122.4L132.27 48.47L142.15 58.84Z" fill="#FFC101"/>
</g>
<g id="arrow3" class="floatinv">
<path id="Vector 29" opacity="0.1" d="M230.24 80.29H238.97V78.59H230.24V80.29Z" fill="#868686"/>
<path id="Vector 30" opacity="0.2" d="M230.24 82.99H238.97V81.29H230.24V82.99Z" fill="#868686"/>
<path id="Vector 31" opacity="0.3" d="M230.24 85.67H238.97V83.97H230.24V85.67Z" fill="#868686"/>
<path id="Vector 32" opacity="0.4" d="M230.24 88.37H238.97V86.67H230.24V88.37Z" fill="#868686"/>
<path id="Vector 33" opacity="0.5" d="M230.24 91.06H238.97V89.36H230.24V91.06Z" fill="#A6A6A6"/>
<path id="Vector 34" opacity="0.6" d="M230.24 93.76H238.97V92.06H230.24V93.76Z" fill="#A6A6A6"/>
<path id="Vector 35" opacity="0.7" d="M230.24 96.45H238.97V94.75H230.24V96.45Z" fill="#A6A6A6"/>
<path id="Vector 36" opacity="0.8" d="M230.24 99.14H238.97V97.44H230.24V99.14Z" fill="#A6A6A6"/>
<path id="Vector 37" opacity="0.9" d="M230.24 101.83H238.97V100.13H230.24V101.83Z" fill="#CCCCCC"/>
<path id="Vector 38" d="M230.24 104.53H238.97V102.83H230.24V104.53Z" fill="#CCCCCC"/>
<path id="Vector 39" d="M230.24 107.22H238.97V105.52H230.24V107.22Z" fill="#CCCCCC"/>
<path id="Vector 40" d="M224.73 108.25H244.47L234.6 118.63L224.73 108.25Z" fill="#ACACAC"/>
</g>
<g id="arrow1" class="float">
<path id="Vector 41" opacity="0.1" d="M43.17 116.08H34.44V117.78H43.17V116.08Z" fill="#797361"/>
<path id="Vector 42" opacity="0.2" d="M43.17 113.38H34.44V115.08H43.17V113.38Z" fill="#797361"/>
<path id="Vector 43" opacity="0.3" d="M43.17 110.69H34.44V112.39H43.17V110.69Z" fill="#797361"/>
<path id="Vector 44" opacity="0.4" d="M43.17 108H34.44V109.7H43.17V108Z" fill="#797361"/>
<path id="Vector 45" opacity="0.5" d="M43.17 105.31H34.44V107.01H43.17V105.31Z" fill="#D9B952"/>
<path id="Vector 46" opacity="0.6" d="M43.17 102.61H34.44V104.31H43.17V102.61Z" fill="#D9B952"/>
<path id="Vector 47" opacity="0.7" d="M43.17 99.92H34.44V101.62H43.17V99.92Z" fill="#D9B952"/>
<path id="Vector 48" opacity="0.8" d="M43.17 97.23H34.44V98.93H43.17V97.23Z" fill="#D9B952"/>
<path id="Vector 49" opacity="0.9" d="M43.17 94.54H34.44V96.24H43.17V94.54Z" fill="#FFCE35"/>
<path id="Vector 50" d="M43.17 91.84H34.44V93.54H43.17V91.84Z" fill="#FFCE35"/>
<path id="Vector 51" d="M43.17 89.15H34.44V90.85H43.17V89.15Z" fill="#FFCE35"/>
<path id="Vector 52" d="M48.68 88.12H28.93L38.8 77.74L48.68 88.12Z" fill="#FFC101"/>
</g>
<g id="logo1" class="tickk">
<path id="Vector 53" d="M70.38 153.44C71.2381 153.46 72.0879 153.612 72.9 153.89C73.9403 154.249 74.9447 154.704 75.9 155.25C78.3602 156.657 80.6147 158.397 82.6 160.42C83.9933 161.806 85.2616 163.311 86.39 164.92C87.3415 166.256 88.1398 167.695 88.77 169.21C89.2545 170.309 89.5292 171.49 89.58 172.69C89.609 173.061 89.5628 173.433 89.4442 173.785C89.3256 174.138 89.1371 174.462 88.89 174.74C88.6099 174.986 88.2834 175.174 87.9297 175.293C87.5759 175.411 87.202 175.458 86.83 175.43C85.9753 175.409 85.1289 175.257 84.32 174.98C83.2593 174.624 82.2348 174.169 81.26 173.62C78.8048 172.21 76.5539 170.47 74.57 168.45C73.1961 167.078 71.9446 165.589 70.83 164C69.8794 162.661 69.078 161.223 68.44 159.71C67.9628 158.605 67.6917 157.422 67.64 156.22C67.5886 155.848 67.624 155.469 67.7435 155.114C67.863 154.758 68.0634 154.434 68.3288 154.169C68.5943 153.903 68.9177 153.703 69.2735 153.584C69.6294 153.464 70.0081 153.429 70.38 153.48V153.44ZM70.38 152.62C69.8964 152.592 69.412 152.66 68.9552 152.822C68.4985 152.983 68.0785 153.234 67.72 153.56C65.17 156.08 68 163 74 169.06C78.52 173.58 83.56 176.29 86.87 176.29C87.3552 176.319 87.8414 176.251 88.2999 176.089C88.7584 175.928 89.18 175.677 89.54 175.35C92.09 172.8 89.28 165.84 83.25 159.81C78.73 155.29 73.69 152.58 70.37 152.58L70.38 152.62Z" fill="#FFC101"/>
<path id="Vector 54" d="M86.88 152.58V153.44C87.2526 153.387 87.6325 153.421 87.9897 153.54C88.3469 153.658 88.6716 153.859 88.9382 154.124C89.2049 154.39 89.4062 154.714 89.5262 155.071C89.6463 155.427 89.6818 155.807 89.63 156.18C89.5793 157.384 89.3046 158.567 88.82 159.67C88.1925 161.198 87.3941 162.651 86.44 164C85.3114 165.605 84.0431 167.108 82.65 168.49C80.6647 170.513 78.4101 172.253 75.95 173.66C74.9947 174.206 73.9903 174.661 72.95 175.02C72.1379 175.298 71.2881 175.45 70.43 175.47C69.6986 175.511 68.9802 175.264 68.43 174.78C68.1829 174.502 67.9944 174.178 67.8758 173.825C67.7572 173.473 67.711 173.101 67.74 172.73C67.7917 171.531 68.0629 170.351 68.54 169.25C69.178 167.737 69.9794 166.299 70.93 164.96C72.0584 163.351 73.3267 161.846 74.72 160.46C76.7039 158.44 78.9548 156.7 81.41 155.29C82.3847 154.741 83.4093 154.286 84.47 153.93C85.2788 153.653 86.1253 153.501 86.98 153.48V152.62L86.88 152.58ZM86.98 152.62C83.67 152.62 78.63 155.33 74.11 159.85C68.11 165.85 65.27 172.85 67.82 175.39C68.1785 175.716 68.5985 175.967 69.0552 176.128C69.512 176.29 69.9964 176.358 70.48 176.33C73.8 176.33 78.84 173.62 83.36 169.1C89.36 163.1 92.2 156.1 89.65 153.56C89.29 153.233 88.8683 152.982 88.4098 152.821C87.9513 152.659 87.4652 152.591 86.98 152.62Z" fill="#FFC101"/>
<path id="Vector 55" d="M78.63 158.76C80.5942 158.754 82.5551 158.922 84.49 159.26C86.1073 159.534 87.69 159.983 89.21 160.6C90.3185 161.043 91.3356 161.687 92.21 162.5C92.5085 162.728 92.7504 163.021 92.917 163.358C93.0835 163.694 93.1701 164.065 93.1701 164.44C93.1701 164.815 93.0835 165.186 92.917 165.522C92.7504 165.859 92.5085 166.152 92.21 166.38C91.3348 167.189 90.3177 167.83 89.21 168.27C87.692 168.895 86.1088 169.347 84.49 169.62C80.6151 170.287 76.6549 170.287 72.78 169.62C71.1609 169.349 69.5776 168.896 68.06 168.27C66.9523 167.83 65.9353 167.189 65.06 166.38C64.7615 166.152 64.5196 165.859 64.353 165.522C64.1865 165.186 64.0999 164.815 64.0999 164.44C64.0999 164.065 64.1865 163.694 64.353 163.358C64.5196 163.021 64.7615 162.728 65.06 162.5C65.9344 161.687 66.9515 161.043 68.06 160.6C69.5796 159.982 71.1624 159.533 72.78 159.26C74.7116 158.922 76.6691 158.755 78.63 158.76ZM78.63 157.9C70.11 157.9 63.2 160.82 63.2 164.44C63.2 168.06 70.11 171 78.63 171C87.15 171 94.07 168.07 94.07 164.46C94.07 160.85 87.16 157.92 78.63 157.92V157.9Z" fill="#FFC101"/>
<path id="Vector 56" d="M78.63 149.86C79.0035 149.89 79.3673 149.994 79.7003 150.165C80.0333 150.337 80.3289 150.573 80.57 150.86C81.3827 151.734 82.0269 152.751 82.47 153.86C83.0899 155.379 83.5393 156.962 83.81 158.58C84.4767 162.455 84.4767 166.415 83.81 170.29C83.5391 171.905 83.0897 173.484 82.47 175C82.0256 176.108 81.3816 177.125 80.57 178C80.3433 178.298 80.0507 178.54 79.715 178.707C79.3794 178.873 79.0097 178.96 78.635 178.96C78.2603 178.96 77.8906 178.873 77.555 178.707C77.2193 178.54 76.9267 178.298 76.7 178C75.8884 177.125 75.2444 176.108 74.8 175C74.1799 173.477 73.7272 171.891 73.45 170.27C72.7833 166.395 72.7833 162.435 73.45 158.56C73.7285 156.943 74.1811 155.36 74.8 153.84C75.2431 152.731 75.8873 151.714 76.7 150.84C76.9399 150.554 77.2339 150.319 77.5652 150.147C77.8964 149.976 78.2583 149.871 78.63 149.84V149.86ZM78.63 148.98C75.02 148.98 72.09 155.89 72.09 164.42C72.09 172.95 75.02 179.85 78.63 179.85C82.24 179.85 85.18 172.94 85.18 164.42C85.18 155.9 82.25 149 78.63 149V148.98Z" fill="#FFC101"/>
<path id="Vector 57" d="M78.63 160.57C77 160.57 75.24 160.98 75.24 161.87V167C75.24 167.88 77 168.29 78.63 168.29C79.1087 168.289 79.5867 168.252 80.06 168.18C81.32 168 82 167.56 82 167V161.86C82 161 80.26 160.57 78.63 160.57ZM81.11 167C80.7685 167.258 80.3575 167.408 79.93 167.43C79.4998 167.495 79.065 167.525 78.63 167.52C77.7738 167.609 76.911 167.431 76.16 167.01V166.22C77.7886 166.724 79.5314 166.724 81.16 166.22L81.11 167ZM76.11 162.8C77.7386 163.304 79.4814 163.304 81.11 162.8V163.57C80.3611 164.007 79.492 164.193 78.63 164.1C77.771 164.195 76.9045 164.009 76.16 163.57L76.11 162.8ZM76.11 165.28V164.51C77.7386 165.014 79.4814 165.014 81.11 164.51V165.28C80.3592 165.711 79.4909 165.894 78.63 165.8C77.771 165.895 76.9045 165.709 76.16 165.27L76.11 165.28ZM78.59 161.37C79.443 161.282 80.3024 161.46 81.05 161.88C80.3024 162.3 79.443 162.478 78.59 162.39C77.737 162.478 76.8776 162.3 76.13 161.88C76.8908 161.446 77.7694 161.264 78.64 161.36L78.59 161.37Z" fill="#FFC101"/>
</g>
<g id="logo2" class="tickk">
<path id="Vector 58" d="M222 150.82C222.562 150.833 223.119 150.934 223.65 151.12C224.344 151.35 225.014 151.648 225.65 152.01C227.265 152.933 228.746 154.074 230.05 155.4C230.96 156.31 231.79 157.297 232.53 158.35C233.159 159.227 233.686 160.173 234.1 161.17C234.418 161.893 234.598 162.67 234.63 163.46C234.648 163.702 234.618 163.945 234.54 164.175C234.463 164.406 234.341 164.618 234.18 164.8C233.997 164.962 233.783 165.086 233.551 165.165C233.319 165.244 233.074 165.276 232.83 165.26C232.268 165.246 231.711 165.145 231.18 164.96C230.486 164.73 229.816 164.432 229.18 164.07C227.567 163.144 226.087 162.003 224.78 160.68C223.865 159.756 223.035 158.752 222.3 157.68C221.671 156.806 221.144 155.864 220.73 154.87C220.412 154.147 220.232 153.37 220.2 152.58C220.167 152.336 220.191 152.087 220.27 151.854C220.348 151.62 220.48 151.408 220.654 151.234C220.828 151.06 221.041 150.928 221.274 150.85C221.507 150.771 221.756 150.747 222 150.78V150.82ZM222 150.21C221.683 150.192 221.366 150.238 221.067 150.344C220.769 150.451 220.494 150.616 220.26 150.83C218.58 152.51 220.43 157.08 224.38 161.04C227.38 164.04 230.66 165.78 232.84 165.78C233.158 165.798 233.477 165.753 233.777 165.646C234.078 165.54 234.354 165.374 234.59 165.16C236.26 163.49 234.41 158.92 230.46 154.96C227.46 151.96 224.18 150.21 222 150.21Z" fill="#FFC101"/>
<path id="Vector 59" d="M232.8 150.25V150.82C233.045 150.785 233.294 150.807 233.528 150.885C233.763 150.963 233.976 151.095 234.15 151.27C234.325 151.444 234.457 151.657 234.535 151.892C234.613 152.126 234.635 152.375 234.6 152.62C234.568 153.41 234.388 154.187 234.07 154.91C233.656 155.904 233.129 156.846 232.5 157.72C231.765 158.792 230.935 159.796 230.02 160.72C228.713 162.043 227.233 163.184 225.62 164.11C224.984 164.472 224.314 164.77 223.62 165C223.089 165.186 222.532 165.287 221.97 165.3C221.727 165.316 221.484 165.284 221.254 165.205C221.024 165.126 220.812 165.002 220.63 164.84C220.466 164.66 220.341 164.448 220.262 164.217C220.183 163.987 220.151 163.743 220.17 163.5C220.202 162.71 220.382 161.933 220.7 161.21C221.114 160.213 221.641 159.267 222.27 158.39C223.01 157.337 223.84 156.35 224.75 155.44C226.054 154.114 227.535 152.973 229.15 152.05C229.786 151.688 230.456 151.39 231.15 151.16C231.681 150.975 232.238 150.874 232.8 150.86V150.29V150.25ZM232.8 150.29C230.62 150.29 227.31 152.08 224.34 155.04C220.34 159.04 218.54 163.57 220.22 165.24C220.454 165.454 220.729 165.619 221.027 165.726C221.326 165.832 221.643 165.878 221.96 165.86C224.14 165.86 227.45 164.08 230.42 161.12C234.42 157.12 236.22 152.59 234.55 150.91C234.314 150.696 234.038 150.53 233.737 150.424C233.437 150.317 233.118 150.272 232.8 150.29Z" fill="#FFC101"/>
<path id="Vector 60" d="M227.38 154.31C228.671 154.305 229.959 154.416 231.23 154.64C232.292 154.819 233.332 155.114 234.33 155.52C235.071 155.805 235.75 156.229 236.33 156.77C236.525 156.919 236.683 157.112 236.792 157.332C236.9 157.552 236.957 157.794 236.957 158.04C236.957 158.286 236.9 158.528 236.792 158.748C236.683 158.968 236.525 159.161 236.33 159.31C235.746 159.844 235.068 160.265 234.33 160.55C233.332 160.959 232.293 161.257 231.23 161.44C228.686 161.88 226.084 161.88 223.54 161.44C222.477 161.26 221.437 160.962 220.44 160.55C219.703 160.263 219.025 159.843 218.44 159.31C218.072 158.985 217.846 158.529 217.81 158.04C217.844 157.55 218.071 157.094 218.44 156.77C219.021 156.23 219.7 155.806 220.44 155.52C221.437 155.112 222.477 154.817 223.54 154.64C224.808 154.416 226.093 154.305 227.38 154.31ZM227.38 153.74C221.78 153.74 217.25 155.67 217.25 158.04C217.25 160.41 221.78 162.33 227.38 162.33C232.98 162.33 237.51 160.41 237.51 158.04C237.51 155.67 232.98 153.74 227.38 153.74Z" fill="#FFC101"/>
<path id="Vector 61" d="M227.38 148.47C227.623 148.485 227.861 148.548 228.079 148.656C228.297 148.764 228.491 148.915 228.65 149.1C229.191 149.68 229.615 150.359 229.9 151.1C230.301 152.1 230.596 153.139 230.78 154.2C231.22 156.744 231.22 159.346 230.78 161.89C230.599 162.952 230.304 163.991 229.9 164.99C229.611 165.729 229.188 166.407 228.65 166.99C228.326 167.359 227.87 167.586 227.38 167.62C226.891 167.584 226.435 167.358 226.11 166.99C225.579 166.402 225.156 165.725 224.86 164.99C224.456 163.991 224.161 162.952 223.98 161.89C223.54 159.346 223.54 156.744 223.98 154.2C224.164 153.139 224.459 152.1 224.86 151.1C225.152 150.363 225.576 149.686 226.11 149.1C226.27 148.916 226.464 148.766 226.682 148.658C226.9 148.55 227.137 148.486 227.38 148.47ZM227.38 147.91C225.01 147.91 223.09 152.44 223.09 158.04C223.09 163.64 225.01 168.17 227.38 168.17C229.75 168.17 231.67 163.63 231.67 158.04C231.67 152.45 229.75 147.91 227.38 147.91Z" fill="#FFC101"/>
<path id="Vector 62" d="M227.38 155.5C226.31 155.5 225.15 155.77 225.15 156.35V159.72C225.15 160.31 226.31 160.57 227.38 160.57C227.695 160.572 228.009 160.549 228.32 160.5C229.13 160.37 229.59 160.09 229.59 159.72V156.35C229.61 155.77 228.45 155.5 227.38 155.5ZM229.01 159.72C228.779 159.88 228.51 159.977 228.23 160C227.948 160.04 227.664 160.06 227.38 160.06C226.818 160.12 226.251 160.001 225.76 159.72V159.2C226.282 159.372 226.83 159.453 227.38 159.44C227.933 159.453 228.484 159.371 229.01 159.2V159.72ZM225.76 157C226.283 157.167 226.831 157.249 227.38 157.24C227.929 157.247 228.476 157.166 229 157V157.51C228.505 157.79 227.935 157.909 227.37 157.85C226.808 157.911 226.24 157.792 225.75 157.51L225.76 157ZM225.76 158.63V158.12C226.282 158.292 226.83 158.373 227.38 158.36C227.933 158.373 228.484 158.291 229.01 158.12V158.63C228.515 158.91 227.945 159.028 227.38 158.97C226.813 159.019 226.246 158.886 225.76 158.59V158.63ZM227.38 156.06C227.941 156.004 228.506 156.119 229 156.39C228.491 156.615 227.941 156.731 227.385 156.731C226.829 156.731 226.279 156.615 225.77 156.39C226.254 156.099 226.816 155.963 227.38 156V156.06Z" fill="#FFC101"/>
</g>
<path id="cloud2" class="horzinv" d="M274.82 63.31C274.82 66.8303 273.422 70.207 270.934 72.697C268.446 75.187 265.07 76.587 261.55 76.59V76.74H204.5C202.021 76.746 199.574 76.175 197.353 75.073C195.132 73.972 193.198 72.369 191.702 70.392C190.207 68.4141 189.191 66.1163 188.736 63.6792C188.28 61.2422 188.397 58.7327 189.078 56.3486C189.758 53.9646 190.983 51.7713 192.657 49.9419C194.33 48.1124 196.405 46.6968 198.719 45.8067C201.033 44.9166 203.522 44.5765 205.99 44.8131C208.458 45.0497 210.837 45.8565 212.94 47.17C213.989 41.5229 217.071 36.4561 221.603 32.9282C226.136 29.4004 231.804 27.6562 237.536 28.0257C243.268 28.3953 248.665 30.8529 252.707 34.9336C256.749 39.0143 259.155 44.435 259.47 50.17C260.158 50.0655 260.854 50.012 261.55 50.01C263.295 50.0113 265.022 50.3564 266.634 51.0257C268.245 51.6949 269.709 52.6751 270.941 53.9102C272.173 55.1454 273.15 56.6113 273.816 58.2241C274.481 59.837 274.823 61.5652 274.82 63.31Z" fill="#EAEAEA"/>
<path id="cloud1" class="horz" d="M140.57 39C140.567 40.9273 139.801 42.7749 138.438 44.1377C137.075 45.5006 135.227 46.2674 133.3 46.27H45C41.4958 46.282 38.0625 45.2833 35.1115 43.3935C32.1605 41.5037 29.8171 38.803 28.3622 35.6151C26.9072 32.4272 26.4024 28.8873 26.9083 25.4198C27.4142 21.9523 28.9093 18.7042 31.2144 16.0649C33.5195 13.4256 36.5368 11.5069 39.9047 10.539C43.2726 9.57099 46.8481 9.59479 50.2028 10.6075C53.5575 11.6202 56.5491 13.5788 58.8188 16.2486C61.0886 18.9184 62.5403 22.1861 63 25.66C64.2055 23.9293 65.8119 22.516 67.6821 21.5408C69.5524 20.5656 71.6308 20.0576 73.74 20.06C74.16 20.06 74.57 20.06 74.98 20.12C75.5609 14.4712 78.3035 9.26579 82.6341 5.59269C86.9647 1.91959 92.5479 0.0631942 98.2157 0.411994C103.884 0.760694 109.197 3.2876 113.045 7.4639C116.892 11.6403 118.976 17.1426 118.86 22.82C118.86 23.38 118.86 23.95 118.8 24.51C119.375 24.4179 119.957 24.3711 120.54 24.37C122.884 24.3624 125.169 25.1115 127.053 26.5059C128.938 27.9004 130.322 29.8658 131 32.11C132.093 31.7474 133.256 31.6494 134.393 31.8241C135.531 31.9989 136.611 32.4413 137.545 33.115C138.478 33.7887 139.238 34.6744 139.762 35.6993C140.287 36.7241 140.56 37.8588 140.56 39.01L140.57 39Z" fill="#ACACAC"/>
<path id="Vector 63" d="M16.38 132.87C16.38 132.87 10.54 138.87 10.26 141.19C9.98 143.51 13 147 13 147L16.38 132.87Z" fill="#FFC101"/>
<path id="Vector 64" d="M18.88 195.49C18.88 195.49 19.08 198.7 19.7 198.74H22.85H26.76C26.7328 198.442 26.6016 198.164 26.3894 197.954C26.1773 197.743 25.8977 197.615 25.6 197.59C24.8268 197.475 24.0885 197.191 23.4384 196.757C22.7882 196.323 22.2424 195.75 21.84 195.08C21.11 193.48 18.88 195.49 18.88 195.49Z" fill="#333333"/>
<path id="Vector 65" d="M10.17 195.49C10.17 195.49 10.36 198.7 10.98 198.74H18.06C18.0286 198.44 17.8937 198.16 17.6784 197.948C17.4631 197.736 17.1808 197.606 16.88 197.58C16.1079 197.466 15.3708 197.182 14.7222 196.748C14.0736 196.313 13.5297 195.74 13.13 195.07C12.4 193.48 10.17 195.49 10.17 195.49Z" fill="#333333"/>
<path id="Vector 66" d="M23.22 161.08C22.046 167.245 20.4285 173.318 18.38 179.25C14.56 190.87 14 195.9 14 195.9C13.2938 195.995 12.5824 196.045 11.87 196.05C11.1978 196.013 10.5293 195.926 9.87 195.79C9.87 195.79 9.87 183.09 11.59 177.24C13.31 171.39 11.97 156.17 11.97 156.17L23.22 161.08Z" fill="#ACACAC"/>
<path id="Vector 67" d="M25.21 156.53C25.2028 163.891 24.6815 171.242 23.65 178.53C21.94 190.65 22.52 195.79 22.52 195.79C22.52 195.79 21.12 196.04 20.62 196.06C20.12 196.08 18.43 195.92 18.43 195.92C18.43 195.92 16 183.79 16.69 177.72C17.38 171.65 13.34 156.92 13.34 156.92L25.21 156.53Z" fill="#CCCCCC"/>
<path id="Vector 68" d="M17.3 133.44L19.22 134.87L22.01 134.29C22.01 134.03 21.79 132.98 21.62 132.03V131.86C21.48 131.05 21.35 130.35 21.35 130.35L18.75 129.05L17.75 128.57C17.75 128.57 17.83 129.47 17.84 129.57C17.9698 130.885 17.7847 132.211 17.3 133.44Z" fill="#FFD0C5"/>
<path id="Vector 69" d="M21.82 132.72C20.4485 132.277 19.0441 131.942 17.62 131.72C17.22 131.86 16.98 132.64 16.98 132.64L23.08 134.02C22.8039 133.467 22.3639 133.013 21.82 132.72Z" fill="#FFC101"/>
<path id="Vector 70" d="M11.77 157.75C12.41 160.63 22.93 160.98 25.64 158.36C25.95 158.06 25.96 156.67 25.85 154.8C25.62 151.14 24.85 145.64 24.85 142.8C24.8238 141.456 24.6732 140.117 24.4 138.8C24.0806 137.169 23.6394 135.565 23.08 134C23.08 134 17.94 132.34 16.98 132.62C12.34 134 11.14 154.87 11.77 157.75Z" fill="#FFD756"/>
<path id="Vector 71" opacity="0.5" d="M25.85 154.8C25.62 151.14 24.85 145.64 24.85 142.8C24.8238 141.456 24.6732 140.117 24.4 138.8L21.31 138.26C21.31 138.26 18.3 150.62 25.85 154.8Z" fill="#FFC101"/>
<path id="Vector 72" d="M24.17 149.7C24.113 149.846 24.1046 150.007 24.146 150.158C24.1874 150.309 24.2765 150.443 24.4 150.54C24.6109 150.679 24.7807 150.872 24.8915 151.099C25.0023 151.326 25.0501 151.578 25.03 151.83C24.93 152.23 23.96 152.83 23.62 152.78C23.28 152.73 22.62 152.15 22.68 151.93C22.74 151.71 22.22 150.08 23.04 149.45C23.86 148.82 24.17 149.7 24.17 149.7Z" fill="#FFD0C5"/>
<path id="Vector 73" d="M20.72 133.29C22.9737 133.93 24.9047 135.393 26.13 137.39C28.54 140.93 30.13 143.57 29.67 144.84C29.21 146.11 25.2 150.54 24.5 150.54C24.0391 150.548 23.5916 150.385 23.2443 150.082C22.8969 149.779 22.6744 149.358 22.62 148.9C22.62 148.9 25.46 144.64 24.9 144.01C24.66 143.73 21.21 140.93 20.72 142.2C19.91 144.29 20.72 133.29 20.72 133.29Z" fill="#FFC101"/>
<path id="Vector 74" d="M18 129.64C18.57 130.73 20.7 131.64 21.59 132.03V131.86C21.45 131.05 21.32 130.35 21.32 130.35L18.72 129.05C18.15 129 17.8 129.19 18 129.64Z" fill="#F7BAAD"/>
<path id="Vector 75" d="M22.16 130.41C22.16 130.41 18.31 131.61 17.6 129.2C16.89 126.79 15.91 125.32 18.34 124.45C20.77 123.58 21.52 124.36 21.96 125.11C22.4 125.86 23.15 130 22.16 130.41Z" fill="#FFD0C5"/>
<path id="Vector 76" d="M21.8 124.87C21.8 124.87 21.56 127.68 20.98 127.56C20.4 127.44 19.87 127.35 19.98 128.19C20.09 129.03 20.87 130.01 19.08 130.19C17.29 130.37 14.72 125.73 15.21 124.86C16.61 122.31 23.85 121.8 21.8 124.87Z" fill="#333333"/>
</g>
</svg>
