<svg width="293" height="214" viewBox="0 0 293 214" fill="none" xmlns="http://www.w3.org/2000/svg">
	<style>
		.transdown
		{
			animation: transdownr 4s ease-in-out infinite;
		}

		@keyframes transdownr{
		0%  { transform: translate(0vw,0vh);  }
		50% { transform: translate(0vw,5vh);  }
		100%{  transform: translate(0vw,0vh);  }

	}

				.tickk
	{
		stroke-dasharray: 400;
		stroke-dashoffset: 400;
		stroke: #ffffff;
        animation: ticker 4s ease forwards infinite;
        fill: #ffffff;
        stroke-width:0px;
	}
	@keyframes ticker{
		0% {  stroke-dashoffset: 400; fill: none;stroke-width:1px; fill-opacity: 0.1;}
		100%{ fill: #ffffff;stroke-dashoffset: 0;stroke-width:0px;ill-opacity: 1;}


	}


		.rotate
		{
			animation: rotater 4s linear infinite;
			transform-origin: center;
			transform-box: fill-box;
		}

		@keyframes rotater
		{
			0%{ transform: rotate(0deg); }
			100%{ transform: rotate(360deg); }
		}

				.rotateinv
		{
			animation: rotater 4s linear  infinite;
			transform-origin: center;
			transform-box: fill-box;
			transform: rotate(-180deg); 
		}

		@keyframes rotateinvr
		{
			0%{ transform: rotate(180deg); }
			100%{ transform: rotate(-180deg); }
		}
	</style>
<g id="Layer 1">
<path id="Vector" d="M292.5 190.68H220.36V196.38H292.5V190.68Z" fill="#384857"/>
<path id="Vector 2" d="M218.82 97.14V183.59H72.6V97.14C72.6 95.972 73.0632 94.852 73.8881 94.025C74.713 93.198 75.8321 92.733 77 92.73H214.4C214.98 92.729 215.555 92.842 216.091 93.063C216.627 93.284 217.114 93.608 217.525 94.018C217.935 94.428 218.261 94.914 218.483 95.45C218.706 95.986 218.82 96.56 218.82 97.14Z" fill="#FFC101"/>
<path id="Vector 3" d="M83 101H208.38C209.55 101 210.671 101.465 211.498 102.292C212.325 103.119 212.79 104.24 212.79 105.41V174.79C212.79 175.872 212.36 176.91 211.595 177.675C210.83 178.44 209.792 178.87 208.71 178.87H82.71C81.6279 178.87 80.5902 178.44 79.825 177.675C79.0599 176.91 78.63 175.872 78.63 174.79V105.41C78.6299 104.247 79.0891 103.132 79.9075 102.306C80.7259 101.48 81.8373 101.011 83 101Z" fill="#FFD756"/>
<path id="Vector 4" d="M292.5 190.68H0V213.79H292.5V190.68Z" fill="#ACACAC"/>
<path id="Vector 5" d="M222.6 183.59H68.3C64.7654 183.59 61.9 186.453 61.9 189.985C61.9 193.517 64.7654 196.38 68.3 196.38H222.6C226.135 196.38 229 193.517 229 189.985C229 186.453 226.135 183.59 222.6 183.59Z" fill="#FFCE35"/>
<path id="Vector 6" d="M268.49 172.02L278.88 179.74L278.7 171.02L269.41 164.12L259.6 168.36L241.81 155.15L243.05 144.53L233.75 137.62L225.51 140.08L235.75 147.69L235 154.12L229.05 156.69L218.82 149.09L218.84 157.68L228.14 164.59L237.04 160.74L255.62 174.55L254.5 184.18L263.79 191.08L272.19 188.75L261.8 181.03L262.55 174.59L268.49 172.02Z" fill="#CCCCCC"/>
<g id="gear1" class="rotate">
<path id="Vector 7" fill-rule="evenodd" clip-rule="evenodd" d="M77.06 31.38C78.7358 30.9696 80.2522 30.0713 81.4173 28.7988C82.5824 27.5263 83.3439 25.9367 83.6052 24.2313C83.8666 22.5259 83.6162 20.7812 82.8857 19.2182C82.1552 17.6551 80.9774 16.3439 79.5014 15.4505C78.0254 14.557 76.3176 14.1215 74.594 14.1991C72.8704 14.2766 71.2085 14.8637 69.8187 15.8861C68.4289 16.9085 67.3736 18.3202 66.7864 19.9425C66.1993 21.5649 66.1065 23.3249 66.52 25C67.0759 27.2412 68.4971 29.1708 70.4725 30.3665C72.4479 31.5623 74.8166 31.9267 77.06 31.38ZM70.72 24C70.5041 23.1562 70.5441 22.2673 70.8348 21.4463C71.1256 20.6254 71.6539 19.9094 72.3527 19.3896C73.0515 18.8697 73.8891 18.5695 74.759 18.527C75.629 18.4846 76.4918 18.7019 77.2379 19.1512C77.984 19.6005 78.5796 20.2617 78.9488 21.0504C79.3181 21.8392 79.4444 22.72 79.3117 23.5808C79.179 24.4416 78.7933 25.2434 78.2035 25.8843C77.6138 26.5252 76.8468 26.9763 76 27.18C74.8788 27.4471 73.6975 27.2637 72.7102 26.669C71.7228 26.0743 71.0082 25.116 70.72 24Z" fill="#ACACAC"/>
<path id="Vector 8" fill-rule="evenodd" clip-rule="evenodd" d="M88.55 19.58C89.2177 22.27 89.0719 25.0976 88.1311 27.7046C87.1903 30.3116 85.4969 32.5808 83.2654 34.2245C81.0339 35.8683 78.3647 36.8127 75.5959 36.9382C72.8272 37.0636 70.0835 36.3644 67.7125 34.9292C65.3415 33.494 63.4498 31.3872 62.2771 28.876C61.1045 26.3647 60.7036 23.5619 61.1253 20.8225C61.5469 18.0832 62.7722 15.5307 64.6458 13.4883C66.5194 11.446 68.9571 10.0057 71.65 9.35C75.2472 8.4741 79.0449 9.0587 82.2121 10.9758C85.3793 12.893 87.6581 15.9867 88.55 19.58ZM68.42 7.06C67.2576 7.5419 66.1511 8.1488 65.12 8.87L60.27 5.41C59.5101 6.05 58.7919 6.7381 58.12 7.47L61.37 12.47C60.6028 13.4678 59.9488 14.5478 59.42 15.69L53.49 15.11C53.1475 16.0532 52.8701 17.0188 52.66 18L58 20.67C57.8385 21.9168 57.8117 23.1774 57.92 24.43L52.47 26.9C52.6416 27.8814 52.8788 28.8503 53.18 29.8L59.18 29.48C59.6619 30.6424 60.2688 31.7489 60.99 32.78L57.53 37.62C58.1673 38.3855 58.8556 39.1071 59.59 39.78L64.59 36.52C65.5877 37.3065 66.6713 37.9774 67.82 38.52L67.24 44.46C68.1781 44.7971 69.1367 45.0743 70.11 45.29L72.8 39.97C74.0282 40.1202 75.2695 40.1303 76.5 40L79 45.43C79.9805 45.2537 80.949 45.0166 81.9 44.72L81.58 38.72C82.7297 38.2682 83.8263 37.6914 84.85 37L89.69 40.47C90.458 39.8319 91.1798 39.1402 91.85 38.4L88.59 33.4C89.3742 32.4043 90.045 31.3243 90.59 30.18L96.52 30.76C96.859 29.8216 97.1396 28.8631 97.36 27.89L92 25.16C92.1716 23.9106 92.1985 22.6456 92.08 21.39L97.51 18.93C97.3338 17.9495 97.0966 16.981 96.8 16.03L90.8 16.35C90.3209 15.1882 89.7174 14.0818 89 13.05L92.47 8.2C91.8292 7.4375 91.1376 6.7192 90.4 6.05L85.4 9.3C84.3995 8.5367 83.32 7.8829 82.18 7.35L82.76 1.42C81.8229 1.0796 80.8641 0.8024 79.89 0.59L77.23 5.9C75.9798 5.7384 74.7159 5.7116 73.46 5.82L71 0.400002C70.0183 0.570402 69.0494 0.807701 68.1 1.11L68.42 7.06Z" fill="#FFC101"/>
</g>
<g id="gear2" class="rotateinv">
<path id="Vector 9" fill-rule="evenodd" clip-rule="evenodd" d="M125 40C125.44 41.3834 125.46 42.8662 125.057 44.2609C124.654 45.6556 123.847 46.8996 122.737 47.8355C121.628 48.7714 120.265 49.3572 118.823 49.5189C117.38 49.6806 115.922 49.4108 114.632 48.7438C113.343 48.0767 112.281 47.0423 111.579 45.7714C110.878 44.5004 110.569 43.05 110.692 41.6035C110.814 40.1571 111.363 38.7795 112.269 37.645C113.175 36.5105 114.397 35.6701 115.78 35.23C116.699 34.9378 117.666 34.8293 118.626 34.9109C119.587 34.9924 120.522 35.2624 121.378 35.7053C122.234 36.1483 122.995 36.7555 123.616 37.4924C124.238 38.2293 124.708 39.0814 125 40ZM113.72 33.56C113.081 33.8685 112.48 34.2511 111.93 34.7L109 33C108.598 33.3926 108.22 33.8101 107.87 34.25L109.87 36.93C109.466 37.52 109.13 38.1541 108.87 38.82L105.51 38.71C105.359 39.2529 105.239 39.8037 105.15 40.36L108.24 41.67C108.198 42.3782 108.232 43.0889 108.34 43.79L105.34 45.38C105.527 45.9329 105.747 46.4739 106 47L109.34 46.59C109.65 47.23 108.73 49.06 109.17 49.59L108.71 51.22C109.103 51.6225 109.52 51.9999 109.96 52.35L112.64 50.35C113.23 50.7541 113.864 51.0896 114.53 51.35L114.43 54.71C114.948 54.8355 115.472 54.9323 116 55L117.31 51.91C118.018 51.952 118.729 51.9184 119.43 51.81L121.03 54.81C121.573 54.6703 122.107 54.5 122.63 54.3L122.22 50.96C122.857 50.6478 123.458 50.2655 124.01 49.82L126.87 51.58C127.276 51.1804 127.654 50.7527 128 50.3L126 47.62C126.404 47.03 126.74 46.396 127 45.73L130.36 45.83C130.511 45.2905 130.631 44.743 130.72 44.19L127.63 42.88C127.672 42.1718 127.638 41.4611 127.53 40.76L130.53 39.16C130.39 38.6175 130.22 38.0833 130.02 37.56L126.68 37.97C126.372 37.3307 125.989 36.7299 125.54 36.18L127.31 33.32C126.898 32.9155 126.461 32.5381 126 32.19L123.32 34.19C122.73 33.7859 122.096 33.4504 121.43 33.19L121.53 29.83C120.991 29.6783 120.443 29.5581 119.89 29.47L118.6 32.6C117.892 32.558 117.181 32.5916 116.48 32.7L114.88 29.7C114.337 29.8397 113.803 30.01 113.28 30.21L113.72 33.56Z" fill="#ACACAC"/>
<path id="Vector 10" d="M116.94 39C117.585 38.7941 118.276 38.7841 118.926 38.9713C119.577 39.1584 120.157 39.5344 120.594 40.0515C121.03 40.5686 121.304 41.2036 121.379 41.8762C121.455 42.5487 121.329 43.2286 121.018 43.8297C120.707 44.4307 120.225 44.926 119.632 45.2528C119.039 45.5796 118.363 45.7232 117.689 45.6654C117.014 45.6076 116.372 45.351 115.844 44.9282C115.315 44.5054 114.924 43.9352 114.72 43.29C114.447 42.4267 114.527 41.4903 114.943 40.6861C115.359 39.8818 116.077 39.2755 116.94 39Z" fill="#FFC101"/>
</g>
<g id="logo" class="tickk">
<path id="Vector 11" d="M137.68 124.5C138.882 124.528 140.072 124.741 141.21 125.13C142.695 125.619 144.131 126.245 145.5 127C148.948 128.978 152.111 131.417 154.9 134.25C156.856 136.192 158.636 138.304 160.22 140.56C161.55 142.433 162.673 144.445 163.57 146.56C164.247 148.106 164.63 149.764 164.7 151.45C164.771 151.973 164.721 152.506 164.552 153.006C164.383 153.507 164.101 153.961 163.727 154.334C163.353 154.707 162.897 154.988 162.397 155.156C161.896 155.323 161.363 155.373 160.84 155.3C159.641 155.268 158.454 155.052 157.32 154.66C155.829 154.162 154.389 153.523 153.02 152.75C149.569 150.775 146.406 148.336 143.62 145.5C141.67 143.555 139.893 141.444 138.31 139.19C136.976 137.32 135.852 135.307 134.96 133.19C134.284 131.64 133.901 129.979 133.83 128.29C133.761 127.768 133.812 127.238 133.982 126.74C134.151 126.241 134.432 125.789 134.805 125.417C135.177 125.046 135.631 124.765 136.129 124.598C136.628 124.43 137.159 124.379 137.68 124.45V124.5ZM137.68 123.24C137 123.2 136.319 123.296 135.677 123.522C135.034 123.749 134.444 124.102 133.94 124.56C130.36 128.15 134.31 137.91 142.77 146.37C149.11 152.72 156.19 156.52 160.84 156.52C161.52 156.561 162.201 156.466 162.844 156.239C163.486 156.012 164.077 155.659 164.58 155.2C168.17 151.62 164.21 141.85 155.75 133.39C149.41 127.05 142.34 123.24 137.68 123.24Z" fill="white"/>
<path id="Vector 12" d="M160.84 123.29V124.5C161.362 124.428 161.894 124.477 162.394 124.644C162.894 124.811 163.348 125.091 163.722 125.463C164.096 125.835 164.378 126.288 164.548 126.787C164.718 127.286 164.77 127.818 164.7 128.34C164.629 130.029 164.246 131.69 163.57 133.24C162.674 135.355 161.551 137.367 160.22 139.24C158.636 141.496 156.856 143.608 154.9 145.55C152.114 148.386 148.951 150.825 145.5 152.8C144.135 153.573 142.698 154.212 141.21 154.71C140.073 155.102 138.882 155.318 137.68 155.35C137.158 155.421 136.626 155.37 136.127 155.202C135.627 155.034 135.173 154.752 134.8 154.38C134.428 154.007 134.146 153.553 133.978 153.053C133.81 152.554 133.759 152.022 133.83 151.5C133.9 149.814 134.283 148.156 134.96 146.61C135.853 144.493 136.976 142.481 138.31 140.61C139.893 138.356 141.67 136.245 143.62 134.3C146.4 131.451 149.556 128.995 153 127C154.371 126.231 155.81 125.592 157.3 125.09C158.434 124.701 159.621 124.489 160.82 124.46V123.25L160.84 123.29ZM160.82 123.25C156.17 123.25 149.09 127.06 142.75 133.4C134.29 141.86 130.34 151.63 133.92 155.21C134.424 155.668 135.014 156.021 135.657 156.248C136.299 156.474 136.98 156.57 137.66 156.53C142.32 156.53 149.39 152.72 155.73 146.38C164.19 137.92 168.15 128.16 164.56 124.57C164.057 124.111 163.466 123.757 162.824 123.531C162.181 123.304 161.5 123.209 160.82 123.25Z" fill="white"/>
<path id="Vector 13" d="M149.26 132C152.015 131.988 154.766 132.223 157.48 132.7C159.753 133.085 161.976 133.718 164.11 134.59C165.683 135.204 167.128 136.106 168.37 137.25C168.789 137.569 169.128 137.981 169.362 138.452C169.595 138.924 169.717 139.444 169.717 139.97C169.717 140.496 169.595 141.016 169.362 141.488C169.128 141.959 168.789 142.371 168.37 142.69C167.128 143.834 165.683 144.736 164.11 145.35C161.978 146.226 159.754 146.86 157.48 147.24C152.04 148.173 146.48 148.173 141.04 147.24C138.766 146.86 136.542 146.226 134.41 145.35C132.837 144.736 131.392 143.834 130.15 142.69C129.731 142.371 129.392 141.959 129.158 141.488C128.925 141.016 128.803 140.496 128.803 139.97C128.803 139.444 128.925 138.924 129.158 138.452C129.392 137.981 129.731 137.569 130.15 137.25C131.392 136.106 132.837 135.204 134.41 134.59C136.544 133.718 138.767 133.085 141.04 132.7C143.754 132.223 146.505 131.989 149.26 132ZM149.26 130.79C137.26 130.79 127.6 134.9 127.6 139.97C127.6 145.04 137.3 149.15 149.26 149.15C161.22 149.15 170.93 145.04 170.93 139.97C170.93 134.9 161.23 130.79 149.26 130.79Z" fill="white"/>
<path id="Vector 14" d="M149.26 119.47C149.78 119.503 150.289 119.64 150.756 119.872C151.223 120.103 151.639 120.426 151.98 120.82C153.124 122.062 154.026 123.507 154.64 125.08C155.516 127.212 156.15 129.436 156.53 131.71C157.477 137.149 157.477 142.711 156.53 148.15C156.15 150.424 155.516 152.648 154.64 154.78C154.028 156.337 153.133 157.768 152 159C151.681 159.419 151.269 159.758 150.798 159.992C150.326 160.225 149.806 160.347 149.28 160.347C148.754 160.347 148.234 160.225 147.762 159.992C147.291 159.758 146.879 159.419 146.56 159C145.416 157.758 144.514 156.313 143.9 154.74C143.028 152.606 142.395 150.383 142.01 148.11C141.077 142.67 141.077 137.11 142.01 131.67C142.395 129.397 143.028 127.174 143.9 125.04C144.514 123.467 145.416 122.022 146.56 120.78C147.254 119.99 148.231 119.505 149.28 119.43L149.26 119.47ZM149.28 118.23C144.21 118.23 140.1 127.93 140.1 139.89C140.1 151.85 144.21 161.56 149.28 161.56C154.35 161.56 158.46 151.86 158.46 139.89C158.46 127.92 154.35 118.23 149.28 118.23Z" fill="white"/>
<path id="Vector 15" d="M149.26 134.51C146.97 134.51 144.5 135.08 144.5 136.32V143.54C144.5 144.78 146.97 145.35 149.25 145.35H149.31C149.979 145.351 150.648 145.3 151.31 145.2C153.03 144.91 154.03 144.31 154.03 143.54V136.32C154 135.08 151.55 134.51 149.26 134.51ZM152.74 143.51C152.258 143.868 151.68 144.074 151.08 144.1C150.479 144.202 149.87 144.248 149.26 144.24C147.09 144.24 145.95 143.73 145.79 143.51V142.41C148.07 143.114 150.51 143.114 152.79 142.41L152.74 143.51ZM145.74 137.61C148.02 138.314 150.46 138.314 152.74 137.61V138.7C152.57 138.91 151.44 139.43 149.26 139.43C147.08 139.43 145.95 138.91 145.79 138.7L145.74 137.61ZM145.74 141.1V140C148.02 140.704 150.46 140.704 152.74 140V141.09C152.57 141.3 151.43 141.82 149.26 141.82C147.09 141.82 146 141.32 145.79 141.11L145.74 141.1ZM149.22 135.6C151.34 135.6 152.5 136.09 152.67 136.31C152.5 136.54 151.34 137.03 149.22 137.03C147.1 137.03 145.93 136.54 145.77 136.31C146 136.1 147.15 135.61 149.27 135.61L149.22 135.6Z" fill="white"/>
</g>
<path id="Vector 16" d="M69.08 151.53C72.3702 156.767 77.4798 160.604 83.427 162.304C89.3742 164.003 95.7395 163.444 101.3 160.736C106.861 158.027 111.224 153.359 113.552 147.629C115.881 141.899 116.009 135.51 113.914 129.691C111.818 123.872 107.646 119.032 102.199 116.102C96.7518 113.171 90.4141 112.357 84.4033 113.816C78.3925 115.274 73.1327 118.902 69.6342 124.003C66.1358 129.104 64.6457 135.317 65.45 141.45L60.57 143L63.89 153.18L69.08 151.53ZM70.65 144.61C69.3804 140.718 69.2935 136.537 70.4003 132.595C71.507 128.653 73.7577 125.129 76.8678 122.466C79.9778 119.804 83.8075 118.123 87.8725 117.637C91.9376 117.151 96.0555 117.882 99.7055 119.736C103.355 121.59 106.374 124.485 108.378 128.055C110.383 131.625 111.284 135.709 110.968 139.79C110.651 143.872 109.132 147.768 106.601 150.987C104.07 154.205 100.642 156.6 96.75 157.87C94.1656 158.715 91.4402 159.041 88.7294 158.832C86.0186 158.623 83.3757 157.881 80.9518 156.649C78.5278 155.418 76.3703 153.721 74.6027 151.655C72.835 149.589 71.4919 147.195 70.65 144.61Z" fill="#EAEAEA"/>
<path id="Vector 17" d="M96.75 157.87C100.642 156.6 104.07 154.205 106.601 150.987C109.132 147.768 110.651 143.872 110.968 139.79C111.284 135.709 110.383 131.625 108.378 128.055C106.374 124.485 103.355 121.59 99.7055 119.736C96.0555 117.882 91.9376 117.151 87.8725 117.637C83.8075 118.123 79.9778 119.804 76.8678 122.466C73.7577 125.129 71.507 128.653 70.4003 132.595C69.2935 136.537 69.3804 140.718 70.65 144.61C72.3548 149.828 76.0615 154.156 80.9555 156.642C85.8495 159.128 91.5305 159.57 96.75 157.87ZM72.58 144C71.434 140.492 71.3538 136.723 72.3496 133.17C73.3453 129.617 75.3723 126.438 78.1743 124.037C80.9762 121.635 84.4273 120.119 88.0912 119.678C91.7551 119.238 95.4673 119.894 98.7584 121.563C102.05 123.233 104.772 125.84 106.581 129.057C108.39 132.273 109.205 135.954 108.923 139.633C108.64 143.313 107.273 146.826 104.994 149.728C102.716 152.631 99.6273 154.792 96.12 155.94C91.415 157.477 86.2924 157.082 81.8783 154.843C77.4641 152.604 74.1196 148.704 72.58 144Z" fill="#ACACAC"/>
<path id="Vector 18" opacity="0.15" d="M72.58 144C71.434 140.492 71.3538 136.723 72.3496 133.17C73.3453 129.617 75.3723 126.438 78.1743 124.037C80.9762 121.635 84.4273 120.119 88.0912 119.678C91.7551 119.238 95.4673 119.894 98.7584 121.563C102.05 123.233 104.772 125.84 106.581 129.057C108.39 132.273 109.205 135.954 108.923 139.633C108.64 143.313 107.273 146.826 104.994 149.728C102.716 152.631 99.6273 154.792 96.12 155.94C91.415 157.477 86.2924 157.082 81.8783 154.843C77.4641 152.604 74.1196 148.704 72.58 144Z" fill="white"/>
<path id="Vector 19" d="M93.31 150.15C90.5279 150.849 87.5892 150.555 85.0006 149.319C82.412 148.083 80.3358 145.983 79.13 143.38L77.13 144.03C77.26 144.34 77.41 144.65 77.56 144.94C79.0242 147.705 81.3468 149.919 84.1782 151.25C87.0097 152.581 90.1968 152.957 93.26 152.32L93.31 150.15Z" fill="#384857"/>
<path id="Vector 20" d="M93.26 152.32C90.1968 152.957 87.0097 152.581 84.1782 151.25C81.3468 149.919 79.0242 147.705 77.56 144.94C77.41 144.65 77.26 144.34 77.13 144.03L79.13 143.38C80.3358 145.983 82.412 148.083 85.0006 149.319C87.5892 150.555 90.5279 150.849 93.31 150.15L93.26 152.32Z" fill="white"/>
<path id="Vector 21" d="M61.531 153.995L58.2054 143.815L55.8385 144.588L59.1641 154.769L61.531 153.995Z" fill="#EAEAEA"/>
<path id="Vector 22" d="M59.1709 154.767L55.8454 144.587L14.3055 158.156L17.631 168.337L59.1709 154.767Z" fill="#CCCCCC"/>
<path id="Vector 23" d="M64.0132 153.578L60.4517 142.675L58.0848 143.448L61.6463 154.351L64.0132 153.578Z" fill="#ACACAC"/>
<path id="Vector 24" d="M34.7982 163.861L30.8051 151.637L17.2404 156.068L21.2336 168.292L34.7982 163.861Z" fill="#ACACAC"/>
<path id="Vector 25" d="M36.23 162.26L43.94 159.75L42.77 170.25C42.7018 170.805 42.5178 171.34 42.23 171.82L31.54 188.33L27.16 187.33L35.92 169.82L36.23 162.26Z" fill="#EAEAEA"/>
<path id="Vector 26" d="M44 159.5L51.6 157L57.7 165.15C58.206 167.233 58.206 169.407 57.7 171.49C56.88 175.19 54.99 187.91 54.99 187.91H50.99L51.84 170.91C51.9276 169.487 51.4899 168.082 50.61 166.96L44 159.5Z" fill="#EAEAEA"/>
<path id="Vector 27" d="M49.73 188.64V191.35H58.06C58.06 191.35 58.49 190.35 56.7 189.25C54.91 188.15 54.38 188.33 54.38 188.33L49.73 188.64Z" fill="#333333"/>
<path id="Vector 28" d="M26 190.92L26.68 187.34L31.55 188.34C31.55 188.34 33.83 189.7 34.08 190.62C34.33 191.54 34.08 191.36 34.08 191.36L26 190.92Z" fill="#333333"/>
<path id="Vector 29" d="M49.52 138.08L53.46 145.39L49.33 146.71L49.52 138.08Z" fill="#FFCE35"/>
<path id="Vector 30" d="M40.61 151.62C40.61 151.62 40.48 152.62 40.44 153.62C40.4 154.62 41.49 155.92 42.68 155.53C43.87 155.14 44.23 153.27 44.12 152.88C44.01 152.49 44.04 151.88 44.39 152.22C44.74 152.56 45.23 153.09 45.25 152.51C45.2472 152.323 45.2037 152.138 45.1224 151.97C45.0412 151.801 44.9242 151.652 44.7795 151.533C44.6349 151.414 44.4661 151.328 44.2848 151.281C44.1036 151.234 43.9143 151.227 43.73 151.26C42.64 151.31 40.61 151.62 40.61 151.62Z" fill="#FFD0C5"/>
<path id="Vector 31" d="M43.32 132.28L44.64 130.63L48.5 131.45L49.5 132.97C49.5 132.97 49.5 134.5 49.95 138.78C50.0117 141.435 49.8209 144.091 49.38 146.71L37.74 150.42C37.9155 148.248 38.216 146.088 38.64 143.95C39.18 141.85 42.43 134.41 42.43 134.41L43.32 132.28Z" fill="#FFC101"/>
<path id="Vector 32" d="M45.62 130.84L45.95 129.31L48.19 130.63L47.7 131.6L45.62 130.84Z" fill="#FFD0C5"/>
<path id="Vector 33" d="M44.88 127.2C45.0617 128.171 45.596 129.04 46.38 129.64C47.63 130.53 49.77 131.35 50.47 130.01C50.7513 129.35 51.1787 128.762 51.72 128.29C51.95 128.04 52.21 124.22 51.72 123.7C51.23 123.18 43.89 122.22 44.88 127.2Z" fill="#FFD0C5"/>
<path id="Vector 34" d="M46.13 129.23C46.13 129.23 43.61 126.91 43.51 124.69C43.4837 123.77 43.8028 122.874 44.4044 122.178C45.006 121.483 45.8464 121.037 46.76 120.93C48.3 120.74 49.41 121.3 48.91 120C48.41 118.7 51.91 119.57 52.34 120.93C52.77 122.29 53.93 124.57 50.34 125.06C46.75 125.55 45.8 124.14 45.83 125.18C45.86 126.22 46.2 126.88 45.77 126.88C45.34 126.88 44.89 126.88 45.05 127.57C45.2957 128.19 45.6629 128.754 46.13 129.23Z" fill="#333333"/>
<path id="Vector 35" d="M40.21 149.42C40.21 149.42 40.44 139.52 41.71 137.82C42.98 136.12 43.93 134.54 43.82 137.44C43.71 140.34 43.25 148.33 43.25 148.33L40.21 149.42Z" fill="#FFCE35"/>
<path id="Vector 36" d="M57.65 155.7C57.65 155.7 56.97 155.21 58.17 154.25C59.37 153.29 59.97 152.6 60.89 153.3C61.81 154 62.12 155.37 60.8 155.81C59.48 156.25 58.5 156.31 57.65 155.7Z" fill="#FFD0C5"/>
<path id="Vector 37" d="M43.32 132.28C42.71 132.35 40.61 135.36 40.61 135.36C40.61 135.36 36.48 139.92 36.61 140.66C36.74 141.4 40.52 151.45 40.52 151.45H43.64L42.16 139.37C42.16 139.37 45.49 138.2 45.74 136.1C45.73 136.1 47 131.84 43.32 132.28Z" fill="#FFD756"/>
<path id="Vector 38" d="M246.63 148L245.85 148.63C245.85 148.63 243.71 147.86 243.23 150.41C243.23 150.41 243.1 151.49 243.79 151.49C244.48 151.49 244.19 151.38 245.16 151.4C245.58 151.456 246.005 151.359 246.358 151.125C246.711 150.892 246.968 150.538 247.08 150.13L247.55 149.46L246.63 148Z" fill="#FF8E4B"/>
<path id="Vector 39" d="M246.72 149.39C246.553 149.25 246.417 149.078 246.319 148.884C246.221 148.689 246.163 148.477 246.15 148.26C246.15 148.26 253.38 142.34 254.15 141.86C257.087 139.398 259.863 136.749 262.46 133.93C263.69 132.51 265.22 133.06 266.97 133.56L268.41 133.97C268.811 134.111 269.167 134.355 269.443 134.678C269.72 135.001 269.906 135.39 269.984 135.808C270.062 136.225 270.029 136.656 269.888 137.057C269.747 137.457 269.503 137.814 269.18 138.09C265.18 141.42 258.47 145.16 257.18 145.95C254.228 147.595 251.16 149.022 248 150.22C247.522 150.032 247.087 149.749 246.72 149.39Z" fill="#003B72"/>
<path id="Vector 40" d="M238.47 185.75C237.816 186.162 237.082 186.43 236.317 186.537C235.551 186.644 234.772 186.587 234.03 186.37C234.03 186.37 231.86 185.87 231.39 186.95C231.39 186.95 234.71 188.64 235.55 189.11C236.19 189.479 236.784 189.922 237.32 190.43C237.408 190.509 237.511 190.57 237.623 190.608C237.735 190.646 237.854 190.661 237.972 190.651C238.089 190.642 238.204 190.609 238.309 190.553C238.413 190.498 238.506 190.422 238.58 190.33L239.08 189.69C239.59 188.99 240.78 186.75 240.78 186.75L238.47 185.75Z" fill="#333333"/>
<path id="Vector 41" d="M237.44 185.08C237.733 185.752 238.237 186.311 238.876 186.672C239.514 187.033 240.253 187.176 240.98 187.08C244.049 184.51 246.887 181.676 249.46 178.61C250.509 177.353 251.396 175.969 252.1 174.49C254.38 169.19 260.56 161.29 264.49 157.28L254.66 153.73C254.66 153.73 251.52 160.06 247.33 167.84C244.31 173.45 240.75 179.8 237.44 185.08Z" fill="#CCCCCC"/>
<path id="Vector 42" d="M237 139.29C237.024 139.412 237.013 139.539 236.969 139.656C236.925 139.772 236.849 139.874 236.75 139.95L234.31 141.81C234.176 141.913 234.085 142.062 234.054 142.228C234.023 142.394 234.053 142.565 234.14 142.71L235.69 145.16C235.78 145.297 235.917 145.397 236.075 145.441C236.233 145.485 236.402 145.47 236.55 145.4L238.67 144.4C238.803 144.332 238.954 144.312 239.1 144.343C239.246 144.374 239.376 144.454 239.47 144.57C240.468 145.777 241.699 146.77 243.09 147.49C243.222 147.562 243.326 147.676 243.388 147.813C243.449 147.95 243.464 148.104 243.43 148.25L242.96 150.16C242.921 150.322 242.943 150.492 243.023 150.638C243.102 150.784 243.233 150.895 243.39 150.95L246.09 151.95C246.252 152.011 246.432 152.007 246.591 151.941C246.751 151.874 246.88 151.748 246.95 151.59L248.05 149.22C248.103 149.105 248.187 149.007 248.294 148.938C248.4 148.869 248.523 148.832 248.65 148.83C249.024 148.827 249.398 148.803 249.77 148.76C250.447 148.688 251.117 148.554 251.77 148.36C251.903 148.32 252.045 148.321 252.178 148.364C252.31 148.407 252.426 148.489 252.51 148.6L254.2 150.82C254.303 150.951 254.45 151.04 254.615 151.069C254.779 151.099 254.948 151.067 255.09 150.98L257.52 149.43C257.664 149.341 257.769 149.201 257.815 149.038C257.861 148.876 257.845 148.702 257.77 148.55L256.62 146.19C256.556 146.063 256.534 145.919 256.558 145.779C256.581 145.639 256.648 145.509 256.75 145.41C257.615 144.547 258.34 143.556 258.9 142.47C258.969 142.338 259.081 142.233 259.217 142.171C259.352 142.11 259.505 142.095 259.65 142.13L261.92 142.69C262.084 142.73 262.257 142.708 262.407 142.629C262.556 142.55 262.671 142.418 262.73 142.26L263.73 139.53C263.788 139.376 263.785 139.205 263.722 139.053C263.659 138.901 263.54 138.778 263.39 138.71L260.6 137.42C260.485 137.363 260.387 137.277 260.317 137.169C260.247 137.062 260.206 136.938 260.2 136.81C260.2 136.49 260.2 136.16 260.14 135.81C260.072 135.206 259.961 134.608 259.81 134.02C259.776 133.894 259.779 133.76 259.82 133.636C259.861 133.511 259.937 133.401 260.04 133.32L262.59 131.39C262.726 131.288 262.818 131.139 262.847 130.972C262.877 130.804 262.842 130.632 262.75 130.49L261.25 128C261.159 127.861 261.021 127.759 260.861 127.715C260.7 127.671 260.529 127.687 260.38 127.76L257.77 129.04C257.643 129.104 257.499 129.126 257.359 129.102C257.219 129.079 257.089 129.012 256.99 128.91C256.359 128.25 255.651 127.669 254.88 127.18C254.766 127.103 254.678 126.992 254.628 126.864C254.578 126.735 254.568 126.594 254.6 126.46L255.19 124.07C255.23 123.906 255.208 123.733 255.129 123.583C255.05 123.434 254.918 123.319 254.76 123.26L252.05 122.26C251.889 122.204 251.713 122.21 251.556 122.277C251.399 122.343 251.272 122.466 251.2 122.62L250.12 125C250.06 125.118 249.966 125.217 249.85 125.282C249.735 125.348 249.603 125.379 249.47 125.37C248.738 125.3 248.002 125.3 247.27 125.37C246.717 125.433 246.169 125.534 245.63 125.67L243.91 123.41C243.812 123.276 243.666 123.184 243.502 123.155C243.338 123.125 243.169 123.159 243.03 123.25L240.57 124.8C240.431 124.889 240.33 125.026 240.286 125.184C240.242 125.343 240.257 125.512 240.33 125.66L241.12 127.27C241.188 127.403 241.209 127.556 241.18 127.703C241.151 127.849 241.073 127.982 240.96 128.08C240.004 128.888 239.184 129.843 238.53 130.91C238.456 131.031 238.345 131.125 238.214 131.179C238.083 131.233 237.938 131.244 237.8 131.21L234.94 130.51C234.785 130.471 234.621 130.492 234.48 130.568C234.34 130.643 234.233 130.769 234.18 130.92L233.18 133.67C233.124 133.826 233.128 133.997 233.191 134.15C233.253 134.304 233.371 134.428 233.52 134.5L236.42 135.84C236.542 135.897 236.645 135.99 236.714 136.106C236.783 136.221 236.817 136.355 236.81 136.49C236.79 137.094 236.81 137.699 236.87 138.3C236.91 138.65 237 139 237 139.29ZM243.29 140.74C242.508 139.597 242.117 138.232 242.174 136.849C242.232 135.465 242.735 134.138 243.609 133.064C244.483 131.99 245.68 131.227 247.023 130.889C248.366 130.552 249.782 130.657 251.06 131.19C252.116 131.639 253.027 132.373 253.69 133.31C254.489 134.443 254.9 135.804 254.86 137.19C254.82 138.575 254.332 139.911 253.469 140.996C252.606 142.081 251.415 142.856 250.073 143.207C248.732 143.558 247.313 143.464 246.03 142.94C244.933 142.479 243.99 141.716 243.31 140.74H243.29Z" fill="#ACACAC"/>
<path id="Vector 43" d="M247.33 167.85L249.46 178.62C250.509 177.363 251.396 175.979 252.1 174.5C254.38 169.2 260.56 161.3 264.49 157.29L254.66 153.74C254.66 153.74 251.52 160.07 247.33 167.85Z" fill="#ACACAC"/>
<path id="Vector 44" d="M255.36 187.18C255.36 187.18 255.47 189.18 253.08 189.4C253.08 189.4 251.65 189.4 251.64 190.68H258.64C258.802 190.169 258.886 189.636 258.89 189.1C258.751 188.07 258.482 187.062 258.09 186.1L255.36 187.18Z" fill="#333333"/>
<path id="Vector 45" d="M257.89 153.74C254.646 157.719 252.214 162.295 250.73 167.21C249.22 171.93 253.5 183.78 254.34 187.9C255.968 188.029 257.605 187.856 259.17 187.39C259.236 182.348 258.902 177.309 258.17 172.32C257.53 168.65 263.94 164.48 266.74 157.85C268.64 153.33 266.32 153.41 263.48 153.3L257.89 153.74Z" fill="#EAEAEA"/>
<path id="Vector 46" d="M262.94 132.28C265.37 133.66 270.36 132.39 270.36 132.39C269.734 131.539 269.309 130.556 269.117 129.517C268.925 128.478 268.97 127.409 269.25 126.39L267.34 127.39L265.34 128.39C265.34 128.39 265.21 129.05 265.11 130.23C265.11 130.53 265.09 130.863 265.05 131.23C264.288 131.446 263.572 131.802 262.94 132.28Z" fill="#FFD0C5"/>
<path id="Vector 47" d="M254 153.49C254 153.92 254.49 154.12 254.6 154.14C256.627 154.781 258.695 155.282 260.79 155.64C262.846 155.818 264.917 155.676 266.93 155.22C267.21 155.16 267.87 154.99 267.93 154.72C267.99 154.45 276.12 138.15 269.8 131.16C268.937 131.146 268.077 131.281 267.26 131.56C266.3 131.786 265.293 131.705 264.38 131.33L263.31 131.89C262 132.62 259.51 135.22 259.22 137.26C259.08 138.26 258.48 139.07 258.31 139.98C258.25 140.32 258.18 140.65 258.12 140.98C257.99 141.61 257.85 142.21 257.72 142.78C257.34 144.32 256.95 145.65 256.57 146.78C256.19 147.91 255.76 149.01 255.4 149.86C254.93 150.96 254.54 151.78 254.29 152.41C254.131 152.75 254.033 153.116 254 153.49Z" fill="#FFD756"/>
<path id="Vector 48" d="M254.28 152.42C261.139 149.16 266.616 143.567 269.73 136.64C269.73 136.64 260.41 140.07 258.11 140.97C257.98 141.6 257.84 142.2 257.71 142.77C257.33 144.31 256.94 145.64 256.56 146.77C256.18 147.9 255.75 149 255.39 149.85C254.92 151 254.53 151.79 254.28 152.42Z" fill="#FFC101"/>
<path id="Vector 49" d="M247.57 149.29L246.57 149.65C246.312 149.458 246.014 149.327 245.698 149.268C245.381 149.208 245.056 149.221 244.746 149.306C244.435 149.391 244.149 149.545 243.907 149.757C243.665 149.969 243.475 150.233 243.35 150.53C243.35 150.53 242.9 151.53 243.61 151.74C244.32 151.95 244.06 151.74 245.05 152.09C245.452 152.28 245.908 152.321 246.338 152.208C246.768 152.094 247.144 151.833 247.4 151.47L248.08 150.97L247.57 149.29Z" fill="#FFB079"/>
<path id="Vector 50" d="M246.75 150.69C246.39 149.69 246.22 149.3 246.22 149.3C246.22 149.3 253.71 143.19 254.47 142.67C257.437 140.524 260.193 138.099 262.7 135.43C263.312 134.695 264.114 134.14 265.018 133.827C265.921 133.513 266.894 133.452 267.83 133.65L269.4 133.98C269.827 134.07 270.22 134.277 270.535 134.578C270.851 134.879 271.076 135.262 271.185 135.684C271.294 136.106 271.283 136.551 271.153 136.967C271.023 137.383 270.78 137.755 270.45 138.04C266.3 141.6 259.3 145.72 258 146.58C254.651 148.513 251.176 150.22 247.6 151.69C247.203 151.473 246.9 151.117 246.75 150.69Z" fill="#FFD756"/>
<path id="Vector 51" d="M265.06 130.2C265.821 130.208 266.575 130.047 267.267 129.729C267.958 129.411 268.571 128.943 269.06 128.36C268.483 128.056 267.922 127.722 267.38 127.36L265.38 128.36C265.38 128.36 265.16 129 265.06 130.2Z" fill="#F7BAAD"/>
<path id="Vector 52" d="M264 127.74C264 127.74 267.63 130.35 269.22 128.06C270.81 125.77 272.34 124.57 270.09 122.81C267.84 121.05 266.78 121.61 266.09 122.24C265.4 122.87 263.14 127 264 127.74Z" fill="#FFD0C5"/>
<path id="Vector 53" d="M265.72 120.18C265.794 119.663 265.939 119.158 266.15 118.68C266.15 118.68 266.37 119.63 268.15 119.5C269.93 119.37 272.6 119.67 273.52 121.63L273.67 122.02C273.785 121.667 273.856 121.301 273.88 120.93C274.059 121.551 274.059 122.209 273.88 122.83C273.876 122.863 273.876 122.897 273.88 122.93C274.198 123.32 274.436 123.768 274.58 124.25C274.438 123.986 274.208 123.781 273.93 123.67C273.93 125.2 273.32 126.67 272.23 127.14C270.64 127.79 270.66 127.3 269.06 128.36C269.06 128.36 268.63 127.82 268.92 127.47C269.21 127.12 270.32 126.59 269.7 126.07C269.08 125.55 268.85 126.13 268.63 125.78C268.41 125.43 269.54 124.38 268.07 123.4C266.6 122.42 265.59 121.06 265.72 120.18Z" fill="#333333"/>
</g>
</svg>
