
<svg width="293" height="253" viewBox="0 0 293 253" fill="none" xmlns="http://www.w3.org/2000/svg">
	<style>
		.transdown
		{
			animation: transdownr 4s ease-in-out infinite;
		}

		@keyframes transdownr{
		0%  { transform: translate(0vw,0vh);  }
		50% { transform: translate(0vw,5vh);  }
		100%{  transform: translate(0vw,0vh);  }

	}

				.tickk
	{
		stroke-dasharray: 400;
		stroke-dashoffset: 400;
		stroke: #ffffff;
        animation: ticker 4s ease forwards infinite;
        fill: #ffffff;
        stroke-width:0px;
	}
	@keyframes ticker{
		0% {  stroke-dashoffset: 400; fill: none;stroke-width:1px; fill-opacity: 0.1;}
		100%{ fill: #ffffff;stroke-dashoffset: 0;stroke-width:0px;ill-opacity: 1;}


	}


		.rotate
		{
			animation: rotater 4s linear infinite;
			transform-origin: center;
			transform-box: fill-box;
		}

		@keyframes rotater
		{
			0%{ transform: rotate(0deg); }
			100%{ transform: rotate(360deg); }
		}

				.rotateinv
		{
			animation: rotater 4s linear  infinite;
			transform-origin: center;
			transform-box: fill-box;
			transform: rotate(-180deg); 
		}

		@keyframes rotateinvr
		{
			0%{ transform: rotate(180deg); }
			100%{ transform: rotate(-180deg); }
		}
	</style>
<g id="Layer 1">
<path id="Vector" d="M292.5 229.68H220.36V235.38H292.5V229.68Z" fill="#384857"/>
<path id="Vector_2" d="M218.82 136.14V222.59H72.6V136.14C72.6 134.972 73.0632 133.852 73.8881 133.025C74.713 132.198 75.8321 131.733 77 131.73H214.4C214.98 131.729 215.555 131.842 216.091 132.063C216.627 132.284 217.114 132.608 217.525 133.018C217.935 133.428 218.261 133.914 218.483 134.45C218.706 134.986 218.82 135.56 218.82 136.14V136.14Z" fill="#A80045"/>
<path id="Vector_3" d="M83 140H208.38C209.55 140 210.671 140.465 211.498 141.292C212.325 142.119 212.79 143.24 212.79 144.41V213.79C212.79 214.872 212.36 215.91 211.595 216.675C210.83 217.44 209.792 217.87 208.71 217.87H82.71C81.6279 217.87 80.5902 217.44 79.825 216.675C79.0599 215.91 78.63 214.872 78.63 213.79V144.41C78.6299 143.247 79.0891 142.132 79.9075 141.306C80.7259 140.48 81.8373 140.011 83 140V140Z" fill="url(#paint0_linear)"/>
<path id="Vector_4" d="M292.5 229.68H0V252.79H292.5V229.68Z" fill="url(#paint1_linear)"/>
<path id="Vector_5" d="M222.6 222.59H68.3C64.7654 222.59 61.9 225.453 61.9 228.985C61.9 232.517 64.7654 235.38 68.3 235.38H222.6C226.135 235.38 229 232.517 229 228.985C229 225.453 226.135 222.59 222.6 222.59Z" fill="url(#paint2_linear)"/>
<path id="Vector_6" d="M268.49 211.02L278.88 218.74L278.7 210.02L269.41 203.12L259.6 207.36L241.81 194.15L243.05 183.53L233.75 176.62L225.51 179.08L235.75 186.69L235 193.12L229.05 195.69L218.82 188.09L218.84 196.68L228.14 203.59L237.04 199.74L255.62 213.55L254.5 223.18L263.79 230.08L272.19 227.75L261.8 220.03L262.55 213.59L268.49 211.02Z" fill="url(#paint3_linear)"/>
<g id="gear1" class="rotate">
<path id="Vector_7" fill-rule="evenodd" clip-rule="evenodd" d="M77.06 70.38C78.7358 69.9696 80.2522 69.0713 81.4173 67.7988C82.5824 66.5263 83.3439 64.9367 83.6052 63.2313C83.8666 61.5259 83.6162 59.7812 82.8857 58.2182C82.1552 56.6551 80.9774 55.3439 79.5014 54.4505C78.0254 53.557 76.3176 53.1215 74.594 53.1991C72.8704 53.2766 71.2085 53.8637 69.8187 54.8861C68.4289 55.9085 67.3736 57.3202 66.7864 58.9425C66.1993 60.5649 66.1065 62.3249 66.52 64C67.0759 66.2412 68.4971 68.1708 70.4725 69.3665C72.4479 70.5623 74.8166 70.9267 77.06 70.38ZM70.72 63C70.5041 62.1562 70.5441 61.2673 70.8348 60.4463C71.1256 59.6254 71.6539 58.9094 72.3527 58.3896C73.0515 57.8697 73.8891 57.5695 74.759 57.527C75.629 57.4846 76.4918 57.7019 77.2379 58.1512C77.984 58.6005 78.5796 59.2617 78.9488 60.0504C79.3181 60.8392 79.4444 61.72 79.3117 62.5808C79.179 63.4416 78.7933 64.2434 78.2035 64.8843C77.6138 65.5252 76.8468 65.9763 76 66.18C74.8788 66.4471 73.6975 66.2637 72.7102 65.669C71.7228 65.0743 71.0082 64.116 70.72 63Z" fill="#FF9750"/>
<path id="Vector_8" fill-rule="evenodd" clip-rule="evenodd" d="M88.55 58.58C89.2177 61.27 89.0719 64.0976 88.1311 66.7046C87.1903 69.3116 85.4969 71.5808 83.2654 73.2245C81.0339 74.8683 78.3647 75.8127 75.5959 75.9382C72.8272 76.0636 70.0835 75.3644 67.7125 73.9292C65.3415 72.494 63.4498 70.3872 62.2771 67.876C61.1045 65.3647 60.7036 62.5619 61.1253 59.8225C61.5469 57.0832 62.7722 54.5307 64.6458 52.4883C66.5194 50.446 68.9571 49.0057 71.65 48.35C75.2472 47.4741 79.0449 48.0587 82.2121 49.9758C85.3793 51.893 87.6581 54.9867 88.55 58.58V58.58ZM68.42 46.06C67.2576 46.5419 66.1511 47.1488 65.12 47.87L60.27 44.41C59.5101 45.05 58.7919 45.7381 58.12 46.47L61.37 51.47C60.6028 52.4678 59.9488 53.5478 59.42 54.69L53.49 54.11C53.1475 55.0532 52.8701 56.0188 52.66 57L58 59.67C57.8385 60.9168 57.8117 62.1774 57.92 63.43L52.47 65.9C52.6416 66.8814 52.8788 67.8503 53.18 68.8L59.18 68.48C59.6619 69.6424 60.2688 70.7489 60.99 71.78L57.53 76.62C58.1673 77.3855 58.8556 78.1071 59.59 78.78L64.59 75.52C65.5877 76.3065 66.6713 76.9774 67.82 77.52L67.24 83.46C68.1781 83.7971 69.1367 84.0743 70.11 84.29L72.8 78.97C74.0282 79.1202 75.2695 79.1303 76.5 79L79 84.43C79.9805 84.2537 80.949 84.0166 81.9 83.72L81.58 77.72C82.7297 77.2682 83.8263 76.6914 84.85 76L89.69 79.47C90.458 78.8319 91.1798 78.1402 91.85 77.4L88.59 72.4C89.3742 71.4043 90.045 70.3243 90.59 69.18L96.52 69.76C96.859 68.8216 97.1396 67.8631 97.36 66.89L92 64.16C92.1716 62.9106 92.1985 61.6456 92.08 60.39L97.51 57.93C97.3338 56.9495 97.0966 55.981 96.8 55.03L90.8 55.35C90.3209 54.1882 89.7174 53.0818 89 52.05L92.47 47.2C91.8292 46.4375 91.1376 45.7192 90.4 45.05L85.4 48.3C84.3995 47.5367 83.32 46.8829 82.18 46.35L82.76 40.42C81.8229 40.0796 80.8641 39.8024 79.89 39.59L77.23 44.9C75.9798 44.7384 74.7159 44.7116 73.46 44.82L71 39.4C70.0183 39.5704 69.0494 39.8077 68.1 40.11L68.42 46.06Z" fill="#A80045"/>
</g>
<g id="gear2" class="rotateinv">
<path id="Vector_9" fill-rule="evenodd" clip-rule="evenodd" d="M125 79C125.44 80.3834 125.46 81.8662 125.057 83.2609C124.654 84.6556 123.847 85.8996 122.737 86.8355C121.628 87.7714 120.265 88.3572 118.823 88.5189C117.38 88.6806 115.922 88.4108 114.632 87.7438C113.343 87.0767 112.281 86.0423 111.579 84.7714C110.878 83.5004 110.569 82.05 110.692 80.6035C110.814 79.1571 111.363 77.7795 112.269 76.645C113.175 75.5105 114.397 74.6701 115.78 74.23C116.699 73.9378 117.666 73.8293 118.626 73.9109C119.587 73.9924 120.522 74.2624 121.378 74.7053C122.234 75.1483 122.995 75.7555 123.616 76.4924C124.238 77.2293 124.708 78.0814 125 79V79ZM113.72 72.56C113.081 72.8685 112.48 73.2511 111.93 73.7L109 72C108.598 72.3926 108.22 72.8101 107.87 73.25L109.87 75.93C109.466 76.52 109.13 77.1541 108.87 77.82L105.51 77.71C105.359 78.2529 105.239 78.8037 105.15 79.36L108.24 80.67C108.198 81.3782 108.232 82.0889 108.34 82.79L105.34 84.38C105.527 84.9329 105.747 85.4739 106 86L109.34 85.59C109.65 86.23 108.73 88.06 109.17 88.59L108.71 90.22C109.103 90.6225 109.52 90.9999 109.96 91.35L112.64 89.35C113.23 89.7541 113.864 90.0896 114.53 90.35L114.43 93.71C114.948 93.8355 115.472 93.9323 116 94L117.31 90.91C118.018 90.952 118.729 90.9184 119.43 90.81L121.03 93.81C121.573 93.6703 122.107 93.5 122.63 93.3L122.22 89.96C122.857 89.6478 123.458 89.2655 124.01 88.82L126.87 90.58C127.276 90.1804 127.654 89.7527 128 89.3L126 86.62C126.404 86.03 126.74 85.396 127 84.73L130.36 84.83C130.511 84.2905 130.631 83.743 130.72 83.19L127.63 81.88C127.672 81.1718 127.638 80.4611 127.53 79.76L130.53 78.16C130.39 77.6175 130.22 77.0833 130.02 76.56L126.68 76.97C126.372 76.3307 125.989 75.7299 125.54 75.18L127.31 72.32C126.898 71.9155 126.461 71.5381 126 71.19L123.32 73.19C122.73 72.7859 122.096 72.4504 121.43 72.19L121.53 68.83C120.991 68.6783 120.443 68.5581 119.89 68.47L118.6 71.6C117.892 71.558 117.181 71.5916 116.48 71.7L114.88 68.7C114.337 68.8397 113.803 69.01 113.28 69.21L113.72 72.56Z" fill="#FF9750"/>
<path id="Vector_10" d="M116.94 78C117.585 77.7941 118.276 77.7841 118.926 77.9713C119.577 78.1584 120.157 78.5344 120.594 79.0515C121.03 79.5686 121.304 80.2036 121.379 80.8762C121.455 81.5487 121.329 82.2286 121.018 82.8297C120.707 83.4307 120.225 83.926 119.632 84.2528C119.039 84.5796 118.363 84.7232 117.689 84.6654C117.014 84.6076 116.372 84.351 115.844 83.9282C115.315 83.5054 114.924 82.9352 114.72 82.29C114.447 81.4267 114.527 80.4903 114.943 79.6861C115.359 78.8818 116.077 78.2755 116.94 78V78Z" fill="#A80045"/>
</g>
<g id="logo" class="tickk">
<path id="Vector_11" d="M137.68 163.5C138.882 163.528 140.072 163.741 141.21 164.13C142.695 164.619 144.131 165.245 145.5 166C148.948 167.978 152.111 170.417 154.9 173.25C156.856 175.192 158.636 177.304 160.22 179.56C161.55 181.433 162.673 183.445 163.57 185.56C164.247 187.106 164.63 188.764 164.7 190.45C164.771 190.973 164.721 191.506 164.552 192.006C164.383 192.507 164.101 192.961 163.727 193.334C163.353 193.707 162.897 193.988 162.397 194.156C161.896 194.323 161.363 194.373 160.84 194.3C159.641 194.268 158.454 194.052 157.32 193.66C155.829 193.162 154.389 192.523 153.02 191.75C149.569 189.775 146.406 187.336 143.62 184.5C141.67 182.555 139.893 180.444 138.31 178.19C136.976 176.32 135.852 174.307 134.96 172.19C134.284 170.64 133.901 168.979 133.83 167.29C133.761 166.768 133.812 166.238 133.982 165.74C134.151 165.241 134.432 164.789 134.805 164.417C135.177 164.046 135.631 163.765 136.129 163.598C136.628 163.43 137.159 163.379 137.68 163.45V163.45V163.5ZM137.68 162.24C137 162.2 136.319 162.296 135.677 162.522C135.034 162.749 134.444 163.102 133.94 163.56C130.36 167.15 134.31 176.91 142.77 185.37C149.11 191.72 156.19 195.52 160.84 195.52C161.52 195.561 162.201 195.466 162.844 195.239C163.486 195.012 164.077 194.659 164.58 194.2C168.17 190.62 164.21 180.85 155.75 172.39C149.41 166.05 142.34 162.24 137.68 162.24Z" fill="white"/>
<path id="Vector_12" d="M160.84 162.29V163.5C161.362 163.428 161.894 163.477 162.394 163.644C162.894 163.811 163.348 164.091 163.722 164.463C164.096 164.835 164.378 165.288 164.548 165.787C164.718 166.286 164.77 166.818 164.7 167.34C164.629 169.029 164.246 170.69 163.57 172.24C162.674 174.355 161.551 176.367 160.22 178.24C158.636 180.496 156.856 182.608 154.9 184.55C152.114 187.386 148.951 189.825 145.5 191.8C144.135 192.573 142.698 193.212 141.21 193.71C140.073 194.102 138.882 194.318 137.68 194.35C137.158 194.421 136.626 194.37 136.127 194.202C135.627 194.034 135.173 193.752 134.8 193.38C134.428 193.007 134.146 192.553 133.978 192.053C133.81 191.554 133.759 191.022 133.83 190.5C133.9 188.814 134.283 187.156 134.96 185.61C135.853 183.493 136.976 181.481 138.31 179.61C139.893 177.356 141.67 175.245 143.62 173.3C146.4 170.451 149.556 167.995 153 166C154.371 165.231 155.81 164.592 157.3 164.09C158.434 163.701 159.621 163.489 160.82 163.46V162.25L160.84 162.29ZM160.82 162.25C156.17 162.25 149.09 166.06 142.75 172.4C134.29 180.86 130.34 190.63 133.92 194.21C134.424 194.668 135.014 195.021 135.657 195.248C136.299 195.474 136.98 195.57 137.66 195.53C142.32 195.53 149.39 191.72 155.73 185.38C164.19 176.92 168.15 167.16 164.56 163.57C164.057 163.111 163.466 162.757 162.824 162.531C162.181 162.304 161.5 162.209 160.82 162.25V162.25Z" fill="white"/>
<path id="Vector_13" d="M149.26 171C152.015 170.988 154.766 171.223 157.48 171.7C159.753 172.085 161.976 172.718 164.11 173.59C165.683 174.204 167.128 175.106 168.37 176.25C168.789 176.569 169.128 176.981 169.362 177.452C169.595 177.924 169.717 178.444 169.717 178.97C169.717 179.496 169.595 180.016 169.362 180.488C169.128 180.959 168.789 181.371 168.37 181.69C167.128 182.834 165.683 183.736 164.11 184.35C161.978 185.226 159.754 185.86 157.48 186.24C152.04 187.173 146.48 187.173 141.04 186.24C138.766 185.86 136.542 185.226 134.41 184.35C132.837 183.736 131.392 182.834 130.15 181.69C129.731 181.371 129.392 180.959 129.158 180.488C128.925 180.016 128.803 179.496 128.803 178.97C128.803 178.444 128.925 177.924 129.158 177.452C129.392 176.981 129.731 176.569 130.15 176.25C131.392 175.106 132.837 174.204 134.41 173.59C136.544 172.718 138.767 172.085 141.04 171.7C143.754 171.223 146.505 170.989 149.26 171V171ZM149.26 169.79C137.26 169.79 127.6 173.9 127.6 178.97C127.6 184.04 137.3 188.15 149.26 188.15C161.22 188.15 170.93 184.04 170.93 178.97C170.93 173.9 161.23 169.79 149.26 169.79Z" fill="white"/>
<path id="Vector_14" d="M149.26 158.47C149.78 158.503 150.289 158.64 150.756 158.872C151.223 159.103 151.639 159.426 151.98 159.82C153.124 161.062 154.026 162.507 154.64 164.08C155.516 166.212 156.15 168.436 156.53 170.71C157.477 176.149 157.477 181.711 156.53 187.15C156.15 189.424 155.516 191.648 154.64 193.78C154.028 195.337 153.133 196.768 152 198C151.681 198.419 151.269 198.758 150.798 198.992C150.326 199.225 149.806 199.347 149.28 199.347C148.754 199.347 148.234 199.225 147.762 198.992C147.291 198.758 146.879 198.419 146.56 198C145.416 196.758 144.514 195.313 143.9 193.74C143.028 191.606 142.395 189.383 142.01 187.11C141.077 181.67 141.077 176.11 142.01 170.67C142.395 168.397 143.028 166.174 143.9 164.04C144.514 162.467 145.416 161.022 146.56 159.78C147.254 158.99 148.231 158.505 149.28 158.43L149.26 158.47ZM149.28 157.23C144.21 157.23 140.1 166.93 140.1 178.89C140.1 190.85 144.21 200.56 149.28 200.56C154.35 200.56 158.46 190.86 158.46 178.89C158.46 166.92 154.35 157.23 149.28 157.23Z" fill="white"/>
<path id="Vector_15" d="M149.26 173.51C146.97 173.51 144.5 174.08 144.5 175.32V182.54C144.5 183.78 146.97 184.35 149.25 184.35H149.31C149.979 184.351 150.648 184.3 151.31 184.2C153.03 183.91 154.03 183.31 154.03 182.54V175.32C154 174.08 151.55 173.51 149.26 173.51ZM152.74 182.51C152.258 182.868 151.68 183.074 151.08 183.1C150.479 183.202 149.87 183.248 149.26 183.24C147.09 183.24 145.95 182.73 145.79 182.51V181.41C148.07 182.114 150.51 182.114 152.79 181.41L152.74 182.51ZM145.74 176.61C148.02 177.314 150.46 177.314 152.74 176.61V177.7C152.57 177.91 151.44 178.43 149.26 178.43C147.08 178.43 145.95 177.91 145.79 177.7L145.74 176.61ZM145.74 180.1V179C148.02 179.704 150.46 179.704 152.74 179V180.09C152.57 180.3 151.43 180.82 149.26 180.82C147.09 180.82 146 180.32 145.79 180.11L145.74 180.1ZM149.22 174.6C151.34 174.6 152.5 175.09 152.67 175.31C152.5 175.54 151.34 176.03 149.22 176.03C147.1 176.03 145.93 175.54 145.77 175.31C146 175.1 147.15 174.61 149.27 174.61L149.22 174.6Z" fill="white"/>
</g>
<path id="Vector_16" d="M69.08 190.53C72.3702 195.767 77.4798 199.604 83.427 201.304C89.3742 203.003 95.7395 202.444 101.3 199.736C106.861 197.027 111.224 192.359 113.552 186.629C115.881 180.899 116.009 174.51 113.914 168.691C111.818 162.872 107.646 158.032 102.199 155.102C96.7518 152.171 90.4141 151.357 84.4033 152.816C78.3925 154.274 73.1327 157.902 69.6342 163.003C66.1358 168.104 64.6457 174.317 65.45 180.45L60.57 182L63.89 192.18L69.08 190.53ZM70.65 183.61C69.3804 179.718 69.2935 175.537 70.4003 171.595C71.507 167.653 73.7577 164.129 76.8678 161.466C79.9778 158.804 83.8075 157.123 87.8725 156.637C91.9376 156.151 96.0555 156.882 99.7055 158.736C103.355 160.59 106.374 163.485 108.378 167.055C110.383 170.625 111.284 174.709 110.968 178.79C110.651 182.872 109.132 186.768 106.601 189.987C104.07 193.205 100.642 195.6 96.75 196.87C94.1656 197.715 91.4402 198.041 88.7294 197.832C86.0186 197.623 83.3757 196.881 80.9518 195.649C78.5278 194.418 76.3703 192.721 74.6027 190.655C72.835 188.589 71.4919 186.195 70.65 183.61V183.61Z" fill="url(#paint4_linear)"/>
<path id="Vector_17" d="M96.75 196.87C100.642 195.6 104.07 193.205 106.601 189.987C109.132 186.768 110.651 182.872 110.968 178.79C111.284 174.709 110.383 170.625 108.378 167.055C106.374 163.485 103.355 160.59 99.7055 158.736C96.0555 156.882 91.9376 156.151 87.8725 156.637C83.8075 157.123 79.9778 158.804 76.8678 161.466C73.7577 164.129 71.507 167.653 70.4003 171.595C69.2935 175.537 69.3804 179.718 70.65 183.61C72.3548 188.828 76.0615 193.156 80.9555 195.642C85.8495 198.128 91.5305 198.57 96.75 196.87V196.87ZM72.58 183C71.434 179.492 71.3538 175.723 72.3496 172.17C73.3453 168.617 75.3723 165.438 78.1743 163.037C80.9762 160.635 84.4273 159.119 88.0912 158.678C91.7551 158.238 95.4673 158.894 98.7584 160.563C102.05 162.233 104.772 164.84 106.581 168.057C108.39 171.273 109.205 174.954 108.923 178.633C108.64 182.313 107.273 185.826 104.994 188.728C102.716 191.631 99.6273 193.792 96.12 194.94C91.415 196.477 86.2924 196.082 81.8783 193.843C77.4641 191.604 74.1196 187.704 72.58 183V183Z" fill="#A80045"/>
<path id="Vector_18" opacity="0.15" d="M72.58 183C71.434 179.492 71.3538 175.723 72.3496 172.17C73.3453 168.617 75.3723 165.438 78.1743 163.037C80.9762 160.635 84.4273 159.119 88.0912 158.678C91.7551 158.238 95.4673 158.894 98.7584 160.563C102.05 162.233 104.772 164.84 106.581 168.057C108.39 171.273 109.205 174.954 108.923 178.633C108.64 182.313 107.273 185.826 104.994 188.728C102.716 191.631 99.6273 193.792 96.12 194.94C91.415 196.477 86.2924 196.082 81.8783 193.843C77.4641 191.604 74.1196 187.704 72.58 183V183Z" fill="white"/>
<path id="Vector_19" d="M93.31 189.15C90.5279 189.849 87.5892 189.555 85.0006 188.319C82.412 187.083 80.3358 184.983 79.13 182.38L77.13 183.03C77.26 183.34 77.41 183.65 77.56 183.94C79.0242 186.705 81.3468 188.919 84.1782 190.25C87.0097 191.581 90.1968 191.957 93.26 191.32L93.31 189.15Z" fill="#384857"/>
<path id="Vector_20" d="M93.26 191.32C90.1968 191.957 87.0097 191.581 84.1782 190.25C81.3468 188.919 79.0242 186.705 77.56 183.94C77.41 183.65 77.26 183.34 77.13 183.03L79.13 182.38C80.3358 184.983 82.412 187.083 85.0006 188.319C87.5892 189.555 90.5279 189.849 93.31 189.15L93.26 191.32Z" fill="white"/>
<path id="Vector_21" d="M61.531 192.995L58.2054 182.815L55.8385 183.588L59.1641 193.769L61.531 192.995Z" fill="url(#paint5_linear)"/>
<path id="Vector_22" d="M59.1709 193.767L55.8454 183.587L14.3055 197.156L17.631 207.337L59.1709 193.767Z" fill="url(#paint6_linear)"/>
<path id="Vector_23" d="M64.0132 192.578L60.4517 181.675L58.0848 182.448L61.6463 193.351L64.0132 192.578Z" fill="#A80045"/>
<path id="Vector_24" d="M34.7982 202.861L30.8051 190.637L17.2404 195.068L21.2336 207.292L34.7982 202.861Z" fill="#A80045"/>
<path id="Vector_25" d="M36.23 201.26L43.94 198.75L42.77 209.25C42.7018 209.805 42.5178 210.34 42.23 210.82L31.54 227.33L27.16 226.33L35.92 208.82L36.23 201.26Z" fill="#1C468A"/>
<path id="Vector_26" d="M44 198.5L51.6 196L57.7 204.15C58.206 206.233 58.206 208.407 57.7 210.49C56.88 214.19 54.99 226.91 54.99 226.91H50.99L51.84 209.91C51.9276 208.487 51.4899 207.082 50.61 205.96L44 198.5Z" fill="#1C468A"/>
<path id="Vector_27" d="M49.73 227.64V230.35H58.06C58.06 230.35 58.49 229.35 56.7 228.25C54.91 227.15 54.38 227.33 54.38 227.33L49.73 227.64Z" fill="#333333"/>
<path id="Vector_28" d="M26 229.92L26.68 226.34L31.55 227.34C31.55 227.34 33.83 228.7 34.08 229.62C34.33 230.54 34.08 230.36 34.08 230.36L26 229.92Z" fill="#333333"/>
<path id="Vector_29" d="M49.52 177.08L53.46 184.39L49.33 185.71L49.52 177.08Z" fill="#F75C26"/>
<path id="Vector_30" d="M40.61 190.62C40.61 190.62 40.48 191.62 40.44 192.62C40.4 193.62 41.49 194.92 42.68 194.53C43.87 194.14 44.23 192.27 44.12 191.88C44.01 191.49 44.04 190.88 44.39 191.22C44.74 191.56 45.23 192.09 45.25 191.51C45.2472 191.323 45.2037 191.138 45.1224 190.97C45.0412 190.801 44.9242 190.652 44.7795 190.533C44.6349 190.414 44.4661 190.328 44.2848 190.281C44.1036 190.234 43.9143 190.227 43.73 190.26C42.64 190.31 40.61 190.62 40.61 190.62Z" fill="#FFD0C5"/>
<path id="Vector_31" d="M43.32 171.28L44.64 169.63L48.5 170.45L49.5 171.97C49.5 171.97 49.5 173.5 49.95 177.78C50.0117 180.435 49.8209 183.091 49.38 185.71L37.74 189.42C37.9155 187.248 38.216 185.088 38.64 182.95C39.18 180.85 42.43 173.41 42.43 173.41L43.32 171.28Z" fill="url(#paint7_linear)"/>
<path id="Vector_32" d="M45.62 169.84L45.95 168.31L48.19 169.63L47.7 170.6L45.62 169.84Z" fill="#FFD0C5"/>
<path id="Vector_33" d="M44.88 166.2C45.0617 167.171 45.596 168.04 46.38 168.64C47.63 169.53 49.77 170.35 50.47 169.01C50.7513 168.35 51.1787 167.762 51.72 167.29C51.95 167.04 52.21 163.22 51.72 162.7C51.23 162.18 43.89 161.22 44.88 166.2Z" fill="#FFD0C5"/>
<path id="Vector_34" d="M46.13 168.23C46.13 168.23 43.61 165.91 43.51 163.69C43.4837 162.77 43.8028 161.874 44.4044 161.178C45.006 160.483 45.8464 160.037 46.76 159.93C48.3 159.74 49.41 160.3 48.91 159C48.41 157.7 51.91 158.57 52.34 159.93C52.77 161.29 53.93 163.57 50.34 164.06C46.75 164.55 45.8 163.14 45.83 164.18C45.86 165.22 46.2 165.88 45.77 165.88C45.34 165.88 44.89 165.88 45.05 166.57C45.2957 167.19 45.6629 167.754 46.13 168.23V168.23Z" fill="#333333"/>
<path id="Vector_35" d="M40.21 188.42C40.21 188.42 40.44 178.52 41.71 176.82C42.98 175.12 43.93 173.54 43.82 176.44C43.71 179.34 43.25 187.33 43.25 187.33L40.21 188.42Z" fill="#F75C26"/>
<path id="Vector_36" d="M57.65 194.7C57.65 194.7 56.97 194.21 58.17 193.25C59.37 192.29 59.97 191.6 60.89 192.3C61.81 193 62.12 194.37 60.8 194.81C59.48 195.25 58.5 195.31 57.65 194.7Z" fill="#FFD0C5"/>
<path id="Vector_37" d="M43.32 171.28C42.71 171.35 40.61 174.36 40.61 174.36C40.61 174.36 36.48 178.92 36.61 179.66C36.74 180.4 40.52 190.45 40.52 190.45H43.64L42.16 178.37C42.16 178.37 45.49 177.2 45.74 175.1C45.73 175.1 47 170.84 43.32 171.28Z" fill="url(#paint8_linear)"/>
<path id="Vector_38" d="M246.63 187L245.85 187.63C245.85 187.63 243.71 186.86 243.23 189.41C243.23 189.41 243.1 190.49 243.79 190.49C244.48 190.49 244.19 190.38 245.16 190.4C245.58 190.456 246.005 190.359 246.358 190.125C246.711 189.892 246.968 189.538 247.08 189.13L247.55 188.46L246.63 187Z" fill="#FF8E4B"/>
<path id="Vector_39" d="M246.72 188.39C246.553 188.25 246.417 188.078 246.319 187.884C246.221 187.689 246.163 187.477 246.15 187.26C246.15 187.26 253.38 181.34 254.15 180.86C257.087 178.398 259.863 175.749 262.46 172.93C263.69 171.51 265.22 172.06 266.97 172.56L268.41 172.97C268.811 173.111 269.167 173.355 269.443 173.678C269.72 174.001 269.906 174.39 269.984 174.808C270.062 175.225 270.029 175.656 269.888 176.057C269.747 176.457 269.503 176.814 269.18 177.09C265.18 180.42 258.47 184.16 257.18 184.95C254.228 186.595 251.16 188.022 248 189.22C247.522 189.032 247.087 188.749 246.72 188.39V188.39Z" fill="#003B72"/>
<path id="Vector_40" d="M238.47 224.75C237.816 225.162 237.082 225.43 236.317 225.537C235.551 225.644 234.772 225.587 234.03 225.37C234.03 225.37 231.86 224.87 231.39 225.95C231.39 225.95 234.71 227.64 235.55 228.11C236.19 228.479 236.784 228.922 237.32 229.43C237.408 229.509 237.511 229.57 237.623 229.608C237.735 229.646 237.854 229.661 237.972 229.651C238.089 229.642 238.204 229.609 238.309 229.553C238.413 229.498 238.506 229.422 238.58 229.33L239.08 228.69C239.59 227.99 240.78 225.75 240.78 225.75L238.47 224.75Z" fill="#333333"/>
<path id="Vector_41" d="M237.44 224.08C237.733 224.752 238.237 225.311 238.876 225.672C239.514 226.033 240.253 226.176 240.98 226.08C244.049 223.51 246.887 220.676 249.46 217.61C250.509 216.353 251.396 214.969 252.1 213.49C254.38 208.19 260.56 200.29 264.49 196.28L254.66 192.73C254.66 192.73 251.52 199.06 247.33 206.84C244.31 212.45 240.75 218.8 237.44 224.08Z" fill="#163560"/>
<path id="Vector_42" d="M237 178.29C237.024 178.412 237.013 178.539 236.969 178.656C236.925 178.772 236.849 178.874 236.75 178.95L234.31 180.81C234.176 180.913 234.085 181.062 234.054 181.228C234.023 181.394 234.053 181.565 234.14 181.71L235.69 184.16C235.78 184.297 235.917 184.397 236.075 184.441C236.233 184.485 236.402 184.47 236.55 184.4L238.67 183.4C238.803 183.332 238.954 183.312 239.1 183.343C239.246 183.374 239.376 183.454 239.47 183.57C240.468 184.777 241.699 185.77 243.09 186.49C243.222 186.562 243.326 186.676 243.388 186.813C243.449 186.95 243.464 187.104 243.43 187.25L242.96 189.16C242.921 189.322 242.943 189.492 243.023 189.638C243.102 189.784 243.233 189.895 243.39 189.95L246.09 190.95C246.252 191.011 246.432 191.007 246.591 190.941C246.751 190.874 246.88 190.748 246.95 190.59L248.05 188.22C248.103 188.105 248.187 188.007 248.294 187.938C248.4 187.869 248.523 187.832 248.65 187.83C249.024 187.827 249.398 187.803 249.77 187.76C250.447 187.688 251.117 187.554 251.77 187.36C251.903 187.32 252.045 187.321 252.178 187.364C252.31 187.407 252.426 187.489 252.51 187.6L254.2 189.82C254.303 189.951 254.45 190.04 254.615 190.069C254.779 190.099 254.948 190.067 255.09 189.98L257.52 188.43C257.664 188.341 257.769 188.201 257.815 188.038C257.861 187.876 257.845 187.702 257.77 187.55L256.62 185.19C256.556 185.063 256.534 184.919 256.558 184.779C256.581 184.639 256.648 184.509 256.75 184.41C257.615 183.547 258.34 182.556 258.9 181.47C258.969 181.338 259.081 181.233 259.217 181.171C259.352 181.11 259.505 181.095 259.65 181.13L261.92 181.69C262.084 181.73 262.257 181.708 262.407 181.629C262.556 181.55 262.671 181.418 262.73 181.26L263.73 178.53C263.788 178.376 263.785 178.205 263.722 178.053C263.659 177.901 263.54 177.778 263.39 177.71L260.6 176.42C260.485 176.363 260.387 176.277 260.317 176.169C260.247 176.062 260.206 175.938 260.2 175.81C260.2 175.49 260.2 175.16 260.14 174.81C260.072 174.206 259.961 173.608 259.81 173.02C259.776 172.894 259.779 172.76 259.82 172.636C259.861 172.511 259.937 172.401 260.04 172.32L262.59 170.39C262.726 170.288 262.818 170.139 262.847 169.972C262.877 169.804 262.842 169.632 262.75 169.49L261.25 167C261.159 166.861 261.021 166.759 260.861 166.715C260.7 166.671 260.529 166.687 260.38 166.76L257.77 168.04C257.643 168.104 257.499 168.126 257.359 168.102C257.219 168.079 257.089 168.012 256.99 167.91C256.359 167.25 255.651 166.669 254.88 166.18C254.766 166.103 254.678 165.992 254.628 165.864C254.578 165.735 254.568 165.594 254.6 165.46L255.19 163.07C255.23 162.906 255.208 162.733 255.129 162.583C255.05 162.434 254.918 162.319 254.76 162.26L252.05 161.26C251.889 161.204 251.713 161.21 251.556 161.277C251.399 161.343 251.272 161.466 251.2 161.62L250.12 164C250.06 164.118 249.966 164.217 249.85 164.282C249.735 164.348 249.603 164.379 249.47 164.37C248.738 164.3 248.002 164.3 247.27 164.37C246.717 164.433 246.169 164.534 245.63 164.67L243.91 162.41C243.812 162.276 243.666 162.184 243.502 162.155C243.338 162.125 243.169 162.159 243.03 162.25L240.57 163.8C240.431 163.889 240.33 164.026 240.286 164.184C240.242 164.343 240.257 164.512 240.33 164.66L241.12 166.27C241.188 166.403 241.209 166.556 241.18 166.703C241.151 166.849 241.073 166.982 240.96 167.08C240.004 167.888 239.184 168.843 238.53 169.91C238.456 170.031 238.345 170.125 238.214 170.179C238.083 170.233 237.938 170.244 237.8 170.21L234.94 169.51C234.785 169.471 234.621 169.492 234.48 169.568C234.34 169.643 234.233 169.769 234.18 169.92L233.18 172.67C233.124 172.826 233.128 172.997 233.191 173.15C233.253 173.304 233.371 173.428 233.52 173.5L236.42 174.84C236.542 174.897 236.645 174.99 236.714 175.106C236.783 175.221 236.817 175.355 236.81 175.49C236.79 176.094 236.81 176.699 236.87 177.3C236.91 177.65 237 178 237 178.29ZM243.29 179.74C242.508 178.597 242.117 177.232 242.174 175.849C242.232 174.465 242.735 173.138 243.609 172.064C244.483 170.99 245.68 170.227 247.023 169.889C248.366 169.552 249.782 169.657 251.06 170.19C252.116 170.639 253.027 171.373 253.69 172.31C254.489 173.443 254.9 174.804 254.86 176.19C254.82 177.575 254.332 178.911 253.469 179.996C252.606 181.081 251.415 181.856 250.073 182.207C248.732 182.558 247.313 182.464 246.03 181.94C244.933 181.479 243.99 180.716 243.31 179.74H243.29Z" fill="#A80045"/>
<path id="Vector_43" d="M247.33 206.85L249.46 217.62C250.509 216.363 251.396 214.979 252.1 213.5C254.38 208.2 260.56 200.3 264.49 196.29L254.66 192.74C254.66 192.74 251.52 199.07 247.33 206.85Z" fill="#0C3563"/>
<path id="Vector_44" d="M255.36 226.18C255.36 226.18 255.47 228.18 253.08 228.4C253.08 228.4 251.65 228.4 251.64 229.68H258.64C258.802 229.169 258.886 228.636 258.89 228.1C258.751 227.07 258.482 226.062 258.09 225.1L255.36 226.18Z" fill="#333333"/>
<path id="Vector_45" d="M257.89 192.74C254.646 196.719 252.214 201.295 250.73 206.21C249.22 210.93 253.5 222.78 254.34 226.9C255.968 227.029 257.605 226.856 259.17 226.39C259.236 221.348 258.902 216.309 258.17 211.32C257.53 207.65 263.94 203.48 266.74 196.85C268.64 192.33 266.32 192.41 263.48 192.3L257.89 192.74Z" fill="#0D458D"/>
<path id="Vector_46" d="M262.94 171.28C265.37 172.66 270.36 171.39 270.36 171.39C269.734 170.539 269.309 169.556 269.117 168.517C268.925 167.478 268.97 166.409 269.25 165.39L267.34 166.39L265.34 167.39C265.34 167.39 265.21 168.05 265.11 169.23C265.11 169.53 265.09 169.863 265.05 170.23C264.288 170.446 263.572 170.802 262.94 171.28V171.28Z" fill="#FFD0C5"/>
<path id="Vector_47" d="M254 192.49C254 192.92 254.49 193.12 254.6 193.14C256.627 193.781 258.695 194.282 260.79 194.64C262.846 194.818 264.917 194.676 266.93 194.22C267.21 194.16 267.87 193.99 267.93 193.72C267.99 193.45 276.12 177.15 269.8 170.16C268.937 170.146 268.077 170.281 267.26 170.56C266.3 170.786 265.293 170.705 264.38 170.33L263.31 170.89C262 171.62 259.51 174.22 259.22 176.26C259.08 177.26 258.48 178.07 258.31 178.98C258.25 179.32 258.18 179.65 258.12 179.98C257.99 180.61 257.85 181.21 257.72 181.78C257.34 183.32 256.95 184.65 256.57 185.78C256.19 186.91 255.76 188.01 255.4 188.86C254.93 189.96 254.54 190.78 254.29 191.41C254.131 191.75 254.033 192.116 254 192.49V192.49Z" fill="url(#paint9_linear)"/>
<path id="Vector_48" d="M254.28 191.42C261.139 188.16 266.616 182.567 269.73 175.64C269.73 175.64 260.41 179.07 258.11 179.97C257.98 180.6 257.84 181.2 257.71 181.77C257.33 183.31 256.94 184.64 256.56 185.77C256.18 186.9 255.75 188 255.39 188.85C254.92 190 254.53 190.79 254.28 191.42Z" fill="#F75C26"/>
<path id="Vector_49" d="M247.57 188.29L246.57 188.65C246.312 188.458 246.014 188.327 245.698 188.268C245.381 188.208 245.056 188.221 244.746 188.306C244.435 188.391 244.149 188.545 243.907 188.757C243.665 188.969 243.475 189.233 243.35 189.53C243.35 189.53 242.9 190.53 243.61 190.74C244.32 190.95 244.06 190.74 245.05 191.09C245.452 191.28 245.908 191.321 246.338 191.208C246.768 191.094 247.144 190.833 247.4 190.47L248.08 189.97L247.57 188.29Z" fill="#FFB079"/>
<path id="Vector_50" d="M246.75 189.69C246.39 188.69 246.22 188.3 246.22 188.3C246.22 188.3 253.71 182.19 254.47 181.67C257.437 179.524 260.193 177.099 262.7 174.43C263.312 173.695 264.114 173.14 265.018 172.827C265.921 172.513 266.894 172.452 267.83 172.65L269.4 172.98C269.827 173.07 270.22 173.277 270.535 173.578C270.851 173.879 271.076 174.262 271.185 174.684C271.294 175.106 271.283 175.551 271.153 175.967C271.023 176.383 270.78 176.755 270.45 177.04C266.3 180.6 259.3 184.72 258 185.58C254.651 187.513 251.176 189.22 247.6 190.69C247.203 190.473 246.9 190.117 246.75 189.69V189.69Z" fill="url(#paint10_linear)"/>
<path id="Vector_51" d="M265.06 169.2C265.821 169.208 266.575 169.047 267.267 168.729C267.958 168.411 268.571 167.943 269.06 167.36C268.483 167.056 267.922 166.722 267.38 166.36L265.38 167.36C265.38 167.36 265.16 168 265.06 169.2Z" fill="#F7BAAD"/>
<path id="Vector_52" d="M264 166.74C264 166.74 267.63 169.35 269.22 167.06C270.81 164.77 272.34 163.57 270.09 161.81C267.84 160.05 266.78 160.61 266.09 161.24C265.4 161.87 263.14 166 264 166.74Z" fill="#FFD0C5"/>
<path id="Vector_53" d="M265.72 159.18C265.794 158.663 265.939 158.158 266.15 157.68C266.15 157.68 266.37 158.63 268.15 158.5C269.93 158.37 272.6 158.67 273.52 160.63L273.67 161.02C273.785 160.667 273.856 160.301 273.88 159.93C274.059 160.551 274.059 161.209 273.88 161.83V161.83C273.876 161.863 273.876 161.897 273.88 161.93C274.198 162.32 274.436 162.768 274.58 163.25C274.438 162.986 274.208 162.781 273.93 162.67C273.93 164.2 273.32 165.67 272.23 166.14C270.64 166.79 270.66 166.3 269.06 167.36C269.06 167.36 268.63 166.82 268.92 166.47C269.21 166.12 270.32 165.59 269.7 165.07C269.08 164.55 268.85 165.13 268.63 164.78C268.41 164.43 269.54 163.38 268.07 162.4C266.6 161.42 265.59 160.06 265.72 159.18Z" fill="#333333"/>
</g>
<defs>
<linearGradient id="paint0_linear" x1="145.71" y1="217.86" x2="145.71" y2="140" gradientUnits="userSpaceOnUse">
<stop stop-color="#FF6224"/>
<stop offset="1" stop-color="#FF9750"/>
</linearGradient>
<linearGradient id="paint1_linear" x1="42778.1" y1="6071.66" x2="42778.1" y2="5537.59" gradientUnits="userSpaceOnUse">
<stop stop-color="#FF6224"/>
<stop offset="1" stop-color="#FF9750"/>
</linearGradient>
<linearGradient id="paint2_linear" x1="145.45" y1="235.39" x2="145.45" y2="222.59" gradientUnits="userSpaceOnUse">
<stop stop-color="#A80045"/>
<stop offset="1" stop-color="#DC3962"/>
</linearGradient>
<linearGradient id="paint3_linear" x1="-13135.9" y1="13932.4" x2="-16852.4" y2="12356.9" gradientUnits="userSpaceOnUse">
<stop stop-color="#FF6224"/>
<stop offset="1" stop-color="#FF9750"/>
</linearGradient>
<linearGradient id="paint4_linear" x1="-13371" y1="-9077.88" x2="-15876.4" y2="-10213.3" gradientUnits="userSpaceOnUse">
<stop stop-color="#FF6224"/>
<stop offset="1" stop-color="#FF9750"/>
</linearGradient>
<linearGradient id="paint5_linear" x1="-2660.75" y1="1441.53" x2="-2709.33" y2="1476.16" gradientUnits="userSpaceOnUse">
<stop stop-color="#FF6224"/>
<stop offset="1" stop-color="#FF9750"/>
</linearGradient>
<linearGradient id="paint6_linear" x1="59.1697" y1="195.459" x2="14.3097" y2="195.459" gradientUnits="userSpaceOnUse">
<stop stop-color="#A80045"/>
<stop offset="1" stop-color="#F24A37"/>
</linearGradient>
<linearGradient id="paint7_linear" x1="498.361" y1="3722.33" x2="648.317" y2="3722.33" gradientUnits="userSpaceOnUse">
<stop stop-color="#FF6224"/>
<stop offset="1" stop-color="#FF9750"/>
</linearGradient>
<linearGradient id="paint8_linear" x1="383.565" y1="3763.92" x2="561.117" y2="3677.51" gradientUnits="userSpaceOnUse">
<stop stop-color="#FF6224"/>
<stop offset="1" stop-color="#FF9750"/>
</linearGradient>
<linearGradient id="paint9_linear" x1="4878.13" y1="4649.53" x2="5209.09" y2="4649.53" gradientUnits="userSpaceOnUse">
<stop stop-color="#FF6224"/>
<stop offset="1" stop-color="#FF9750"/>
</linearGradient>
<linearGradient id="paint10_linear" x1="6411.39" y1="3469.45" x2="7038.38" y2="3469.45" gradientUnits="userSpaceOnUse">
<stop stop-color="#FF6224"/>
<stop offset="1" stop-color="#FF9750"/>
</linearGradient>
</defs>
</svg>
