
<svg width="293" height="253" viewBox="0 0 293 253" fill="none" xmlns="http://www.w3.org/2000/svg">
	<style>
				.float
		{
			animation: floatr 4s ease-in-out infinite;
		}

		@keyframes floatr
		{
			0%{ transform: translateY(0vh); }
			50%{ transform: translateY(2vh); }
			100%{ transform: translateY(0vh); }
		}

			.floatinv
		{
			animation: floatinvr 4s ease-in-out infinite;
		}

		@keyframes floatinvr
		{
			0%{ transform: translateY(0vh); }
			50%{ transform: translateY(-2vh); }
			100%{ transform: translateY(0vh); }
		}

			.scaley
		{
			animation: scaleyr 4s ease-in-out infinite;
			transform-origin: 57% 69.2%;
			transform: scaleY(0.98);

		}

		@keyframes scaleyr
		{
			0%{ transform: scaleY(0.98); }
			50%{ transform: scaleY(1.04); }
			100%{ transform: scaleY(0.98);  }
		}
	</style>
<g id="Layer 1">
<path id="Vector_2" d="M218.82 136.14V222.59H72.6V136.14C72.6 134.972 73.0633 133.852 73.8881 133.025C74.713 132.198 75.8321 131.733 77 131.73H214.4C214.98 131.729 215.555 131.842 216.091 132.063C216.627 132.284 217.114 132.608 217.525 133.018C217.935 133.428 218.261 133.914 218.483 134.45C218.706 134.986 218.82 135.56 218.82 136.14V136.14Z" fill="#A80045"/>
<path id="Vector_3" d="M83 140H208.37C209.54 140 210.661 140.465 211.488 141.292C212.315 142.119 212.78 143.24 212.78 144.41V213.79C212.78 214.872 212.35 215.91 211.585 216.675C210.82 217.44 209.782 217.87 208.7 217.87H82.7C81.6179 217.87 80.5801 217.44 79.815 216.675C79.0498 215.91 78.62 214.872 78.62 213.79V144.41C78.62 143.246 79.0805 142.128 79.901 141.302C80.7216 140.476 81.8356 140.008 83 140Z" fill="url(#paint0_linear)"/>
<path id="Vector_4" d="M292.5 229.69H0V252.8H292.5V229.69Z" fill="#FF9750"/>
<path id="Vector_5" d="M222.6 222.59H68.3C64.7654 222.59 61.9 225.453 61.9 228.985C61.9 232.517 64.7654 235.38 68.3 235.38H222.6C226.135 235.38 229 232.517 229 228.985C229 225.453 226.135 222.59 222.6 222.59Z" fill="url(#paint1_linear)"/>
<path id="Vector_6" d="M241 188.35C240.066 188.594 239.091 188.635 238.14 188.47C237.572 188.348 236.985 188.34 236.413 188.447C235.841 188.553 235.297 188.772 234.81 189.09C234.5 189.49 234.61 189.66 235.16 189.8C235.71 189.94 237.66 190.8 238.94 190.29C239.892 189.975 240.887 189.806 241.89 189.79L241 188.35Z" fill="#FFD0C5"/>
<path id="Vector_7" d="M256.12 173.16C256.12 173.16 254.12 187.16 250.9 188.38C247.36 189.369 243.749 190.088 240.1 190.53C240.1 190.53 239.59 190.12 239.71 188.42C239.71 188.42 247.14 185.69 248.2 184.21C249.77 182 247.2 175.21 249.2 173.11C251.2 171.01 254.49 170.14 256.12 173.16Z" fill="url(#paint2_linear)"/>
<path id="Vector_8" d="M255.87 227V224H260.66C260.724 224 260.785 223.975 260.83 223.93C260.875 223.885 260.9 223.824 260.9 223.76V223.27C260.9 223.239 260.894 223.208 260.882 223.18C260.869 223.151 260.852 223.125 260.829 223.104C260.807 223.082 260.78 223.066 260.751 223.055C260.722 223.044 260.691 223.039 260.66 223.04H255.87V205.63C255.867 205.396 255.772 205.172 255.606 205.007C255.439 204.842 255.214 204.75 254.98 204.75H254C253.767 204.753 253.545 204.846 253.381 205.011C253.216 205.175 253.123 205.397 253.12 205.63V223H248.33C248.299 222.999 248.268 223.004 248.239 223.015C248.21 223.026 248.183 223.042 248.161 223.064C248.138 223.085 248.121 223.111 248.108 223.14C248.096 223.168 248.09 223.199 248.09 223.23V223.72C248.09 223.784 248.115 223.845 248.16 223.89C248.205 223.935 248.266 223.96 248.33 223.96H253.12V226.96C249.65 227.22 246.87 228.47 246.12 230.09H262.89C262.11 228.48 259.34 227.23 255.87 227Z" fill="#A80045"/>
<path id="Vector_9" d="M255.46 202.58C254.883 203.539 254.241 204.458 253.54 205.33C251.42 208 249.13 210.19 248.72 212.27C248.637 212.724 248.513 213.169 248.35 213.6C248.174 214.111 247.971 214.612 247.74 215.1C246.701 217.221 245.508 219.263 244.17 221.21C241.85 224.63 239.68 227.49 239.68 227.49L235.68 227.32C235.84 226.92 237.58 222.19 239.91 216.41C240.85 214.06 241.91 211.56 242.83 209.15L243.21 208.15C243.51 207.42 243.8 206.69 244.09 205.99C246.27 200.55 248.01 196.23 248.01 196.23C248.01 196.23 256.75 192.92 257.65 195.07C258.41 196.87 257.8 198.61 255.46 202.58Z" fill="#163560"/>
<path id="Vector_10" d="M239.55 226.77C239.55 226.77 239.35 230.06 238.71 230.11H235.48H231.48C231.508 229.804 231.644 229.518 231.864 229.304C232.084 229.089 232.373 228.96 232.68 228.94C233.471 228.818 234.226 228.524 234.892 228.078C235.557 227.632 236.116 227.046 236.53 226.36C237.26 224.71 239.55 226.77 239.55 226.77Z" fill="#163560"/>
<path id="Vector_11" d="M248.79 217.37C248.79 217.37 251.57 219.15 251.3 219.73L249.73 222.55L247.73 226.04C247.478 225.867 247.295 225.611 247.215 225.316C247.134 225.021 247.161 224.707 247.29 224.43C247.57 223.679 247.681 222.876 247.616 222.078C247.55 221.279 247.309 220.505 246.91 219.81C245.87 218.36 248.79 217.37 248.79 217.37Z" fill="#163560"/>
<path id="Vector_12" d="M245 194.7C245 194.7 234 201.53 232.81 206.12C231.62 210.71 247.39 220.5 247.39 220.5C248.235 219.766 248.916 218.863 249.39 217.85C249.39 217.85 242.25 209.29 240.7 207.37C239.75 206.19 254.77 203.29 256.61 200.43C257.145 199.675 257.524 198.821 257.727 197.918C257.929 197.015 257.951 196.081 257.79 195.17L245 194.7Z" fill="#1C468A"/>
<path id="Vector_13" d="M265.72 203.47H243.29C242.837 203.47 242.47 203.837 242.47 204.29V208.77C242.47 209.223 242.837 209.59 243.29 209.59H265.72C266.173 209.59 266.54 209.223 266.54 208.77V204.29C266.54 203.837 266.173 203.47 265.72 203.47Z" fill="url(#paint3_linear)"/>
<path id="Vector_14" d="M250.11 170.77C249.463 171.163 248.896 171.676 248.44 172.28C251.06 172.96 255.44 170.52 255.44 170.52C254.272 169.613 253.453 168.331 253.12 166.89L253.03 166.51C252.945 166.058 252.898 165.6 252.89 165.14L251.68 166.22L249.68 168.02C249.737 168.692 249.837 169.36 249.98 170.02C249.993 170.26 250.037 170.51 250.11 170.77Z" fill="#FFD0C5"/>
<path id="Vector_15" d="M258.19 183.16C257.81 188.22 258.44 195.91 258.02 197.24C257.65 198.39 253.31 197.71 251.64 197.33C251.02 197.19 250.27 196.98 249.49 196.74C247.33 196.07 244.97 195.12 244.72 194.41V194.32C244.695 194.225 244.695 194.125 244.72 194.03C244.958 193.509 245.107 192.951 245.16 192.38C245.21 191.38 245.16 190.2 245.24 188.93C245.23 188.783 245.23 188.637 245.24 188.49V188.36C245.24 186.94 245.35 185.46 245.44 183.98C245.49 183.06 245.55 182.14 245.63 181.26C245.745 179.393 246.006 177.537 246.41 175.71C246.9 173.981 247.896 172.438 249.27 171.28L250.07 170.6C251.053 170.784 252.07 170.647 252.97 170.21C253.97 169.72 254.36 169.37 254.54 169.5C256.92 171.34 258.63 177 258.19 183.16Z" fill="url(#paint4_linear)"/>
<path id="Vector_16" opacity="0.5" d="M249.5 196.75C247.34 196.08 244.98 195.13 244.73 194.42C244.725 194.39 244.725 194.36 244.73 194.33V194C244.969 193.478 245.121 192.921 245.18 192.35C245.18 191.35 245.18 190.17 245.25 188.9C245.25 188.76 245.25 188.6 245.25 188.46V188.33L253.43 184.62C253.556 188.995 252.168 193.28 249.5 196.75V196.75Z" fill="#A80045"/>
<path id="Vector_17" d="M249.66 168C249.717 168.672 249.817 169.34 249.96 170C250.679 169.729 251.331 169.306 251.873 168.761C252.415 168.216 252.833 167.561 253.1 166.84C253.18 166.63 253.22 166.5 253.22 166.5H253.01L251.66 166.21L249.66 168Z" fill="#F7BAAD"/>
<path id="Vector_18" d="M248.87 168C248.87 168 253.17 168.48 253.43 165.8C253.69 163.12 254.43 161.37 251.69 160.94C248.95 160.51 248.31 161.49 248.01 162.37C247.71 163.25 247.75 167.8 248.87 168Z" fill="#FFD0C5"/>
<path id="Vector_19" d="M253.41 166C253.294 164.953 252.809 163.982 252.041 163.261C251.272 162.541 250.272 162.118 249.22 162.07C246.54 161.82 248.03 159.51 248.32 159.14C248.32 159.14 250.38 159.42 252.48 159.77C256.91 160.48 253.85 165.43 253.41 166Z" fill="#163560"/>
<path id="Vector_20" d="M229.374 181.992L228.993 182.116L232.198 191.978L232.578 191.855L229.374 181.992Z" fill="#4A75CB"/>
<path id="Vector_21" d="M243.056 191.111L232.169 191.343L232.182 191.993L243.07 191.761L243.056 191.111Z" fill="#4A75CB"/>
<path id="Vector_22" d="M241.9 190.5C240.999 190.846 240.033 190.992 239.07 190.93C237.897 190.823 236.73 191.183 235.82 191.93C235.56 192.36 235.69 192.51 236.26 192.59C236.83 192.67 238.85 193.28 240.06 192.66C240.974 192.246 241.945 191.97 242.94 191.84L241.9 190.5Z" fill="#FFD0C5"/>
<path id="Vector_23" d="M255.25 173.73C255.25 173.73 254.84 187.83 251.74 189.43C248.334 190.811 244.827 191.927 241.25 192.77C241.25 192.77 240.69 192.41 240.63 190.71C240.63 190.71 247.71 187.18 248.63 185.58C249.95 183.22 246.63 176.72 248.4 174.44C250.17 172.16 253.3 170.91 255.25 173.73Z" fill="url(#paint5_linear)"/>
<path id="Vector_24" d="M34.23 221.43L35.33 226.09H36.99L37.05 221.43H34.23Z" fill="#FFB27D"/>
<path id="Vector_25" d="M48.18 221.63L51.33 226.09L52.56 224.52L50.66 221.01L48.18 221.63Z" fill="#FFB27D"/>
<path id="Vector_26" d="M40 160.14C39.4625 159.868 38.8603 159.75 38.26 159.8C38.3682 159.715 38.495 159.657 38.63 159.63C38.2842 159.652 37.9453 159.736 37.63 159.88C33.49 158.29 32.84 164.38 32.93 165.8C33.02 167.22 31.54 167.68 29.38 168.8C25.27 170.93 24.91 173.8 24.91 173.8L25.01 173.87C25.22 173.52 25.64 172.87 26.01 172.78C26.01 172.78 25.59 173.67 25.44 174.16C26.65 175.09 28.92 177.16 30.5 178.58C30.4828 178.276 30.5201 177.971 30.61 177.68L30.81 178.86L32.24 180.18C32.13 179.04 37.41 173 40.17 171.18C40.6613 170.293 40.9738 169.318 41.09 168.31C41.0609 169.2 40.8712 170.077 40.53 170.9C42.86 168.74 41.51 161 40 160.14Z" fill="#333333"/>
<path id="Vector_27" d="M40 171.25C39.2841 171.634 38.4658 171.785 37.66 171.68C36.9752 171.386 36.4207 170.853 36.1 170.18C36.51 170.1 36.62 169.55 36.61 167.18H36.8L39.86 167.79C39.86 167.79 39.79 168.79 39.79 169.66C39.78 170.44 39.83 171.17 40 171.25Z" fill="#FFD0C5"/>
<path id="Vector_28" d="M36.54 161.13C36.9878 160.678 37.5931 160.418 38.2289 160.403C38.8647 160.388 39.4815 160.62 39.95 161.05C38.8146 160.931 37.6686 160.958 36.54 161.13V161.13Z" fill="#E37970"/>
<path id="Vector_29" d="M39.86 167.81C39.86 167.81 39.79 168.81 39.79 169.68C38.07 169.63 37.17 168.07 36.79 167.2L39.86 167.81Z" fill="#F7BAAD"/>
<path id="Vector_30" d="M36.46 166.69C35.9496 165.876 35.5747 164.984 35.35 164.05C35.19 163.19 35.63 159.98 38.86 160.44C39.5108 160.53 40.1329 160.766 40.68 161.13C41.38 161.6 42.39 162.62 41.26 165.42L40.96 166.42L36.46 166.69Z" fill="#333333"/>
<path id="Vector_31" d="M52.06 223.29L50.44 223.34L48.68 223.4C45.8267 219.928 43.6767 215.934 42.35 211.64C42.29 211.47 42.24 211.3 42.18 211.13C40.93 207.5 38.35 202.94 36.99 198.81C36.77 198.15 36.58 197.54 36.41 196.95C36.35 196.76 36.3 196.58 36.24 196.4C35.4613 193.715 34.939 190.963 34.68 188.18L44.51 188.26C45.8719 200.156 48.4008 211.889 52.06 223.29V223.29Z" fill="#1C468A"/>
<path id="Vector_32" d="M32.18 185.35C32.8088 184.13 33.2087 182.804 33.36 181.44C33.5792 180.145 33.6196 178.826 33.48 177.52C33.2848 175.434 32.8794 173.374 32.27 171.37C33.6624 171.005 35.0288 170.548 36.36 170C36.9526 170.53 37.7255 170.812 38.52 170.79C39.52 170.79 39.82 170.35 39.79 169.88C40.85 170.47 41.69 171.03 41.69 171.03C42.59 172.6 44.42 174.12 44.56 176.52C44.56 177.11 43.13 182.52 43.13 182.61C43.0189 184.862 43.2516 187.118 43.82 189.3C40.9163 190.584 37.6479 190.783 34.61 189.86L30.97 188.86" fill="#E7F1FD"/>
<path id="Vector_33" d="M34.68 183.13C34.25 183.74 33.43 187.44 31.38 187.9C32.44 185.27 33.24 184.11 33.38 183.3C33.5993 181.793 33.6396 180.266 33.5 178.75C34.19 177.55 34.7 176.75 34.7 176.75C34.76 176.55 35.79 173.35 36.12 176.21C36.2816 178.605 35.7835 180.998 34.68 183.13V183.13Z" fill="#5F9AA8"/>
<path id="Vector_34" d="M40.43 168.67C40.43 168.67 36.43 168.74 36.37 166.21C36.31 163.68 35.85 162 38.43 161.85C41.01 161.7 41.53 162.66 41.73 163.5C41.93 164.34 41.48 168.59 40.43 168.67Z" fill="#FFD0C5"/>
<path id="Vector_35" d="M41.61 162.1C40.99 161.34 40.51 161.51 40.25 161.73C39.37 160.42 36.6 162.32 36.6 162.32C36.4133 163.427 35.8477 164.434 35 165.17C35.7846 165.476 36.6554 165.476 37.44 165.17C38.78 164.83 39.75 162.92 40.1 162.17C40.4927 162.49 40.8044 162.897 41.01 163.36C41.21 164 41.3 165.36 41.68 165.28C41.71 165.25 42.55 163.24 41.61 162.1Z" fill="#333333"/>
<path id="Vector_36" d="M35.28 225.83C35.3464 226.478 35.2748 227.132 35.07 227.75C35.07 227.75 34.8 229 36 229C37.2 229 37.52 228.9 37.38 228.15C37.24 227.4 36.98 226.08 36.98 226.08L35.28 225.83Z" fill="#FFB27D"/>
<path id="Vector_37" d="M37.51 229.61H35C34.9387 228.989 34.969 228.362 35.09 227.75C36.47 229.07 37.33 227.75 37.33 227.75C37.4698 228.36 37.5302 228.985 37.51 229.61Z" fill="#333333"/>
<path id="Vector_38" d="M55.5 228.34C54.4264 227.142 53.4437 225.865 52.56 224.52L50.89 225.37L54.62 228.88L55.5 228.77V228.34Z" fill="#FFB27D"/>
<path id="Vector_39" d="M56.87 229.61H53.76C53.3981 229.194 53.1075 228.721 52.9 228.21C52.7911 228.031 52.6458 227.877 52.4735 227.758C52.3012 227.64 52.1058 227.558 51.9 227.52V229.61H51.26L50.66 227.38C50.5197 227.058 50.4626 226.706 50.4941 226.357C50.5255 226.007 50.6445 225.671 50.84 225.38C51.17 225.38 52.11 225.61 53.77 227.52C53.978 227.784 54.2442 227.996 54.5478 228.14C54.8513 228.284 55.1841 228.356 55.52 228.35V228.35C55.8205 228.454 56.0958 228.62 56.3283 228.837C56.5608 229.054 56.7453 229.317 56.87 229.61Z" fill="#333333"/>
<path id="Vector_40" d="M56.72 172.86C56.72 172.86 54.06 174.35 53.11 174.78C52.77 174.93 52.11 175.21 51.54 175.51L50.44 176.02C50.1688 176.147 49.8636 176.181 49.5711 176.118C49.2785 176.055 49.0147 175.897 48.82 175.67C47.38 173.99 43.65 170.34 39.82 169.88C40.03 170.42 42.14 175.69 42.21 176.81C42.28 177.93 42.48 195.98 42.48 195.98C42.48 195.98 42.35 196.81 43.93 196.46C44.6372 196.371 45.3182 196.136 45.93 195.77C45.93 195.77 44.41 184.67 44.83 180.77C44.8979 179.937 44.844 179.098 44.67 178.28C46.2715 179.182 47.9916 179.855 49.78 180.28C50.6791 179.908 51.5541 179.481 52.4 179C53.1877 178.465 53.9302 177.866 54.62 177.21C55.5204 176.291 56.3652 175.319 57.15 174.3L56.72 172.86Z" fill="url(#paint6_linear)"/>
<path id="Vector_41" d="M50.44 223.34L48.68 223.4C45.8267 219.928 43.6767 215.934 42.35 211.64C42.29 211.47 42.24 211.3 42.18 211.13C40.93 207.5 38.35 202.94 36.99 198.81C36.77 198.15 36.58 197.54 36.41 196.95C36.35 196.76 36.3 196.58 36.24 196.4L37.69 195.3C37.69 195.3 42.03 202.3 43.38 208.95C44.55 214.7 49.23 221.62 50.44 223.34Z" fill="#0A3575"/>
<path id="Vector_42" d="M37.84 209.57C37.84 212.79 37.7 220.19 37.28 223.25H34.44C33.44 217.92 32.64 213.52 32.09 209.72C31.65 206.6 31.25 203.93 30.94 201.63C30.63 199.33 30.42 197.37 30.35 195.74V194.98V194.27L38.84 193.44C38.7 199.07 37.83 207.7 37.84 209.57Z" fill="#1C468A"/>
<path id="Vector_43" d="M35.73 223.25H34.44C33.44 217.92 32.64 213.52 32.09 209.72C31.65 206.6 31.25 203.93 30.94 201.63C30.63 199.33 30.42 197.37 30.35 195.74L33.46 197.57C33.46 197.57 31.46 198.27 32.23 203.57C33 208.87 34.67 222.5 35.73 223.25Z" fill="#0A3575"/>
<path id="Vector_44" d="M36.13 195.67C35.9789 196.249 35.6282 196.756 35.1398 197.102C34.6513 197.448 34.0564 197.61 33.46 197.56C31.745 197.229 30.0693 196.719 28.46 196.04C28.46 196.04 29.35 193.25 30.46 189.58C31.8 185.13 33.46 179.41 34.22 175.79C34.4093 174.979 34.5495 174.158 34.64 173.33L36.36 170C36.36 170 38.89 175.74 39.03 177.19C39.17 178.64 36.13 195.67 36.13 195.67Z" fill="url(#paint7_linear)"/>
<path id="Vector_45" d="M43.52 178.81C43.1457 178.815 42.7863 178.958 42.5098 179.21C42.2334 179.463 42.0591 179.808 42.02 180.18C41.9341 180.537 41.7851 180.876 41.58 181.18L36.25 181.48L36.08 184.09C38.0945 183.834 40.0779 183.375 42 182.72C42.2545 182.657 42.4886 182.529 42.68 182.35C43.7319 181.446 44.5081 180.264 44.92 178.94C44.94 178.66 44.51 178.68 43.52 178.81Z" fill="#FFD0C5"/>
<path id="Vector_46" opacity="0.5" d="M36 180.23C35.9 182.57 35.35 187.12 30.43 189.56C31.77 185.11 33.43 179.39 34.19 175.77C35.09 177.14 36.09 178.93 36 180.23Z" fill="#A80045"/>
<path id="Vector_47" d="M36.36 170C36.36 170 32.16 170.3 31.14 172.55C30.12 174.8 29.81 182.3 31.14 184.5C32.7637 184.823 34.4377 184.796 36.05 184.42H36.16C36.16 184.42 37.16 181.97 36.26 181.49C36.26 181.49 33.62 181.63 33.9 180.75C34.18 179.87 36.36 170 36.36 170Z" fill="url(#paint8_linear)"/>
<path id="Vector_48" d="M59.58 171.09C58.9723 170.989 58.3484 171.113 57.8256 171.438C57.3027 171.764 56.9167 172.27 56.74 172.86L57.16 174.27C57.5257 174.337 57.9031 174.287 58.2387 174.127C58.5744 173.967 58.8512 173.706 59.03 173.38C59.6 172.58 59.75 172.89 60.11 172.29C60.59 171.48 59.83 171.17 59.58 171.09Z" fill="#FFD0C5"/>
<path id="Vector_49" d="M53.11 174.78C52.77 174.93 52.11 175.21 51.54 175.51C52.0854 176.594 52.3794 177.787 52.4 179C53.2217 178.459 53.9887 177.84 54.69 177.15C55.5672 176.251 56.3887 175.299 57.15 174.3L56.72 172.89C56.72 172.89 54.06 174.35 53.11 174.78Z" fill="#FFD0C5"/>
<path id="Vector_50" d="M203.38 111.03H149.13V177.35H203.38V111.03Z" fill="url(#paint9_linear)"/>
<path id="Vector_51" d="M198.58 115.89H152.65V146.18H198.58V115.89Z" fill="#F3F9FF"/>
<path id="Vector_52" d="M196.71 153.96H172.65V170.13H196.71V153.96Z" fill="#F3F9FF"/>
<g id="water">
<path id="Vector_53" d="M154.5 131.35C154.5 131.35 162.28 130.35 167.04 134.7C171.8 139.05 180.64 135.08 184.21 134.7C190.41 134.04 195.27 136.03 196.71 138.23V144.81H154.5V131.35Z" fill="#DD3A60"/>
</g>
<path id="Vector_54" d="M160.76 120.76H160.44V131.04H160.76V120.76Z" fill="#A80045"/>
<path id="Vector_55" d="M173.34 125.17H173.02V135.45H173.34V125.17Z" fill="#A80045"/>
<path id="Vector_56" d="M186.33 122.84H186.01V133.12H186.33V122.84Z" fill="#A80045"/>
<path id="Vector_57" d="M164.34 122.33H161.88C161.81 122.33 161.743 122.303 161.693 122.254C161.642 122.206 161.613 122.14 161.61 122.07C161.61 121.998 161.638 121.93 161.689 121.879C161.74 121.828 161.808 121.8 161.88 121.8H164.34C164.41 121.803 164.476 121.832 164.524 121.883C164.573 121.933 164.6 122 164.6 122.07V122.07C164.6 122.139 164.573 122.205 164.524 122.254C164.475 122.303 164.409 122.33 164.34 122.33V122.33Z" fill="#A80045"/>
<path id="Vector_58" d="M164.34 123.3H161.88C161.808 123.3 161.74 123.272 161.689 123.221C161.638 123.17 161.61 123.102 161.61 123.03V123.03C161.61 122.958 161.638 122.89 161.689 122.839C161.74 122.788 161.808 122.76 161.88 122.76H164.34C164.41 122.763 164.476 122.792 164.524 122.843C164.573 122.893 164.6 122.96 164.6 123.03V123.03C164.6 123.1 164.573 123.167 164.524 123.217C164.476 123.268 164.41 123.297 164.34 123.3V123.3Z" fill="#A80045"/>
<path id="Vector_59" d="M176.74 127.57H174.28C174.208 127.57 174.14 127.542 174.089 127.491C174.038 127.44 174.01 127.372 174.01 127.3V127.3C174.013 127.23 174.042 127.164 174.093 127.116C174.143 127.067 174.21 127.04 174.28 127.04H176.74C176.774 127.04 176.808 127.047 176.839 127.06C176.871 127.073 176.9 127.092 176.924 127.116C176.948 127.14 176.967 127.169 176.98 127.201C176.993 127.232 177 127.266 177 127.3V127.3C177 127.37 176.973 127.437 176.924 127.487C176.876 127.538 176.81 127.567 176.74 127.57Z" fill="#A80045"/>
<path id="Vector_60" d="M176.74 128.51H174.28C174.21 128.51 174.143 128.483 174.093 128.434C174.042 128.386 174.013 128.32 174.01 128.25V128.25C174.01 128.178 174.038 128.11 174.089 128.059C174.14 128.008 174.208 127.98 174.28 127.98H176.74C176.81 127.983 176.876 128.012 176.924 128.063C176.973 128.113 177 128.18 177 128.25V128.25C177 128.319 176.973 128.385 176.924 128.434C176.875 128.483 176.809 128.51 176.74 128.51V128.51Z" fill="#A80045"/>
<path id="Vector_61" d="M189.94 123.7H187.48C187.408 123.7 187.34 123.672 187.289 123.621C187.238 123.57 187.21 123.502 187.21 123.43V123.43C187.21 123.358 187.238 123.29 187.289 123.239C187.34 123.188 187.408 123.16 187.48 123.16H189.94C190.012 123.16 190.08 123.188 190.131 123.239C190.182 123.29 190.21 123.358 190.21 123.43V123.43C190.21 123.502 190.182 123.57 190.131 123.621C190.08 123.672 190.012 123.7 189.94 123.7Z" fill="#A80045"/>
<path id="Vector_62" d="M189.94 124.64H187.48C187.408 124.64 187.34 124.612 187.289 124.561C187.238 124.51 187.21 124.442 187.21 124.37V124.37C187.21 124.298 187.238 124.23 187.289 124.179C187.34 124.128 187.408 124.1 187.48 124.1H189.94C190.012 124.1 190.08 124.128 190.131 124.179C190.182 124.23 190.21 124.298 190.21 124.37C190.21 124.442 190.182 124.51 190.131 124.561C190.08 124.612 190.012 124.64 189.94 124.64V124.64Z" fill="#A80045"/>
<path id="Vector_63" d="M195.67 169H173.59V155.96H173.86V168.73H195.67V169Z" fill="#A80045"/>
<path id="Vector_64" d="M180.49 164.29C177.79 162.13 174.91 164.29 174.91 164.29V168H195.13V158.49C189.63 158.59 183.2 166.44 180.49 164.29Z" fill="#DD3A60"/>
<path id="Vector_65" d="M175.15 157H184.56C184.621 157 184.68 156.976 184.723 156.933C184.766 156.889 184.79 156.831 184.79 156.77C184.79 156.709 184.766 156.65 184.723 156.607C184.68 156.564 184.621 156.54 184.56 156.54H175.15C175.089 156.54 175.03 156.564 174.987 156.607C174.944 156.65 174.92 156.709 174.92 156.77C174.92 156.831 174.944 156.889 174.987 156.933C175.03 156.976 175.089 157 175.15 157Z" fill="#A80045"/>
<path id="Vector_66" d="M175.15 158.08H184.56C184.621 158.08 184.68 158.056 184.723 158.013C184.766 157.97 184.79 157.911 184.79 157.85C184.79 157.789 184.766 157.73 184.723 157.687C184.68 157.644 184.621 157.62 184.56 157.62H175.15C175.089 157.62 175.03 157.644 174.987 157.687C174.944 157.73 174.92 157.789 174.92 157.85C174.92 157.911 174.944 157.97 174.987 158.013C175.03 158.056 175.089 158.08 175.15 158.08Z" fill="#A80045"/>
<path id="Vector_67" d="M181.33 158.69H175.1C174.995 158.69 174.91 158.775 174.91 158.88V158.96C174.91 159.065 174.995 159.15 175.1 159.15H181.33C181.435 159.15 181.52 159.065 181.52 158.96V158.88C181.52 158.775 181.435 158.69 181.33 158.69Z" fill="#A80045"/>
<path id="Vector_68" d="M141.47 96.76H88.03V177.35H141.47V96.76Z" fill="url(#paint10_linear)"/>
<path id="Vector_69" d="M136.22 101.27H93.2V149.23H136.22V101.27Z" fill="#F3F9FF"/>
<path id="Vector_70" d="M109.017 167.416C110.615 163.451 108.695 158.942 104.73 157.345C100.765 155.748 96.2558 157.667 94.6586 161.632C93.0615 165.598 94.981 170.107 98.9461 171.704C102.911 173.301 107.42 171.381 109.017 167.416Z" fill="#F3F9FF"/>
<path id="Vector_71" d="M108.39 164.54C108.388 163.247 108.003 161.983 107.283 160.909C106.563 159.835 105.541 158.998 104.346 158.505C103.151 158.011 101.836 157.883 100.568 158.137C99.3 158.39 98.1356 159.014 97.222 159.929C96.3084 160.844 95.6865 162.009 95.4349 163.278C95.1834 164.546 95.3135 165.861 95.8088 167.055C96.3041 168.249 97.1423 169.27 98.2176 169.988C99.2929 170.707 100.557 171.09 101.85 171.09C103.297 171.102 104.706 170.627 105.85 169.74L101.85 164.54L107.96 166.88C108.247 166.133 108.392 165.34 108.39 164.54V164.54Z" fill="#A80045"/>
<path id="Vector_72" d="M135.734 166.313C136.716 162.153 134.139 157.984 129.979 157.002C125.819 156.02 121.65 158.597 120.668 162.757C119.686 166.917 122.263 171.086 126.423 172.068C130.584 173.05 134.752 170.473 135.734 166.313Z" fill="#F3F9FF"/>
<path id="Vector_73" d="M128.21 158C126.921 158 125.66 158.381 124.586 159.095C123.513 159.809 122.674 160.825 122.176 162.014C121.678 163.204 121.543 164.514 121.787 165.78C122.032 167.046 122.645 168.211 123.55 169.13L128.21 164.54L134.32 166.88C134.697 165.889 134.828 164.822 134.702 163.769C134.575 162.717 134.195 161.711 133.595 160.837C132.994 159.964 132.19 159.249 131.252 158.755C130.314 158.261 129.27 158.002 128.21 158Z" fill="#DD3A60"/>
<path id="Vector_74" d="M127.26 161.22H124.47C124.417 161.22 124.366 161.241 124.329 161.279C124.291 161.316 124.27 161.367 124.27 161.42V161.42C124.27 161.473 124.291 161.524 124.329 161.561C124.366 161.599 124.417 161.62 124.47 161.62H127.26C127.311 161.617 127.36 161.595 127.395 161.558C127.43 161.521 127.45 161.471 127.45 161.42C127.45 161.369 127.43 161.319 127.395 161.282C127.36 161.245 127.311 161.223 127.26 161.22V161.22Z" fill="#F3F9FF"/>
<path id="Vector_75" d="M127.26 161.85H124.47C124.417 161.85 124.366 161.871 124.329 161.909C124.291 161.946 124.27 161.997 124.27 162.05C124.27 162.103 124.291 162.154 124.329 162.191C124.366 162.229 124.417 162.25 124.47 162.25H127.26C127.313 162.25 127.364 162.229 127.401 162.191C127.439 162.154 127.46 162.103 127.46 162.05C127.46 161.997 127.439 161.946 127.401 161.909C127.364 161.871 127.313 161.85 127.26 161.85Z" fill="#F3F9FF"/>
<path id="Vector_76" d="M125.62 162.48H124.47C124.417 162.48 124.366 162.501 124.329 162.539C124.291 162.576 124.27 162.627 124.27 162.68C124.27 162.733 124.291 162.784 124.329 162.821C124.366 162.859 124.417 162.88 124.47 162.88H125.62C125.673 162.88 125.724 162.859 125.761 162.821C125.799 162.784 125.82 162.733 125.82 162.68C125.82 162.627 125.799 162.576 125.761 162.539C125.724 162.501 125.673 162.48 125.62 162.48V162.48Z" fill="#F3F9FF"/>
<path id="Vector_77" d="M100.84 161.22H98.05C97.997 161.22 97.9461 161.241 97.9086 161.279C97.8711 161.316 97.85 161.367 97.85 161.42V161.42C97.85 161.473 97.8711 161.524 97.9086 161.561C97.9461 161.599 97.997 161.62 98.05 161.62H100.84C100.893 161.62 100.944 161.599 100.981 161.561C101.019 161.524 101.04 161.473 101.04 161.42V161.42C101.04 161.367 101.019 161.316 100.981 161.279C100.944 161.241 100.893 161.22 100.84 161.22V161.22Z" fill="#F3F9FF"/>
<path id="Vector_78" d="M100.84 161.85H98.05C97.997 161.85 97.9461 161.871 97.9086 161.909C97.8711 161.946 97.85 161.997 97.85 162.05C97.85 162.103 97.8711 162.154 97.9086 162.191C97.9461 162.229 97.997 162.25 98.05 162.25H100.84C100.893 162.25 100.944 162.229 100.981 162.191C101.019 162.154 101.04 162.103 101.04 162.05C101.04 161.997 101.019 161.946 100.981 161.909C100.944 161.871 100.893 161.85 100.84 161.85Z" fill="#F3F9FF"/>
<path id="Vector_79" d="M99.2 162.48H98.05C97.997 162.48 97.9461 162.501 97.9086 162.539C97.8711 162.576 97.85 162.627 97.85 162.68C97.85 162.733 97.8711 162.784 97.9086 162.821C97.9461 162.859 97.997 162.88 98.05 162.88H99.2C99.253 162.88 99.3039 162.859 99.3414 162.821C99.3789 162.784 99.4 162.733 99.4 162.68C99.4 162.627 99.3789 162.576 99.3414 162.539C99.3039 162.501 99.253 162.48 99.2 162.48V162.48Z" fill="#F3F9FF"/>
<g id="bar" class="scaley">
<path id="Vector_80" d="M101.57 118.4H97.03V146.68H101.57V118.4Z" fill="#DD3A60"/>
<path id="Vector_81" d="M109 110.52H104.46V146.69H109V110.52Z" fill="#DD3A60"/>
<path id="Vector_82" d="M117.12 125.24H112.58V146.68H117.12V125.24Z" fill="#DD3A60"/>
<path id="Vector_83" d="M125.02 115.35H120.48V146.69H125.02V115.35Z" fill="#DD3A60"/>
<path id="Vector_84" d="M132.96 129.44H128.42V146.69H132.96V129.44Z" fill="#DD3A60"/>
</g>
<path id="Vector_85" d="M124.8 111.27H121C120.894 111.27 120.792 111.312 120.717 111.387C120.642 111.462 120.6 111.564 120.6 111.67C120.6 111.776 120.642 111.878 120.717 111.953C120.792 112.028 120.894 112.07 121 112.07H124.84C124.946 112.07 125.048 112.028 125.123 111.953C125.198 111.878 125.24 111.776 125.24 111.67C125.24 111.564 125.198 111.462 125.123 111.387C125.048 111.312 124.946 111.27 124.84 111.27H124.8Z" fill="#DD3A60"/>
<path id="Vector_86" d="M121.83 112.72H121C120.894 112.72 120.792 112.762 120.717 112.837C120.642 112.912 120.6 113.014 120.6 113.12C120.6 113.226 120.642 113.328 120.717 113.403C120.792 113.478 120.894 113.52 121 113.52H121.87C121.976 113.52 122.078 113.478 122.153 113.403C122.228 113.328 122.27 113.226 122.27 113.12C122.27 113.014 122.228 112.912 122.153 112.837C122.078 112.762 121.976 112.72 121.87 112.72H121.83Z" fill="#DD3A60"/>
<path id="Vector_87" d="M109 105.11H105.15C105.044 105.11 104.942 105.152 104.867 105.227C104.792 105.302 104.75 105.404 104.75 105.51C104.75 105.616 104.792 105.718 104.867 105.793C104.942 105.868 105.044 105.91 105.15 105.91H109C109.106 105.91 109.208 105.868 109.283 105.793C109.358 105.718 109.4 105.616 109.4 105.51C109.4 105.404 109.358 105.302 109.283 105.227C109.208 105.152 109.106 105.11 109 105.11Z" fill="#DD3A60"/>
<path id="Vector_88" d="M106 106.56H105.12C105.016 106.563 104.916 106.606 104.844 106.681C104.771 106.755 104.73 106.856 104.73 106.96C104.73 107.064 104.771 107.165 104.844 107.239C104.916 107.314 105.016 107.357 105.12 107.36H106C106.106 107.36 106.208 107.318 106.283 107.243C106.358 107.168 106.4 107.066 106.4 106.96V106.96C106.4 106.907 106.39 106.855 106.37 106.807C106.349 106.758 106.32 106.714 106.283 106.677C106.246 106.64 106.202 106.611 106.153 106.59C106.105 106.57 106.053 106.56 106 106.56V106.56Z" fill="#DD3A60"/>
<path id="Vector_89" d="M116.77 121H112.93C112.824 121 112.722 121.042 112.647 121.117C112.572 121.192 112.53 121.294 112.53 121.4C112.53 121.506 112.572 121.608 112.647 121.683C112.722 121.758 112.824 121.8 112.93 121.8H116.77C116.876 121.8 116.978 121.758 117.053 121.683C117.128 121.608 117.17 121.506 117.17 121.4C117.17 121.294 117.128 121.192 117.053 121.117C116.978 121.042 116.876 121 116.77 121V121Z" fill="#DD3A60"/>
<path id="Vector_90" d="M113.8 122.47H112.93C112.824 122.47 112.722 122.512 112.647 122.587C112.572 122.662 112.53 122.764 112.53 122.87V122.87C112.53 122.976 112.572 123.078 112.647 123.153C112.722 123.228 112.824 123.27 112.93 123.27H113.8C113.906 123.27 114.008 123.228 114.083 123.153C114.158 123.078 114.2 122.976 114.2 122.87C114.2 122.764 114.158 122.662 114.083 122.587C114.008 122.512 113.906 122.47 113.8 122.47V122.47Z" fill="#DD3A60"/>
<path id="Vector_91" d="M132.61 125.24H128.76C128.654 125.24 128.552 125.282 128.477 125.357C128.402 125.432 128.36 125.534 128.36 125.64C128.36 125.746 128.402 125.848 128.477 125.923C128.552 125.998 128.654 126.04 128.76 126.04H132.61C132.716 126.04 132.818 125.998 132.893 125.923C132.968 125.848 133.01 125.746 133.01 125.64C133.01 125.534 132.968 125.432 132.893 125.357C132.818 125.282 132.716 125.24 132.61 125.24Z" fill="#DD3A60"/>
<path id="Vector_92" d="M129.64 126.69H128.76C128.654 126.69 128.552 126.732 128.477 126.807C128.402 126.882 128.36 126.984 128.36 127.09C128.36 127.196 128.402 127.298 128.477 127.373C128.552 127.448 128.654 127.49 128.76 127.49H129.64C129.746 127.49 129.848 127.448 129.923 127.373C129.998 127.298 130.04 127.196 130.04 127.09C130.04 126.984 129.998 126.882 129.923 126.807C129.848 126.732 129.746 126.69 129.64 126.69V126.69Z" fill="#DD3A60"/>
<g id="grid3" class="floatinv">
<path id="Vector_93" d="M203.38 184.59H149.13V213.73H203.38V184.59Z" fill="url(#paint11_linear)"/>
<path id="Vector_94" d="M173.646 201.881C175.352 197.021 172.795 191.699 167.936 189.993C163.077 188.288 157.755 190.844 156.049 195.703C154.343 200.562 156.899 205.884 161.759 207.59C166.618 209.296 171.94 206.74 173.646 201.881Z" fill="#F3F9FF"/>
<path id="Vector_95" d="M197.56 193.27H182.06C181.795 193.27 181.54 193.375 181.353 193.563C181.165 193.75 181.06 194.005 181.06 194.27C181.06 194.535 181.165 194.79 181.353 194.977C181.54 195.165 181.795 195.27 182.06 195.27H197.56C197.825 195.27 198.08 195.165 198.267 194.977C198.455 194.79 198.56 194.535 198.56 194.27C198.56 194.005 198.455 193.75 198.267 193.563C198.08 193.375 197.825 193.27 197.56 193.27Z" fill="#F3F9FF"/>
<path id="Vector_96" d="M197.56 197.48H182.06C181.795 197.48 181.54 197.585 181.353 197.773C181.165 197.96 181.06 198.215 181.06 198.48C181.06 198.745 181.165 199 181.353 199.187C181.54 199.375 181.795 199.48 182.06 199.48H197.56C197.825 199.48 198.08 199.375 198.267 199.187C198.455 199 198.56 198.745 198.56 198.48C198.56 198.215 198.455 197.96 198.267 197.773C198.08 197.585 197.825 197.48 197.56 197.48Z" fill="#F3F9FF"/>
<path id="Vector_97" d="M197.56 201.68H182.06C181.795 201.68 181.54 201.785 181.353 201.973C181.165 202.16 181.06 202.415 181.06 202.68C181.06 202.945 181.165 203.2 181.353 203.387C181.54 203.575 181.795 203.68 182.06 203.68H197.56C197.825 203.68 198.08 203.575 198.267 203.387C198.455 203.2 198.56 202.945 198.56 202.68C198.56 202.415 198.455 202.16 198.267 201.973C198.08 201.785 197.825 201.68 197.56 201.68Z" fill="#F3F9FF"/>
<path id="Vector_98" d="M157.21 198.36H165.78V189.8C163.509 189.8 161.331 190.702 159.724 192.307C158.117 193.912 157.213 196.089 157.21 198.36V198.36Z" fill="#A80045"/>
<path id="Vector_99" d="M174.35 198.64H157.21C157.21 200.913 158.113 203.093 159.72 204.7C161.327 206.307 163.507 207.21 165.78 207.21V207.21C168.053 207.21 170.233 206.307 171.84 204.7C173.447 203.093 174.35 200.913 174.35 198.64V198.64Z" fill="#DD3A60"/>
<path id="Vector_100" d="M164.3 194H159.65C159.517 194 159.39 194.053 159.296 194.146C159.203 194.24 159.15 194.367 159.15 194.5C159.15 194.633 159.203 194.76 159.296 194.854C159.39 194.947 159.517 195 159.65 195H164.3C164.433 195 164.56 194.947 164.654 194.854C164.747 194.76 164.8 194.633 164.8 194.5C164.8 194.367 164.747 194.24 164.654 194.146C164.56 194.053 164.433 194 164.3 194Z" fill="#F3F9FF"/>
<path id="Vector_101" d="M160.71 195.71H159.65C159.523 195.71 159.401 195.761 159.311 195.851C159.221 195.941 159.17 196.063 159.17 196.19C159.169 196.253 159.18 196.316 159.204 196.375C159.227 196.434 159.263 196.488 159.308 196.532C159.352 196.577 159.406 196.613 159.465 196.636C159.524 196.66 159.587 196.671 159.65 196.67H160.71C160.837 196.67 160.959 196.619 161.049 196.529C161.139 196.439 161.19 196.317 161.19 196.19C161.187 196.063 161.136 195.943 161.047 195.853C160.957 195.764 160.837 195.713 160.71 195.71V195.71Z" fill="#F3F9FF"/>
<path id="Vector_102" d="M171.2 200.73H166.55C166.417 200.73 166.29 200.783 166.196 200.876C166.103 200.97 166.05 201.097 166.05 201.23C166.05 201.363 166.103 201.49 166.196 201.584C166.29 201.677 166.417 201.73 166.55 201.73H171.2C171.333 201.73 171.46 201.677 171.554 201.584C171.647 201.49 171.7 201.363 171.7 201.23C171.7 201.097 171.647 200.97 171.554 200.876C171.46 200.783 171.333 200.73 171.2 200.73Z" fill="#F3F9FF"/>
<path id="Vector_103" d="M167.61 202.48H166.55C166.422 202.483 166.3 202.535 166.21 202.627C166.12 202.719 166.07 202.842 166.07 202.97V202.97C166.073 203.097 166.124 203.217 166.213 203.307C166.303 203.396 166.424 203.447 166.55 203.45H167.61C167.737 203.45 167.859 203.399 167.949 203.309C168.039 203.219 168.09 203.097 168.09 202.97V202.97C168.091 202.906 168.08 202.843 168.056 202.783C168.033 202.724 167.998 202.67 167.953 202.624C167.908 202.578 167.855 202.542 167.796 202.517C167.737 202.493 167.674 202.48 167.61 202.48V202.48Z" fill="#F3F9FF"/>
</g>
<g id="grid2" class="floatinv">
<path id="Vector_104" d="M141.47 185.66H88.03V212.66H141.47V185.66Z" fill="url(#paint12_linear)"/>
<path id="Vector_105" d="M103.87 208.92C109.039 208.92 113.23 204.729 113.23 199.56C113.23 194.391 109.039 190.2 103.87 190.2C98.7006 190.2 94.51 194.391 94.51 199.56C94.51 204.729 98.7006 208.92 103.87 208.92Z" fill="#F3F9FF"/>
<path id="Vector_106" d="M103.87 191C101.965 190.995 100.113 191.626 98.6073 192.793C97.1015 193.959 96.0277 195.595 95.556 197.44C95.0843 199.286 95.2416 201.236 96.003 202.982C96.7645 204.728 98.0866 206.17 99.76 207.08C101.13 204.54 103.87 199.57 103.87 199.57L107.93 207.11C109.607 206.204 110.934 204.765 111.701 203.02C112.469 201.275 112.633 199.324 112.167 197.476C111.701 195.627 110.632 193.987 109.129 192.814C107.627 191.641 105.776 191.003 103.87 191Z" fill="#DD3A60"/>
<path id="Vector_107" d="M135.66 194.33H120.15C119.587 194.33 119.13 194.787 119.13 195.35C119.13 195.913 119.587 196.37 120.15 196.37H135.66C136.223 196.37 136.68 195.913 136.68 195.35C136.68 194.787 136.223 194.33 135.66 194.33Z" fill="#F3F9FF"/>
<path id="Vector_108" d="M135.65 198.53H120.15C119.878 198.53 119.617 198.638 119.425 198.83C119.233 199.022 119.125 199.283 119.125 199.555C119.125 199.827 119.233 200.088 119.425 200.28C119.617 200.472 119.878 200.58 120.15 200.58H135.65C135.922 200.58 136.183 200.472 136.375 200.28C136.567 200.088 136.675 199.827 136.675 199.555C136.675 199.283 136.567 199.022 136.375 198.83C136.183 198.638 135.922 198.53 135.65 198.53Z" fill="#F3F9FF"/>
<path id="Vector_109" d="M135.65 202.74H120.15C119.885 202.74 119.63 202.845 119.443 203.033C119.255 203.22 119.15 203.475 119.15 203.74C119.15 204.005 119.255 204.26 119.443 204.447C119.63 204.635 119.885 204.74 120.15 204.74H135.65C135.915 204.74 136.17 204.635 136.357 204.447C136.545 204.26 136.65 204.005 136.65 203.74C136.65 203.475 136.545 203.22 136.357 203.033C136.17 202.845 135.915 202.74 135.65 202.74Z" fill="#F3F9FF"/>
<path id="Vector_110" d="M104.18 195.46H99.53C99.3974 195.46 99.2702 195.513 99.1764 195.606C99.0827 195.7 99.03 195.827 99.03 195.96C99.03 196.093 99.0827 196.22 99.1764 196.314C99.2702 196.407 99.3974 196.46 99.53 196.46H104.18C104.313 196.46 104.44 196.407 104.534 196.314C104.627 196.22 104.68 196.093 104.68 195.96C104.68 195.827 104.627 195.7 104.534 195.606C104.44 195.513 104.313 195.46 104.18 195.46Z" fill="#F3F9FF"/>
<path id="Vector_111" d="M100.59 197.21H99.53C99.4035 197.213 99.2829 197.264 99.1934 197.353C99.1039 197.443 99.0525 197.563 99.05 197.69C99.05 197.818 99.1002 197.941 99.1899 198.033C99.2797 198.125 99.4018 198.177 99.53 198.18H100.59C100.654 198.18 100.717 198.167 100.776 198.143C100.835 198.118 100.888 198.082 100.933 198.036C100.978 197.99 101.013 197.936 101.036 197.877C101.06 197.817 101.071 197.754 101.07 197.69V197.69C101.07 197.563 101.019 197.441 100.929 197.351C100.839 197.261 100.717 197.21 100.59 197.21V197.21Z" fill="#F3F9FF"/>
</g>
<g id="grid1" class="float">
<path id="Vector_112" d="M141.47 63.39H88.03V90.39H141.47V63.39Z" fill="url(#paint13_linear)"/>
<path id="Vector_113" d="M103.87 86.65C109.039 86.65 113.23 82.4594 113.23 77.29C113.23 72.1206 109.039 67.93 103.87 67.93C98.7006 67.93 94.51 72.1206 94.51 77.29C94.51 82.4594 98.7006 86.65 103.87 86.65Z" fill="#F3F9FF"/>
<path id="Vector_114" d="M103.87 68.72C101.965 68.7154 100.113 69.3463 98.6073 70.5128C97.1015 71.6793 96.0277 73.3147 95.556 75.1602C95.0843 77.0057 95.2416 78.9558 96.003 80.7018C96.7645 82.4479 98.0866 83.89 99.76 84.8C101.13 82.26 103.87 77.29 103.87 77.29L107.93 84.83C109.607 83.924 110.934 82.4847 111.701 80.7398C112.469 78.9949 112.633 77.044 112.167 75.1957C111.701 73.3473 110.632 71.707 109.129 70.5342C107.627 69.3614 105.776 68.723 103.87 68.72Z" fill="#A80045"/>
<path id="Vector_115" d="M135.66 72.06H120.15C119.587 72.06 119.13 72.5167 119.13 73.08C119.13 73.6433 119.587 74.1 120.15 74.1H135.66C136.223 74.1 136.68 73.6433 136.68 73.08C136.68 72.5167 136.223 72.06 135.66 72.06Z" fill="#F3F9FF"/>
<path id="Vector_116" d="M135.65 76.27H120.15C119.885 76.27 119.63 76.3754 119.443 76.5629C119.255 76.7504 119.15 77.0048 119.15 77.27C119.15 77.5352 119.255 77.7896 119.443 77.9771C119.63 78.1646 119.885 78.27 120.15 78.27H135.65C135.915 78.27 136.17 78.1646 136.357 77.9771C136.545 77.7896 136.65 77.5352 136.65 77.27C136.65 77.0048 136.545 76.7504 136.357 76.5629C136.17 76.3754 135.915 76.27 135.65 76.27Z" fill="#F3F9FF"/>
<path id="Vector_117" d="M135.65 80.47H120.15C119.885 80.47 119.63 80.5754 119.443 80.7629C119.255 80.9504 119.15 81.2048 119.15 81.47C119.15 81.7352 119.255 81.9896 119.443 82.1771C119.63 82.3646 119.885 82.47 120.15 82.47H135.65C135.915 82.47 136.17 82.3646 136.357 82.1771C136.545 81.9896 136.65 81.7352 136.65 81.47C136.65 81.2048 136.545 80.9504 136.357 80.7629C136.17 80.5754 135.915 80.47 135.65 80.47Z" fill="#F3F9FF"/>
<path id="Vector_118" d="M104.18 73.19H99.53C99.3974 73.19 99.2702 73.2427 99.1764 73.3364C99.0827 73.4302 99.03 73.5574 99.03 73.69C99.03 73.8226 99.0827 73.9498 99.1764 74.0436C99.2702 74.1373 99.3974 74.19 99.53 74.19H104.18C104.313 74.19 104.44 74.1373 104.534 74.0436C104.627 73.9498 104.68 73.8226 104.68 73.69C104.68 73.5574 104.627 73.4302 104.534 73.3364C104.44 73.2427 104.313 73.19 104.18 73.19Z" fill="#FF9750"/>
<path id="Vector_119" d="M100.59 75H99.53C99.4669 75 99.4045 75.0124 99.3463 75.0365C99.2881 75.0607 99.2351 75.096 99.1906 75.1406C99.146 75.1852 99.1106 75.2381 99.0865 75.2963C99.0624 75.3545 99.05 75.417 99.05 75.48V75.48C99.0525 75.6065 99.1039 75.7271 99.1934 75.8166C99.2829 75.9061 99.4035 75.9574 99.53 75.96H100.59C100.717 75.96 100.839 75.9094 100.929 75.8194C101.019 75.7294 101.07 75.6073 101.07 75.48C101.071 75.4166 101.06 75.3536 101.036 75.2947C101.013 75.2359 100.977 75.1824 100.932 75.1376C100.888 75.0927 100.834 75.0574 100.775 75.0338C100.716 75.0101 100.653 74.9986 100.59 75V75Z" fill="#FF9750"/>
</g>
</g>
<defs>
<linearGradient id="paint0_linear" x1="78.63" y1="178.93" x2="212.78" y2="178.93" gradientUnits="userSpaceOnUse">
<stop stop-color="#D23274"/>
<stop offset="1" stop-color="#F24A37"/>
</linearGradient>
<linearGradient id="paint1_linear" x1="24366.6" y1="3233.23" x2="24366.6" y2="3069.52" gradientUnits="userSpaceOnUse">
<stop stop-color="#D23274"/>
<stop offset="1" stop-color="#F24A37"/>
</linearGradient>
<linearGradient id="paint2_linear" x1="4177.38" y1="3666.9" x2="4447.3" y2="3666.9" gradientUnits="userSpaceOnUse">
<stop stop-color="#D23274"/>
<stop offset="1" stop-color="#F24A37"/>
</linearGradient>
<linearGradient id="paint3_linear" x1="242.47" y1="206.53" x2="266.54" y2="206.53" gradientUnits="userSpaceOnUse">
<stop stop-color="#FF6224"/>
<stop offset="1" stop-color="#FF9750"/>
</linearGradient>
<linearGradient id="paint4_linear" x1="3562.06" y1="5387.05" x2="3746.18" y2="5387.05" gradientUnits="userSpaceOnUse">
<stop stop-color="#D23274"/>
<stop offset="1" stop-color="#F24A37"/>
</linearGradient>
<linearGradient id="paint5_linear" x1="3758.64" y1="3942.34" x2="3972.38" y2="3942.34" gradientUnits="userSpaceOnUse">
<stop stop-color="#D23274"/>
<stop offset="1" stop-color="#F24A37"/>
</linearGradient>
<linearGradient id="paint6_linear" x1="729.207" y1="5055.91" x2="1030.23" y2="5055.91" gradientUnits="userSpaceOnUse">
<stop stop-color="#D23274"/>
<stop offset="1" stop-color="#F24A37"/>
</linearGradient>
<linearGradient id="paint7_linear" x1="329.31" y1="5236.89" x2="441.19" y2="5236.89" gradientUnits="userSpaceOnUse">
<stop stop-color="#D23274"/>
<stop offset="1" stop-color="#F24A37"/>
</linearGradient>
<linearGradient id="paint8_linear" x1="223.27" y1="2781.24" x2="263.788" y2="2781.24" gradientUnits="userSpaceOnUse">
<stop stop-color="#D23274"/>
<stop offset="1" stop-color="#F24A37"/>
</linearGradient>
<linearGradient id="paint9_linear" x1="8239.43" y1="9673.71" x2="11182.5" y2="9673.71" gradientUnits="userSpaceOnUse">
<stop stop-color="#FF6224"/>
<stop offset="1" stop-color="#FF9750"/>
</linearGradient>
<linearGradient id="paint10_linear" x1="4792.35" y1="11141.6" x2="7648.19" y2="11141.6" gradientUnits="userSpaceOnUse">
<stop stop-color="#FF6224"/>
<stop offset="1" stop-color="#FF9750"/>
</linearGradient>
<linearGradient id="paint11_linear" x1="8239.43" y1="5988.11" x2="11182.5" y2="5988.11" gradientUnits="userSpaceOnUse">
<stop stop-color="#FF6224"/>
<stop offset="1" stop-color="#FF9750"/>
</linearGradient>
<linearGradient id="paint12_linear" x1="88.03" y1="199.16" x2="141.47" y2="199.16" gradientUnits="userSpaceOnUse">
<stop stop-color="#FF9750"/>
<stop offset="1" stop-color="#FF6224"/>
</linearGradient>
<linearGradient id="paint13_linear" x1="4792.35" y1="2139.42" x2="7648.19" y2="2139.42" gradientUnits="userSpaceOnUse">
<stop stop-color="#FF6224"/>
<stop offset="1" stop-color="#FF9750"/>
</linearGradient>
</defs>
</svg>
