<svg width="293" height="190" viewBox="0 0 293 190" fill="none" xmlns="http://www.w3.org/2000/svg">
	<style>
		.glow
		{
			animation: glowr 0.7s ease-in-out infinite;
		}
		@keyframes glowr
		{
			0%{ opacity: 0.4 }
			100%{ opacity: 1 }
		}

		.float
		{
			animation: floatr 4s ease-in-out infinite;
		}

		@keyframes floatr
		{
			0%{ transform: translateY(0vh); }
			50%{ transform: translateY(2vh); }
			100%{ transform: translateY(0vh); }
		}


			.tickk
	{
		stroke-dasharray: 400;
		stroke-dashoffset: 400;
		stroke: #ffffff;
        animation: ticker 4s ease forwards infinite;
        fill: #ffffff;
        stroke-width:0px;
	}
	@keyframes ticker{
		0% {  stroke-dashoffset: 400; fill: none;stroke-width:1px; fill-opacity: 0.1;}
		100%{ fill: #ffffff;stroke-dashoffset: 0;stroke-width:0px;ill-opacity: 1;}


	}

	.liquid
	{
		animation: liquidr 2s ease infinite;
		transform-origin: center center;
		transform: scale(1,0.98); 
	}

	@keyframes liquidr
		{
			0%{ transform: scale(1,0.98); }
			50%{ transform: scale(1,1.062) translateY(0.05vh);  }s
			100%{ transform: scale(1,0.98); }
		}

	</style>
<g id="Layer 1">
<path id="Vector 2" d="M218.82 73.14V159.59H72.6V73.14C72.6 71.972 73.0633 70.852 73.8881 70.025C74.713 69.198 75.8321 68.733 77 68.73H214.4C214.98 68.729 215.555 68.842 216.091 69.063C216.627 69.284 217.114 69.608 217.525 70.018C217.935 70.428 218.261 70.914 218.483 71.45C218.706 71.986 218.82 72.56 218.82 73.14Z" fill="#FFC101"/>
<path id="Vector 3" d="M83 77H208.37C209.54 77 210.661 77.465 211.488 78.292C212.315 79.119 212.78 80.24 212.78 81.41V150.79C212.78 151.872 212.35 152.91 211.585 153.675C210.82 154.44 209.782 154.87 208.7 154.87H82.7C81.6179 154.87 80.5801 154.44 79.815 153.675C79.0498 152.91 78.62 151.872 78.62 150.79V81.41C78.62 80.246 79.0805 79.128 79.901 78.302C80.7216 77.476 81.8356 77.008 83 77Z" fill="#FFD756"/>
<path id="Vector 4" d="M292.5 166.69H0V189.8H292.5V166.69Z" fill="#ACACAC"/>
<path id="Vector 5" d="M222.6 159.59H68.3C64.7654 159.59 61.9 162.453 61.9 165.985C61.9 169.517 64.7654 172.38 68.3 172.38H222.6C226.135 172.38 229 169.517 229 165.985C229 162.453 226.135 159.59 222.6 159.59Z" fill="#FFCE35"/>
<path id="Vector 6" d="M241 125.35C240.066 125.594 239.091 125.635 238.14 125.47C237.572 125.348 236.985 125.34 236.413 125.447C235.841 125.553 235.297 125.772 234.81 126.09C234.5 126.49 234.61 126.66 235.16 126.8C235.71 126.94 237.66 127.8 238.94 127.29C239.892 126.975 240.887 126.806 241.89 126.79L241 125.35Z" fill="#FFD0C5"/>
<path id="Vector 7" d="M256.12 110.16C256.12 110.16 254.12 124.16 250.9 125.38C247.36 126.369 243.749 127.088 240.1 127.53C240.1 127.53 239.59 127.12 239.71 125.42C239.71 125.42 247.14 122.69 248.2 121.21C249.77 119 247.2 112.21 249.2 110.11C251.2 108.01 254.49 107.14 256.12 110.16Z" fill="#FFD756"/>
<path id="Vector 8" d="M255.87 164V161H260.66C260.724 161 260.785 160.975 260.83 160.93C260.875 160.885 260.9 160.824 260.9 160.76V160.27C260.9 160.239 260.894 160.208 260.882 160.18C260.869 160.151 260.852 160.125 260.829 160.104C260.807 160.082 260.78 160.066 260.751 160.055C260.722 160.044 260.691 160.039 260.66 160.04H255.87V142.63C255.867 142.396 255.772 142.172 255.606 142.007C255.439 141.842 255.214 141.75 254.98 141.75H254C253.767 141.753 253.545 141.846 253.381 142.011C253.216 142.175 253.123 142.397 253.12 142.63V160H248.33C248.299 159.999 248.268 160.004 248.239 160.015C248.21 160.026 248.183 160.042 248.161 160.064C248.138 160.085 248.121 160.111 248.108 160.14C248.096 160.168 248.09 160.199 248.09 160.23V160.72C248.09 160.784 248.115 160.845 248.16 160.89C248.205 160.935 248.266 160.96 248.33 160.96H253.12V163.96C249.65 164.22 246.87 165.47 246.12 167.09H262.89C262.11 165.48 259.34 164.23 255.87 164Z" fill="#CCCCCC"/>
<path id="Vector 9" d="M255.46 139.58C254.883 140.539 254.241 141.458 253.54 142.33C251.42 145 249.13 147.19 248.72 149.27C248.637 149.724 248.513 150.169 248.35 150.6C248.174 151.111 247.971 151.612 247.74 152.1C246.701 154.221 245.508 156.263 244.17 158.21C241.85 161.63 239.68 164.49 239.68 164.49L235.68 164.32C235.84 163.92 237.58 159.19 239.91 153.41C240.85 151.06 241.91 148.56 242.83 146.15L243.21 145.15C243.51 144.42 243.8 143.69 244.09 142.99C246.27 137.55 248.01 133.23 248.01 133.23C248.01 133.23 256.75 129.92 257.65 132.07C258.41 133.87 257.8 135.61 255.46 139.58Z" fill="#CCCCCC"/>
<path id="Vector 10" d="M239.55 163.77C239.55 163.77 239.35 167.06 238.71 167.11H235.48H231.48C231.508 166.804 231.644 166.518 231.864 166.304C232.084 166.089 232.373 165.96 232.68 165.94C233.471 165.818 234.226 165.524 234.892 165.078C235.557 164.632 236.116 164.046 236.53 163.36C237.26 161.71 239.55 163.77 239.55 163.77Z" fill="#333333"/>
<path id="Vector 11" d="M248.79 154.37C248.79 154.37 251.57 156.15 251.3 156.73L249.73 159.55L247.73 163.04C247.478 162.867 247.295 162.611 247.215 162.316C247.134 162.021 247.161 161.707 247.29 161.43C247.57 160.679 247.681 159.876 247.616 159.078C247.55 158.279 247.309 157.505 246.91 156.81C245.87 155.36 248.79 154.37 248.79 154.37Z" fill="#333333"/>
<path id="Vector 12" d="M245 131.7C245 131.7 234 138.53 232.81 143.12C231.62 147.71 247.39 157.5 247.39 157.5C248.235 156.766 248.916 155.863 249.39 154.85C249.39 154.85 242.25 146.29 240.7 144.37C239.75 143.19 254.77 140.29 256.61 137.43C257.145 136.675 257.524 135.821 257.727 134.918C257.929 134.015 257.951 133.081 257.79 132.17L245 131.7Z" fill="#EAEAEA"/>
<path id="Vector 13" d="M265.72 140.47H243.29C242.837 140.47 242.47 140.837 242.47 141.29V145.77C242.47 146.223 242.837 146.59 243.29 146.59H265.72C266.173 146.59 266.54 146.223 266.54 145.77V141.29C266.54 140.837 266.173 140.47 265.72 140.47Z" fill="#ACACAC"/>
<path id="Vector 14" d="M250.11 107.77C249.463 108.163 248.896 108.676 248.44 109.28C251.06 109.96 255.44 107.52 255.44 107.52C254.272 106.613 253.453 105.331 253.12 103.89L253.03 103.51C252.945 103.058 252.898 102.6 252.89 102.14L251.68 103.22L249.68 105.02C249.737 105.692 249.837 106.36 249.98 107.02C249.993 107.26 250.037 107.51 250.11 107.77Z" fill="#FFD0C5"/>
<path id="Vector 15" d="M258.19 120.16C257.81 125.22 258.44 132.91 258.02 134.24C257.65 135.39 253.31 134.71 251.64 134.33C251.02 134.19 250.27 133.98 249.49 133.74C247.33 133.07 244.97 132.12 244.72 131.41V131.32C244.695 131.225 244.695 131.125 244.72 131.03C244.958 130.509 245.107 129.951 245.16 129.38C245.21 128.38 245.16 127.2 245.24 125.93C245.23 125.783 245.23 125.637 245.24 125.49V125.36C245.24 123.94 245.35 122.46 245.44 120.98C245.49 120.06 245.55 119.14 245.63 118.26C245.745 116.393 246.006 114.537 246.41 112.71C246.9 110.981 247.896 109.438 249.27 108.28L250.07 107.6C251.053 107.784 252.07 107.647 252.97 107.21C253.97 106.72 254.36 106.37 254.54 106.5C256.92 108.34 258.63 114 258.19 120.16Z" fill="#FFD756"/>
<path id="Vector 16" opacity="0.5" d="M249.5 133.75C247.34 133.08 244.98 132.13 244.73 131.42C244.725 131.39 244.725 131.36 244.73 131.33V131C244.969 130.478 245.121 129.921 245.18 129.35C245.18 128.35 245.18 127.17 245.25 125.9C245.25 125.76 245.25 125.6 245.25 125.46V125.33L253.43 121.62C253.556 125.995 252.168 130.28 249.5 133.75Z" fill="#FFCE35"/>
<path id="Vector 17" d="M249.66 105C249.717 105.672 249.817 106.34 249.96 107C250.679 106.729 251.331 106.306 251.873 105.761C252.415 105.216 252.833 104.561 253.1 103.84C253.18 103.63 253.22 103.5 253.22 103.5H253.01L251.66 103.21L249.66 105Z" fill="#F7BAAD"/>
<path id="Vector 18" d="M248.87 105C248.87 105 253.17 105.48 253.43 102.8C253.69 100.12 254.43 98.37 251.69 97.94C248.95 97.51 248.31 98.49 248.01 99.37C247.71 100.25 247.75 104.8 248.87 105Z" fill="#FFD0C5"/>
<path id="Vector 19" d="M253.41 103C253.294 101.953 252.809 100.982 252.041 100.261C251.272 99.541 250.272 99.118 249.22 99.07C246.54 98.82 248.03 96.51 248.32 96.14C248.32 96.14 250.38 96.42 252.48 96.77C256.91 97.48 253.85 102.43 253.41 103Z" fill="#333333"/>
<path id="Vector 20" d="M229.374 118.992L228.993 119.116L232.198 128.978L232.578 128.855L229.374 118.992Z" fill="#FFC101"/>
<path id="Vector 21" d="M243.056 128.111L232.169 128.343L232.182 128.993L243.07 128.761L243.056 128.111Z" fill="#FFC101"/>
<path id="Vector 22" d="M241.9 127.5C240.999 127.846 240.033 127.992 239.07 127.93C237.897 127.823 236.73 128.183 235.82 128.93C235.56 129.36 235.69 129.51 236.26 129.59C236.83 129.67 238.85 130.28 240.06 129.66C240.974 129.246 241.945 128.97 242.94 128.84L241.9 127.5Z" fill="#FFD0C5"/>
<path id="Vector 23" d="M255.25 110.73C255.25 110.73 254.84 124.83 251.74 126.43C248.334 127.811 244.827 128.927 241.25 129.77C241.25 129.77 240.69 129.41 240.63 127.71C240.63 127.71 247.71 124.18 248.63 122.58C249.95 120.22 246.63 113.72 248.4 111.44C250.17 109.16 253.3 107.91 255.25 110.73Z" fill="#FFC101"/>
<path id="Vector 24" d="M34.23 158.43L35.33 163.09H36.99L37.05 158.43H34.23Z" fill="#FFB27D"/>
<path id="Vector 25" d="M48.18 158.63L51.33 163.09L52.56 161.52L50.66 158.01L48.18 158.63Z" fill="#FFB27D"/>
<path id="Vector 26" d="M40 97.14C39.4625 96.868 38.8603 96.75 38.26 96.8C38.3682 96.715 38.495 96.657 38.63 96.63C38.2842 96.652 37.9453 96.736 37.63 96.88C33.49 95.29 32.84 101.38 32.93 102.8C33.02 104.22 31.54 104.68 29.38 105.8C25.27 107.93 24.91 110.8 24.91 110.8L25.01 110.87C25.22 110.52 25.64 109.87 26.01 109.78C26.01 109.78 25.59 110.67 25.44 111.16C26.65 112.09 28.92 114.16 30.5 115.58C30.4828 115.276 30.5201 114.971 30.61 114.68L30.81 115.86L32.24 117.18C32.13 116.04 37.41 110 40.17 108.18C40.6613 107.293 40.9738 106.318 41.09 105.31C41.0609 106.2 40.8712 107.077 40.53 107.9C42.86 105.74 41.51 98 40 97.14Z" fill="#333333"/>
<path id="Vector 27" d="M40 108.25C39.2841 108.634 38.4658 108.785 37.66 108.68C36.9752 108.386 36.4207 107.853 36.1 107.18C36.51 107.1 36.62 106.55 36.61 104.18H36.8L39.86 104.79C39.86 104.79 39.79 105.79 39.79 106.66C39.78 107.44 39.83 108.17 40 108.25Z" fill="#FFD0C5"/>
<path id="Vector 28" d="M36.54 98.13C36.9878 97.678 37.5931 97.418 38.2289 97.403C38.8647 97.388 39.4815 97.62 39.95 98.05C38.8146 97.931 37.6686 97.958 36.54 98.13Z" fill="#E37970"/>
<path id="Vector 29" d="M39.86 104.81C39.86 104.81 39.79 105.81 39.79 106.68C38.07 106.63 37.17 105.07 36.79 104.2L39.86 104.81Z" fill="#F7BAAD"/>
<path id="Vector 30" d="M36.46 103.69C35.9496 102.876 35.5747 101.984 35.35 101.05C35.19 100.19 35.63 96.98 38.86 97.44C39.5108 97.53 40.1329 97.766 40.68 98.13C41.38 98.6 42.39 99.62 41.26 102.42L40.96 103.42L36.46 103.69Z" fill="#333333"/>
<path id="Vector 31" d="M52.06 160.29L50.44 160.34L48.68 160.4C45.8267 156.928 43.6767 152.934 42.35 148.64C42.29 148.47 42.24 148.3 42.18 148.13C40.93 144.5 38.35 139.94 36.99 135.81C36.77 135.15 36.58 134.54 36.41 133.95C36.35 133.76 36.3 133.58 36.24 133.4C35.4613 130.715 34.939 127.963 34.68 125.18L44.51 125.26C45.8719 137.156 48.4008 148.889 52.06 160.29Z" fill="#EAEAEA"/>
<path id="Vector 32" d="M32.18 122.35C32.8088 121.13 33.2087 119.804 33.36 118.44C33.5792 117.145 33.6196 115.826 33.48 114.52C33.2848 112.434 32.8794 110.374 32.27 108.37C33.6624 108.005 35.0288 107.548 36.36 107C36.9526 107.53 37.7255 107.812 38.52 107.79C39.52 107.79 39.82 107.35 39.79 106.88C40.85 107.47 41.69 108.03 41.69 108.03C42.59 109.6 44.42 111.12 44.56 113.52C44.56 114.11 43.13 119.52 43.13 119.61C43.0189 121.862 43.2516 124.118 43.82 126.3C40.9163 127.584 37.6479 127.783 34.61 126.86L30.97 125.86" fill="#E7F1FD"/>
<path id="Vector 33" d="M34.68 120.13C34.25 120.74 33.43 124.44 31.38 124.9C32.44 122.27 33.24 121.11 33.38 120.3C33.5993 118.793 33.6396 117.266 33.5 115.75C34.19 114.55 34.7 113.75 34.7 113.75C34.76 113.55 35.79 110.35 36.12 113.21C36.2816 115.605 35.7835 117.998 34.68 120.13Z" fill="#5F9AA8"/>
<path id="Vector 34" d="M40.43 105.67C40.43 105.67 36.43 105.74 36.37 103.21C36.31 100.68 35.85 99 38.43 98.85C41.01 98.7 41.53 99.66 41.73 100.5C41.93 101.34 41.48 105.59 40.43 105.67Z" fill="#FFD0C5"/>
<path id="Vector 35" d="M41.61 99.1C40.99 98.34 40.51 98.51 40.25 98.73C39.37 97.42 36.6 99.32 36.6 99.32C36.4133 100.427 35.8477 101.434 35 102.17C35.7846 102.476 36.6554 102.476 37.44 102.17C38.78 101.83 39.75 99.92 40.1 99.17C40.4927 99.49 40.8044 99.897 41.01 100.36C41.21 101 41.3 102.36 41.68 102.28C41.71 102.25 42.55 100.24 41.61 99.1Z" fill="#333333"/>
<path id="Vector 36" d="M35.28 162.83C35.3464 163.478 35.2748 164.132 35.07 164.75C35.07 164.75 34.8 166 36 166C37.2 166 37.52 165.9 37.38 165.15C37.24 164.4 36.98 163.08 36.98 163.08L35.28 162.83Z" fill="#FFB27D"/>
<path id="Vector 37" d="M37.51 166.61H35C34.9387 165.989 34.969 165.362 35.09 164.75C36.47 166.07 37.33 164.75 37.33 164.75C37.4698 165.36 37.5302 165.985 37.51 166.61Z" fill="#333333"/>
<path id="Vector 38" d="M55.5 165.34C54.4264 164.142 53.4437 162.865 52.56 161.52L50.89 162.37L54.62 165.88L55.5 165.77V165.34Z" fill="#FFB27D"/>
<path id="Vector 39" d="M56.87 166.61H53.76C53.3981 166.194 53.1075 165.721 52.9 165.21C52.7911 165.031 52.6458 164.877 52.4735 164.758C52.3012 164.64 52.1058 164.558 51.9 164.52V166.61H51.26L50.66 164.38C50.5197 164.058 50.4626 163.706 50.4941 163.357C50.5255 163.007 50.6445 162.671 50.84 162.38C51.17 162.38 52.11 162.61 53.77 164.52C53.978 164.784 54.2442 164.996 54.5478 165.14C54.8513 165.284 55.1841 165.356 55.52 165.35C55.8205 165.454 56.0958 165.62 56.3283 165.837C56.5608 166.054 56.7453 166.317 56.87 166.61Z" fill="#333333"/>
<path id="Vector 40" d="M56.72 109.86C56.72 109.86 54.06 111.35 53.11 111.78C52.77 111.93 52.11 112.21 51.54 112.51L50.44 113.02C50.1688 113.147 49.8636 113.181 49.5711 113.118C49.2785 113.055 49.0147 112.897 48.82 112.67C47.38 110.99 43.65 107.34 39.82 106.88C40.03 107.42 42.14 112.69 42.21 113.81C42.28 114.93 42.48 132.98 42.48 132.98C42.48 132.98 42.35 133.81 43.93 133.46C44.6372 133.371 45.3182 133.136 45.93 132.77C45.93 132.77 44.41 121.67 44.83 117.77C44.8979 116.937 44.844 116.098 44.67 115.28C46.2715 116.182 47.9916 116.855 49.78 117.28C50.6791 116.908 51.5541 116.481 52.4 116C53.1877 115.465 53.9302 114.866 54.62 114.21C55.5204 113.291 56.3652 112.319 57.15 111.3L56.72 109.86Z" fill="#FFD756"/>
<path id="Vector 41" d="M50.44 160.34L48.68 160.4C45.8267 156.928 43.6767 152.934 42.35 148.64C42.29 148.47 42.24 148.3 42.18 148.13C40.93 144.5 38.35 139.94 36.99 135.81C36.77 135.15 36.58 134.54 36.41 133.95C36.35 133.76 36.3 133.58 36.24 133.4L37.69 132.3C37.69 132.3 42.03 139.3 43.38 145.95C44.55 151.7 49.23 158.62 50.44 160.34Z" fill="#CCCCCC"/>
<path id="Vector 42" d="M37.84 146.57C37.84 149.79 37.7 157.19 37.28 160.25H34.44C33.44 154.92 32.64 150.52 32.09 146.72C31.65 143.6 31.25 140.93 30.94 138.63C30.63 136.33 30.42 134.37 30.35 132.74V131.98V131.27L38.84 130.44C38.7 136.07 37.83 144.7 37.84 146.57Z" fill="#EAEAEA"/>
<path id="Vector 43" d="M35.73 160.25H34.44C33.44 154.92 32.64 150.52 32.09 146.72C31.65 143.6 31.25 140.93 30.94 138.63C30.63 136.33 30.42 134.37 30.35 132.74L33.46 134.57C33.46 134.57 31.46 135.27 32.23 140.57C33 145.87 34.67 159.5 35.73 160.25Z" fill="#CCCCCC"/>
<path id="Vector 44" d="M36.13 132.67C35.9789 133.249 35.6282 133.756 35.1398 134.102C34.6513 134.448 34.0564 134.61 33.46 134.56C31.745 134.229 30.0693 133.719 28.46 133.04C28.46 133.04 29.35 130.25 30.46 126.58C31.8 122.13 33.46 116.41 34.22 112.79C34.4093 111.979 34.5495 111.158 34.64 110.33L36.36 107C36.36 107 38.89 112.74 39.03 114.19C39.17 115.64 36.13 132.67 36.13 132.67Z" fill="#FFD756"/>
<path id="Vector 45" d="M43.52 115.81C43.1457 115.815 42.7863 115.958 42.5098 116.21C42.2334 116.463 42.0591 116.808 42.02 117.18C41.9341 117.537 41.7851 117.876 41.58 118.18L36.25 118.48L36.08 121.09C38.0945 120.834 40.0779 120.375 42 119.72C42.2545 119.657 42.4886 119.529 42.68 119.35C43.7319 118.446 44.5081 117.264 44.92 115.94C44.94 115.66 44.51 115.68 43.52 115.81Z" fill="#FFD0C5"/>
<path id="Vector 46" opacity="0.5" d="M36 117.23C35.9 119.57 35.35 124.12 30.43 126.56C31.77 122.11 33.43 116.39 34.19 112.77C35.09 114.14 36.09 115.93 36 117.23Z" fill="#FFCC2B"/>
<path id="Vector 47" d="M36.36 107C36.36 107 32.16 107.3 31.14 109.55C30.12 111.8 29.81 119.3 31.14 121.5C32.7637 121.823 34.4377 121.796 36.05 121.42H36.16C36.16 121.42 37.16 118.97 36.26 118.49C36.26 118.49 33.62 118.63 33.9 117.75C34.18 116.87 36.36 107 36.36 107Z" fill="#FFD756"/>
<path id="Vector 48" d="M59.58 108.09C58.9723 107.989 58.3484 108.113 57.8256 108.438C57.3027 108.764 56.9167 109.27 56.74 109.86L57.16 111.27C57.5257 111.337 57.9031 111.287 58.2387 111.127C58.5744 110.967 58.8512 110.706 59.03 110.38C59.6 109.58 59.75 109.89 60.11 109.29C60.59 108.48 59.83 108.17 59.58 108.09Z" fill="#FFD0C5"/>
<path id="Vector 49" d="M53.11 111.78C52.77 111.93 52.11 112.21 51.54 112.51C52.0854 113.594 52.3794 114.787 52.4 116C53.2217 115.459 53.9887 114.84 54.69 114.15C55.5672 113.251 56.3887 112.299 57.15 111.3L56.72 109.89C56.72 109.89 54.06 111.35 53.11 111.78Z" fill="#FFD0C5"/>
<path id="Vector 50" d="M203.38 48.03H149.13V114.35H203.38V48.03Z" fill="#FFEBAC"/>
<path id="Vector 51" d="M198.58 52.89H152.65V83.18H198.58V52.89Z" fill="#F3F9FF"/>
<path id="Vector 52" d="M196.71 90.96H172.65V107.13H196.71V90.96Z" fill="#F3F9FF"/>
<g id="water">
<path id="Vector 53" d="M154.5 68.35C154.5 68.35 162.28 67.35 167.04 71.7C171.8 76.05 180.64 72.08 184.21 71.7C190.41 71.04 195.27 73.03 196.71 75.23V81.81H154.5V68.35Z" fill="#FFCE35"/>
</g>
<path id="Vector 54" d="M160.76 57.76H160.44V68.04H160.76V57.76Z" fill="#FFC101"/>
<path id="Vector 55" d="M173.34 62.17H173.02V72.45H173.34V62.17Z" fill="#FFC101"/>
<path id="Vector 56" d="M186.33 59.84H186.01V70.12H186.33V59.84Z" fill="#FFC101"/>
<path id="Vector 57" d="M164.34 59.33H161.88C161.81 59.33 161.743 59.303 161.693 59.254C161.642 59.206 161.613 59.14 161.61 59.07C161.61 58.998 161.638 58.93 161.689 58.879C161.74 58.828 161.808 58.8 161.88 58.8H164.34C164.41 58.803 164.476 58.832 164.524 58.883C164.573 58.933 164.6 59 164.6 59.07C164.6 59.139 164.573 59.205 164.524 59.254C164.475 59.303 164.409 59.33 164.34 59.33Z" fill="#FFC101"/>
<path id="Vector 58" d="M164.34 60.3H161.88C161.808 60.3 161.74 60.272 161.689 60.221C161.638 60.17 161.61 60.102 161.61 60.03C161.61 59.958 161.638 59.89 161.689 59.839C161.74 59.788 161.808 59.76 161.88 59.76H164.34C164.41 59.763 164.476 59.792 164.524 59.843C164.573 59.893 164.6 59.96 164.6 60.03C164.6 60.1 164.573 60.167 164.524 60.217C164.476 60.268 164.41 60.297 164.34 60.3Z" fill="#FFC101"/>
<path id="Vector 59" d="M176.74 64.57H174.28C174.208 64.57 174.14 64.542 174.089 64.491C174.038 64.44 174.01 64.372 174.01 64.3C174.013 64.23 174.042 64.164 174.093 64.116C174.143 64.067 174.21 64.04 174.28 64.04H176.74C176.774 64.04 176.808 64.047 176.839 64.06C176.871 64.073 176.9 64.092 176.924 64.116C176.948 64.14 176.967 64.169 176.98 64.201C176.993 64.232 177 64.266 177 64.3C177 64.37 176.973 64.437 176.924 64.487C176.876 64.538 176.81 64.567 176.74 64.57Z" fill="#FFC101"/>
<path id="Vector 60" d="M176.74 65.51H174.28C174.21 65.51 174.143 65.483 174.093 65.434C174.042 65.386 174.013 65.32 174.01 65.25C174.01 65.178 174.038 65.11 174.089 65.059C174.14 65.008 174.208 64.98 174.28 64.98H176.74C176.81 64.983 176.876 65.012 176.924 65.063C176.973 65.113 177 65.18 177 65.25C177 65.319 176.973 65.385 176.924 65.434C176.875 65.483 176.809 65.51 176.74 65.51Z" fill="#FFC101"/>
<path id="Vector 61" d="M189.94 60.7H187.48C187.408 60.7 187.34 60.672 187.289 60.621C187.238 60.57 187.21 60.502 187.21 60.43C187.21 60.358 187.238 60.29 187.289 60.239C187.34 60.188 187.408 60.16 187.48 60.16H189.94C190.012 60.16 190.08 60.188 190.131 60.239C190.182 60.29 190.21 60.358 190.21 60.43C190.21 60.502 190.182 60.57 190.131 60.621C190.08 60.672 190.012 60.7 189.94 60.7Z" fill="#FFC101"/>
<path id="Vector 62" d="M189.94 61.64H187.48C187.408 61.64 187.34 61.612 187.289 61.561C187.238 61.51 187.21 61.442 187.21 61.37C187.21 61.298 187.238 61.23 187.289 61.179C187.34 61.128 187.408 61.1 187.48 61.1H189.94C190.012 61.1 190.08 61.128 190.131 61.179C190.182 61.23 190.21 61.298 190.21 61.37C190.21 61.442 190.182 61.51 190.131 61.561C190.08 61.612 190.012 61.64 189.94 61.64Z" fill="#FFC101"/>
<path id="Vector 63" d="M195.67 106H173.59V92.96H173.86V105.73H195.67V106Z" fill="#FFC101"/>
<path id="Vector 64" d="M180.49 101.29C177.79 99.13 174.91 101.29 174.91 101.29V105H195.13V95.49C189.63 95.59 183.2 103.44 180.49 101.29Z" fill="#FFCE35"/>
<path id="Vector 65" d="M175.15 94H184.56C184.621 94 184.68 93.976 184.723 93.933C184.766 93.889 184.79 93.831 184.79 93.77C184.79 93.709 184.766 93.65 184.723 93.607C184.68 93.564 184.621 93.54 184.56 93.54H175.15C175.089 93.54 175.03 93.564 174.987 93.607C174.944 93.65 174.92 93.709 174.92 93.77C174.92 93.831 174.944 93.889 174.987 93.933C175.03 93.976 175.089 94 175.15 94Z" fill="#FFC101"/>
<path id="Vector 66" d="M175.15 95.08H184.56C184.621 95.08 184.68 95.056 184.723 95.013C184.766 94.97 184.79 94.911 184.79 94.85C184.79 94.789 184.766 94.73 184.723 94.687C184.68 94.644 184.621 94.62 184.56 94.62H175.15C175.089 94.62 175.03 94.644 174.987 94.687C174.944 94.73 174.92 94.789 174.92 94.85C174.92 94.911 174.944 94.97 174.987 95.013C175.03 95.056 175.089 95.08 175.15 95.08Z" fill="#FFC101"/>
<path id="Vector 67" d="M181.33 95.69H175.1C174.995 95.69 174.91 95.775 174.91 95.88V95.96C174.91 96.065 174.995 96.15 175.1 96.15H181.33C181.435 96.15 181.52 96.065 181.52 95.96V95.88C181.52 95.775 181.435 95.69 181.33 95.69Z" fill="#FFC101"/>
<path id="Vector 68" d="M141.47 33.76H88.03V114.35H141.47V33.76Z" fill="#FFEBAC"/>
<path id="Vector 69" d="M136.22 38.27H93.2V86.23H136.22V38.27Z" fill="#F3F9FF"/>
<path id="Vector 70" d="M109.017 104.416C110.615 100.451 108.695 95.942 104.73 94.345C100.765 92.748 96.2558 94.667 94.6586 98.632C93.0615 102.598 94.981 107.107 98.9461 108.704C102.911 110.301 107.42 108.381 109.017 104.416Z" fill="#F3F9FF"/>
<path id="Vector 71" d="M108.39 101.54C108.388 100.247 108.003 98.983 107.283 97.909C106.563 96.835 105.541 95.998 104.346 95.505C103.151 95.011 101.836 94.883 100.568 95.137C99.3 95.39 98.1356 96.014 97.222 96.929C96.3084 97.844 95.6865 99.009 95.4349 100.278C95.1834 101.546 95.3135 102.861 95.8088 104.055C96.3041 105.249 97.1423 106.27 98.2176 106.988C99.2929 107.707 100.557 108.09 101.85 108.09C103.297 108.102 104.706 107.627 105.85 106.74L101.85 101.54L107.96 103.88C108.247 103.133 108.392 102.34 108.39 101.54Z" fill="#FFC101"/>
<path id="Vector 72" d="M135.734 103.313C136.716 99.153 134.139 94.984 129.979 94.002C125.819 93.02 121.65 95.597 120.668 99.757C119.686 103.917 122.263 108.086 126.423 109.068C130.584 110.05 134.752 107.473 135.734 103.313Z" fill="#F3F9FF"/>
<path id="Vector 73" d="M128.21 95C126.921 95 125.66 95.381 124.586 96.095C123.513 96.809 122.674 97.825 122.176 99.014C121.678 100.204 121.543 101.514 121.787 102.78C122.032 104.046 122.645 105.211 123.55 106.13L128.21 101.54L134.32 103.88C134.697 102.889 134.828 101.822 134.702 100.769C134.575 99.717 134.195 98.711 133.595 97.837C132.994 96.964 132.19 96.249 131.252 95.755C130.314 95.261 129.27 95.002 128.21 95Z" fill="#FFCE35"/>
<path id="Vector 74" d="M127.26 98.22H124.47C124.417 98.22 124.366 98.241 124.329 98.279C124.291 98.316 124.27 98.367 124.27 98.42C124.27 98.473 124.291 98.524 124.329 98.561C124.366 98.599 124.417 98.62 124.47 98.62H127.26C127.311 98.617 127.36 98.595 127.395 98.558C127.43 98.521 127.45 98.471 127.45 98.42C127.45 98.369 127.43 98.319 127.395 98.282C127.36 98.245 127.311 98.223 127.26 98.22Z" fill="#F3F9FF"/>
<path id="Vector 75" d="M127.26 98.85H124.47C124.417 98.85 124.366 98.871 124.329 98.909C124.291 98.946 124.27 98.997 124.27 99.05C124.27 99.103 124.291 99.154 124.329 99.191C124.366 99.229 124.417 99.25 124.47 99.25H127.26C127.313 99.25 127.364 99.229 127.401 99.191C127.439 99.154 127.46 99.103 127.46 99.05C127.46 98.997 127.439 98.946 127.401 98.909C127.364 98.871 127.313 98.85 127.26 98.85Z" fill="#F3F9FF"/>
<path id="Vector 76" d="M125.62 99.48H124.47C124.417 99.48 124.366 99.501 124.329 99.539C124.291 99.576 124.27 99.627 124.27 99.68C124.27 99.733 124.291 99.784 124.329 99.821C124.366 99.859 124.417 99.88 124.47 99.88H125.62C125.673 99.88 125.724 99.859 125.761 99.821C125.799 99.784 125.82 99.733 125.82 99.68C125.82 99.627 125.799 99.576 125.761 99.539C125.724 99.501 125.673 99.48 125.62 99.48Z" fill="#F3F9FF"/>
<path id="Vector 77" d="M100.84 98.22H98.05C97.997 98.22 97.9461 98.241 97.9086 98.279C97.8711 98.316 97.85 98.367 97.85 98.42C97.85 98.473 97.8711 98.524 97.9086 98.561C97.9461 98.599 97.997 98.62 98.05 98.62H100.84C100.893 98.62 100.944 98.599 100.981 98.561C101.019 98.524 101.04 98.473 101.04 98.42C101.04 98.367 101.019 98.316 100.981 98.279C100.944 98.241 100.893 98.22 100.84 98.22Z" fill="#F3F9FF"/>
<path id="Vector 78" d="M100.84 98.85H98.05C97.997 98.85 97.9461 98.871 97.9086 98.909C97.8711 98.946 97.85 98.997 97.85 99.05C97.85 99.103 97.8711 99.154 97.9086 99.191C97.9461 99.229 97.997 99.25 98.05 99.25H100.84C100.893 99.25 100.944 99.229 100.981 99.191C101.019 99.154 101.04 99.103 101.04 99.05C101.04 98.997 101.019 98.946 100.981 98.909C100.944 98.871 100.893 98.85 100.84 98.85Z" fill="#F3F9FF"/>
<path id="Vector 79" d="M99.2 99.48H98.05C97.997 99.48 97.9461 99.501 97.9086 99.539C97.8711 99.576 97.85 99.627 97.85 99.68C97.85 99.733 97.8711 99.784 97.9086 99.821C97.9461 99.859 97.997 99.88 98.05 99.88H99.2C99.253 99.88 99.3039 99.859 99.3414 99.821C99.3789 99.784 99.4 99.733 99.4 99.68C99.4 99.627 99.3789 99.576 99.3414 99.539C99.3039 99.501 99.253 99.48 99.2 99.48Z" fill="#F3F9FF"/>
<g id="bar" class="scaley">
<path id="Vector 80" d="M101.57 55.4H97.03V83.68H101.57V55.4Z" fill="#FFCE35"/>
<path id="Vector 81" d="M109 47.52H104.46V83.69H109V47.52Z" fill="#FFCE35"/>
<path id="Vector 82" d="M117.12 62.24H112.58V83.68H117.12V62.24Z" fill="#FFCE35"/>
<path id="Vector 83" d="M125.02 52.35H120.48V83.69H125.02V52.35Z" fill="#FFCE35"/>
<path id="Vector 84" d="M132.96 66.44H128.42V83.69H132.96V66.44Z" fill="#FFCE35"/>
</g>
<path id="Vector 85" d="M124.8 48.27H121C120.894 48.27 120.792 48.312 120.717 48.387C120.642 48.462 120.6 48.564 120.6 48.67C120.6 48.776 120.642 48.878 120.717 48.953C120.792 49.028 120.894 49.07 121 49.07H124.84C124.946 49.07 125.048 49.028 125.123 48.953C125.198 48.878 125.24 48.776 125.24 48.67C125.24 48.564 125.198 48.462 125.123 48.387C125.048 48.312 124.946 48.27 124.84 48.27H124.8Z" fill="#FFC101"/>
<path id="Vector 86" d="M121.83 49.72H121C120.894 49.72 120.792 49.762 120.717 49.837C120.642 49.912 120.6 50.014 120.6 50.12C120.6 50.226 120.642 50.328 120.717 50.403C120.792 50.478 120.894 50.52 121 50.52H121.87C121.976 50.52 122.078 50.478 122.153 50.403C122.228 50.328 122.27 50.226 122.27 50.12C122.27 50.014 122.228 49.912 122.153 49.837C122.078 49.762 121.976 49.72 121.87 49.72H121.83Z" fill="#FFC101"/>
<path id="Vector 87" d="M109 42.11H105.15C105.044 42.11 104.942 42.152 104.867 42.227C104.792 42.302 104.75 42.404 104.75 42.51C104.75 42.616 104.792 42.718 104.867 42.793C104.942 42.868 105.044 42.91 105.15 42.91H109C109.106 42.91 109.208 42.868 109.283 42.793C109.358 42.718 109.4 42.616 109.4 42.51C109.4 42.404 109.358 42.302 109.283 42.227C109.208 42.152 109.106 42.11 109 42.11Z" fill="#FFC101"/>
<path id="Vector 88" d="M106 43.56H105.12C105.016 43.563 104.916 43.606 104.844 43.681C104.771 43.755 104.73 43.856 104.73 43.96C104.73 44.064 104.771 44.165 104.844 44.239C104.916 44.314 105.016 44.357 105.12 44.36H106C106.106 44.36 106.208 44.318 106.283 44.243C106.358 44.168 106.4 44.066 106.4 43.96C106.4 43.907 106.39 43.855 106.37 43.807C106.349 43.758 106.32 43.714 106.283 43.677C106.246 43.64 106.202 43.611 106.153 43.59C106.105 43.57 106.053 43.56 106 43.56Z" fill="#FFC101"/>
<path id="Vector 89" d="M116.77 58H112.93C112.824 58 112.722 58.042 112.647 58.117C112.572 58.192 112.53 58.294 112.53 58.4C112.53 58.506 112.572 58.608 112.647 58.683C112.722 58.758 112.824 58.8 112.93 58.8H116.77C116.876 58.8 116.978 58.758 117.053 58.683C117.128 58.608 117.17 58.506 117.17 58.4C117.17 58.294 117.128 58.192 117.053 58.117C116.978 58.042 116.876 58 116.77 58Z" fill="#FFC101"/>
<path id="Vector 90" d="M113.8 59.47H112.93C112.824 59.47 112.722 59.512 112.647 59.587C112.572 59.662 112.53 59.764 112.53 59.87C112.53 59.976 112.572 60.078 112.647 60.153C112.722 60.228 112.824 60.27 112.93 60.27H113.8C113.906 60.27 114.008 60.228 114.083 60.153C114.158 60.078 114.2 59.976 114.2 59.87C114.2 59.764 114.158 59.662 114.083 59.587C114.008 59.512 113.906 59.47 113.8 59.47Z" fill="#FFC101"/>
<path id="Vector 91" d="M132.61 62.24H128.76C128.654 62.24 128.552 62.282 128.477 62.357C128.402 62.432 128.36 62.534 128.36 62.64C128.36 62.746 128.402 62.848 128.477 62.923C128.552 62.998 128.654 63.04 128.76 63.04H132.61C132.716 63.04 132.818 62.998 132.893 62.923C132.968 62.848 133.01 62.746 133.01 62.64C133.01 62.534 132.968 62.432 132.893 62.357C132.818 62.282 132.716 62.24 132.61 62.24Z" fill="#FFC101"/>
<path id="Vector 92" d="M129.64 63.69H128.76C128.654 63.69 128.552 63.732 128.477 63.807C128.402 63.882 128.36 63.984 128.36 64.09C128.36 64.196 128.402 64.298 128.477 64.373C128.552 64.448 128.654 64.49 128.76 64.49H129.64C129.746 64.49 129.848 64.448 129.923 64.373C129.998 64.298 130.04 64.196 130.04 64.09C130.04 63.984 129.998 63.882 129.923 63.807C129.848 63.732 129.746 63.69 129.64 63.69Z" fill="#FFC101"/>
<g id="grid3" class="floatinv">
<path id="Vector 93" d="M203.38 121.59H149.13V150.73H203.38V121.59Z" fill="#FFEBAC"/>
<path id="Vector 94" d="M173.646 138.881C175.352 134.021 172.795 128.699 167.936 126.993C163.077 125.288 157.755 127.844 156.049 132.703C154.343 137.562 156.899 142.884 161.759 144.59C166.618 146.296 171.94 143.74 173.646 138.881Z" fill="#F3F9FF"/>
<path id="Vector 95" d="M197.56 130.27H182.06C181.795 130.27 181.54 130.375 181.353 130.563C181.165 130.75 181.06 131.005 181.06 131.27C181.06 131.535 181.165 131.79 181.353 131.977C181.54 132.165 181.795 132.27 182.06 132.27H197.56C197.825 132.27 198.08 132.165 198.267 131.977C198.455 131.79 198.56 131.535 198.56 131.27C198.56 131.005 198.455 130.75 198.267 130.563C198.08 130.375 197.825 130.27 197.56 130.27Z" fill="#F3F9FF"/>
<path id="Vector 96" d="M197.56 134.48H182.06C181.795 134.48 181.54 134.585 181.353 134.773C181.165 134.96 181.06 135.215 181.06 135.48C181.06 135.745 181.165 136 181.353 136.187C181.54 136.375 181.795 136.48 182.06 136.48H197.56C197.825 136.48 198.08 136.375 198.267 136.187C198.455 136 198.56 135.745 198.56 135.48C198.56 135.215 198.455 134.96 198.267 134.773C198.08 134.585 197.825 134.48 197.56 134.48Z" fill="#F3F9FF"/>
<path id="Vector 97" d="M197.56 138.68H182.06C181.795 138.68 181.54 138.785 181.353 138.973C181.165 139.16 181.06 139.415 181.06 139.68C181.06 139.945 181.165 140.2 181.353 140.387C181.54 140.575 181.795 140.68 182.06 140.68H197.56C197.825 140.68 198.08 140.575 198.267 140.387C198.455 140.2 198.56 139.945 198.56 139.68C198.56 139.415 198.455 139.16 198.267 138.973C198.08 138.785 197.825 138.68 197.56 138.68Z" fill="#F3F9FF"/>
<path id="Vector 98" d="M157.21 135.36H165.78V126.8C163.509 126.8 161.331 127.702 159.724 129.307C158.117 130.912 157.213 133.089 157.21 135.36Z" fill="#FFC101"/>
<path id="Vector 99" d="M174.35 135.64H157.21C157.21 137.913 158.113 140.093 159.72 141.7C161.327 143.307 163.507 144.21 165.78 144.21C168.053 144.21 170.233 143.307 171.84 141.7C173.447 140.093 174.35 137.913 174.35 135.64Z" fill="#FFCE35"/>
<path id="Vector 100" d="M164.3 131H159.65C159.517 131 159.39 131.053 159.296 131.146C159.203 131.24 159.15 131.367 159.15 131.5C159.15 131.633 159.203 131.76 159.296 131.854C159.39 131.947 159.517 132 159.65 132H164.3C164.433 132 164.56 131.947 164.654 131.854C164.747 131.76 164.8 131.633 164.8 131.5C164.8 131.367 164.747 131.24 164.654 131.146C164.56 131.053 164.433 131 164.3 131Z" fill="#F3F9FF"/>
<path id="Vector 101" d="M160.71 132.71H159.65C159.523 132.71 159.401 132.761 159.311 132.851C159.221 132.941 159.17 133.063 159.17 133.19C159.169 133.253 159.18 133.316 159.204 133.375C159.227 133.434 159.263 133.488 159.308 133.532C159.352 133.577 159.406 133.613 159.465 133.636C159.524 133.66 159.587 133.671 159.65 133.67H160.71C160.837 133.67 160.959 133.619 161.049 133.529C161.139 133.439 161.19 133.317 161.19 133.19C161.187 133.063 161.136 132.943 161.047 132.853C160.957 132.764 160.837 132.713 160.71 132.71Z" fill="#F3F9FF"/>
<path id="Vector 102" d="M171.2 137.73H166.55C166.417 137.73 166.29 137.783 166.196 137.876C166.103 137.97 166.05 138.097 166.05 138.23C166.05 138.363 166.103 138.49 166.196 138.584C166.29 138.677 166.417 138.73 166.55 138.73H171.2C171.333 138.73 171.46 138.677 171.554 138.584C171.647 138.49 171.7 138.363 171.7 138.23C171.7 138.097 171.647 137.97 171.554 137.876C171.46 137.783 171.333 137.73 171.2 137.73Z" fill="#F3F9FF"/>
<path id="Vector 103" d="M167.61 139.48H166.55C166.422 139.483 166.3 139.535 166.21 139.627C166.12 139.719 166.07 139.842 166.07 139.97C166.073 140.097 166.124 140.217 166.213 140.307C166.303 140.396 166.424 140.447 166.55 140.45H167.61C167.737 140.45 167.859 140.399 167.949 140.309C168.039 140.219 168.09 140.097 168.09 139.97C168.091 139.906 168.08 139.843 168.056 139.783C168.033 139.724 167.998 139.67 167.953 139.624C167.908 139.578 167.855 139.542 167.796 139.517C167.737 139.493 167.674 139.48 167.61 139.48Z" fill="#F3F9FF"/>
</g>
<g id="grid2" class="floatinv">
<path id="Vector 104" d="M141.47 122.66H88.03V149.66H141.47V122.66Z" fill="#FFEBAC"/>
<path id="Vector 105" d="M103.87 145.92C109.039 145.92 113.23 141.729 113.23 136.56C113.23 131.391 109.039 127.2 103.87 127.2C98.7006 127.2 94.51 131.391 94.51 136.56C94.51 141.729 98.7006 145.92 103.87 145.92Z" fill="#F3F9FF"/>
<path id="Vector 106" d="M103.87 128C101.965 127.995 100.113 128.626 98.6073 129.793C97.1015 130.959 96.0277 132.595 95.556 134.44C95.0843 136.286 95.2416 138.236 96.003 139.982C96.7645 141.728 98.0866 143.17 99.76 144.08C101.13 141.54 103.87 136.57 103.87 136.57L107.93 144.11C109.607 143.204 110.934 141.765 111.701 140.02C112.469 138.275 112.633 136.324 112.167 134.476C111.701 132.627 110.632 130.987 109.129 129.814C107.627 128.641 105.776 128.003 103.87 128Z" fill="#FFCE35"/>
<path id="Vector 107" d="M135.66 131.33H120.15C119.587 131.33 119.13 131.787 119.13 132.35C119.13 132.913 119.587 133.37 120.15 133.37H135.66C136.223 133.37 136.68 132.913 136.68 132.35C136.68 131.787 136.223 131.33 135.66 131.33Z" fill="#F3F9FF"/>
<path id="Vector 108" d="M135.65 135.53H120.15C119.878 135.53 119.617 135.638 119.425 135.83C119.233 136.022 119.125 136.283 119.125 136.555C119.125 136.827 119.233 137.088 119.425 137.28C119.617 137.472 119.878 137.58 120.15 137.58H135.65C135.922 137.58 136.183 137.472 136.375 137.28C136.567 137.088 136.675 136.827 136.675 136.555C136.675 136.283 136.567 136.022 136.375 135.83C136.183 135.638 135.922 135.53 135.65 135.53Z" fill="#F3F9FF"/>
<path id="Vector 109" d="M135.65 139.74H120.15C119.885 139.74 119.63 139.845 119.443 140.033C119.255 140.22 119.15 140.475 119.15 140.74C119.15 141.005 119.255 141.26 119.443 141.447C119.63 141.635 119.885 141.74 120.15 141.74H135.65C135.915 141.74 136.17 141.635 136.357 141.447C136.545 141.26 136.65 141.005 136.65 140.74C136.65 140.475 136.545 140.22 136.357 140.033C136.17 139.845 135.915 139.74 135.65 139.74Z" fill="#F3F9FF"/>
<path id="Vector 110" d="M104.18 132.46H99.53C99.3974 132.46 99.2702 132.513 99.1764 132.606C99.0827 132.7 99.03 132.827 99.03 132.96C99.03 133.093 99.0827 133.22 99.1764 133.314C99.2702 133.407 99.3974 133.46 99.53 133.46H104.18C104.313 133.46 104.44 133.407 104.534 133.314C104.627 133.22 104.68 133.093 104.68 132.96C104.68 132.827 104.627 132.7 104.534 132.606C104.44 132.513 104.313 132.46 104.18 132.46Z" fill="#F3F9FF"/>
<path id="Vector 111" d="M100.59 134.21H99.53C99.4035 134.213 99.2829 134.264 99.1934 134.353C99.1039 134.443 99.0525 134.563 99.05 134.69C99.05 134.818 99.1002 134.941 99.1899 135.033C99.2797 135.125 99.4018 135.177 99.53 135.18H100.59C100.654 135.18 100.717 135.167 100.776 135.143C100.835 135.118 100.888 135.082 100.933 135.036C100.978 134.99 101.013 134.936 101.036 134.877C101.06 134.817 101.071 134.754 101.07 134.69C101.07 134.563 101.019 134.441 100.929 134.351C100.839 134.261 100.717 134.21 100.59 134.21Z" fill="#F3F9FF"/>
</g>
<g id="grid1" class="float">
<path id="Vector 112" d="M141.47 0.389999H88.03V27.39H141.47V0.389999Z" fill="#CCCCCC"/>
<path id="Vector 113" d="M103.87 23.65C109.039 23.65 113.23 19.4594 113.23 14.29C113.23 9.1206 109.039 4.93 103.87 4.93C98.7006 4.93 94.51 9.1206 94.51 14.29C94.51 19.4594 98.7006 23.65 103.87 23.65Z" fill="#F3F9FF"/>
<path id="Vector 114" d="M103.87 5.72C101.965 5.7154 100.113 6.3463 98.6073 7.5128C97.1015 8.6793 96.0277 10.3147 95.556 12.1602C95.0843 14.0057 95.2416 15.9558 96.003 17.7018C96.7645 19.4479 98.0866 20.89 99.76 21.8C101.13 19.26 103.87 14.29 103.87 14.29L107.93 21.83C109.607 20.924 110.934 19.4847 111.701 17.7398C112.469 15.9949 112.633 14.044 112.167 12.1957C111.701 10.3473 110.632 8.707 109.129 7.5342C107.627 6.3614 105.776 5.723 103.87 5.72Z" fill="#FFC101"/>
<path id="Vector 115" d="M135.66 9.06H120.15C119.587 9.06 119.13 9.5167 119.13 10.08C119.13 10.6433 119.587 11.1 120.15 11.1H135.66C136.223 11.1 136.68 10.6433 136.68 10.08C136.68 9.5167 136.223 9.06 135.66 9.06Z" fill="#F3F9FF"/>
<path id="Vector 116" d="M135.65 13.27H120.15C119.885 13.27 119.63 13.3754 119.443 13.5629C119.255 13.7504 119.15 14.0048 119.15 14.27C119.15 14.5352 119.255 14.7896 119.443 14.9771C119.63 15.1646 119.885 15.27 120.15 15.27H135.65C135.915 15.27 136.17 15.1646 136.357 14.9771C136.545 14.7896 136.65 14.5352 136.65 14.27C136.65 14.0048 136.545 13.7504 136.357 13.5629C136.17 13.3754 135.915 13.27 135.65 13.27Z" fill="#F3F9FF"/>
<path id="Vector 117" d="M135.65 17.47H120.15C119.885 17.47 119.63 17.5754 119.443 17.7629C119.255 17.9504 119.15 18.2048 119.15 18.47C119.15 18.7352 119.255 18.9896 119.443 19.1771C119.63 19.3646 119.885 19.47 120.15 19.47H135.65C135.915 19.47 136.17 19.3646 136.357 19.1771C136.545 18.9896 136.65 18.7352 136.65 18.47C136.65 18.2048 136.545 17.9504 136.357 17.7629C136.17 17.5754 135.915 17.47 135.65 17.47Z" fill="#F3F9FF"/>
<path id="Vector 118" d="M104.18 10.19H99.53C99.3974 10.19 99.2702 10.2427 99.1764 10.3364C99.0827 10.4302 99.03 10.5574 99.03 10.69C99.03 10.8226 99.0827 10.9498 99.1764 11.0436C99.2702 11.1373 99.3974 11.19 99.53 11.19H104.18C104.313 11.19 104.44 11.1373 104.534 11.0436C104.627 10.9498 104.68 10.8226 104.68 10.69C104.68 10.5574 104.627 10.4302 104.534 10.3364C104.44 10.2427 104.313 10.19 104.18 10.19Z" fill="#FF9750"/>
<path id="Vector 119" d="M100.59 12H99.53C99.4669 12 99.4045 12.0124 99.3463 12.0365C99.2881 12.0607 99.2351 12.096 99.1906 12.1406C99.146 12.1852 99.1106 12.2381 99.0865 12.2963C99.0624 12.3545 99.05 12.417 99.05 12.48C99.0525 12.6065 99.1039 12.7271 99.1934 12.8166C99.2829 12.9061 99.4035 12.9574 99.53 12.96H100.59C100.717 12.96 100.839 12.9094 100.929 12.8194C101.019 12.7294 101.07 12.6073 101.07 12.48C101.071 12.4166 101.06 12.3536 101.036 12.2947C101.013 12.2359 100.977 12.1824 100.932 12.1376C100.888 12.0927 100.834 12.0574 100.775 12.0338C100.716 12.0101 100.653 11.9986 100.59 12Z" fill="#FF9750"/>
</g>
</g>
</svg>
