<svg xmlns="http://www.w3.org/2000/svg" preserveAspectRatio="none" viewBox="0 0 2083 2083" width="2083" height="2083">
	<defs>
		<clipPath clipPathUnits="userSpaceOnUse" id="cp1">
			<path d="M0 0L2083 0L2083 2083L0 2083Z" />
		</clipPath>
		<linearGradient id="grd1" gradientUnits="userSpaceOnUse"  x1="1038.231" y1="1653.106" x2="1322.938" y2="1655.884">
			<stop offset="0" stop-color="#49b4e4"  />
			<stop offset="1" stop-color="#5cd0f4"  />
		</linearGradient>
	</defs>
	<style>
		tspan { white-space:pre }
		.shp0 { fill: #fffef5 } 
		.shp1 { fill: #fff6dc } 
		.shp2 { fill: #fffceb } 
		.shp3 { fill: #fff8e6 } 
		.shp4 { fill: #fffaf0 } 
		.shp5 { fill: #ffedbb } 
		.shp6 { fill: #ffebb0 } 
		.shp7 { fill: #fff3cf } 
		.shp8 { fill: #ffdb86 } 
		.shp9 { fill: #ffe49c } 
		.shp10 { fill: #ffd27c } 
		.shp11 { fill: #ffd560 } 
		.shp12 { fill: #ffcf5b } 
		.shp13 { fill: #ffd366 } 
		.shp14 { fill: #ffcc4a } 
		.shp15 { fill: #ffc340 } 
		.shp16 { fill: #ffbd32 } 
		.shp17 { fill: #ffb130 } 
		.shp18 { fill: url(#grd1) } 
		.shp19 { fill: #ffc745 } 
	</style>
	<g id="Page 1" clip-path="url(#cp1)">
		<path id="Path 1" class="shp0" d="M0 -0.33L281.25 -0.33L173.61 173.28L0 -0.33ZM281.25 -0.33L406.25 346.89L173.61 173.28L281.25 -0.33Z" />
		<path id="Path 2" class="shp1" d="M406.25 346.89L0 336.47L173.61 173.28L406.25 346.89ZM0 336.47L0 -0.33L173.61 173.28L0 336.47Z" />
		<path id="Path 3" class="shp0" d="M281.25 -0.33L611.11 -0.33L520.83 173.28L281.25 -0.33Z" />
		<path id="Path 4" class="shp2" d="M611.11 -0.33L732.64 353.83L520.83 173.28L611.11 -0.33Z" />
		<path id="Path 5" class="shp3" d="M732.64 353.83L406.25 346.89L520.83 173.28L732.64 353.83Z" />
		<path id="Path 6" class="shp2" d="M406.25 346.89L281.25 -0.33L520.83 173.28L406.25 346.89ZM611.11 -0.33L954.86 -0.33L868.06 173.28L611.11 -0.33ZM954.86 -0.33L1038.19 388.56L868.06 173.28L954.86 -0.33Z" />
		<path id="Path 7" class="shp4" d="M1038.19 388.56L732.64 353.83L868.06 173.28L1038.19 388.56Z" />
		<path id="Path 8" class="shp2" d="M732.64 353.83L611.11 -0.33L868.06 173.28L732.64 353.83Z" />
		<path id="Path 9" class="shp0" d="M954.86 -0.33L1402.78 -0.33L1215.28 173.28L954.86 -0.33Z" />
		<path id="Path 10" class="shp2" d="M1402.78 -0.33L1406.25 336.47L1215.28 173.28L1402.78 -0.33Z" />
		<path id="Path 11" class="shp4" d="M1406.25 336.47L1038.19 388.56L1215.28 173.28L1406.25 336.47Z" />
		<path id="Path 12" class="shp0" d="M1038.19 388.56L954.86 -0.33L1215.28 173.28L1038.19 388.56ZM1402.78 -0.33L1784.72 -0.33L1562.5 173.28L1402.78 -0.33ZM1784.72 -0.33L1798.61 405.92L1562.5 173.28L1784.72 -0.33Z" />
		<path id="Path 13" class="shp4" d="M1798.61 405.92L1406.25 336.47L1562.5 173.28L1798.61 405.92Z" />
		<path id="Path 14" class="shp2" d="M1406.25 336.47L1402.78 -0.33L1562.5 173.28L1406.25 336.47Z" />
		<path id="Path 15" class="shp0" d="M1784.72 -0.33L2083.33 -0.33L1909.72 173.28L1784.72 -0.33ZM2083.33 -0.33L2083.33 336.47L1909.72 173.28L2083.33 -0.33Z" />
		<path id="Path 16" class="shp4" d="M2083.33 336.47L1798.61 405.92L1909.72 173.28L2083.33 336.47Z" />
		<path id="Path 17" class="shp2" d="M1798.61 405.92L1784.72 -0.33L1909.72 173.28L1798.61 405.92Z" />
		<path id="Path 18" class="shp1" d="M0 336.47L406.25 346.89L173.61 520.5L0 336.47Z" />
		<path id="Path 19" class="shp5" d="M406.25 346.89L336.81 607.31L173.61 520.5L406.25 346.89Z" />
		<path id="Path 20" class="shp6" d="M336.81 607.31L0 780.92L173.61 520.5L336.81 607.31Z" />
		<path id="Path 21" class="shp5" d="M0 780.92L0 336.47L173.61 520.5L0 780.92Z" />
		<path id="Path 22" class="shp7" d="M406.25 346.89L732.64 353.83L469.62 589.95L406.25 346.89Z" />
		<path id="Path 23" class="shp6" d="M732.64 353.83L677.08 680.22L469.62 589.95L732.64 353.83Z" />
		<path id="Path 24" class="shp8" d="M677.08 680.22L336.81 607.31L469.62 589.95L677.08 680.22Z" />
		<path id="Path 25" class="shp5" d="M336.81 607.31L406.25 346.89L469.62 589.95L336.81 607.31Z" />
		<path id="Path 26" class="shp6" d="M732.64 353.83L1038.19 388.56L940.1 609.04L732.64 353.83ZM1038.19 388.56L940.97 638.56L940.1 609.04L1038.19 388.56ZM940.97 638.56L677.08 680.22L940.1 609.04L940.97 638.56ZM677.08 680.22L732.64 353.83L940.1 609.04L677.08 680.22ZM1038.19 388.56L1406.25 336.47L1276.91 614.25L1038.19 388.56Z" />
		<path id="Path 27" class="shp9" d="M1406.25 336.47L1309.03 690.64L1276.91 614.25L1406.25 336.47Z" />
		<path id="Path 28" class="shp10" d="M1309.03 690.64L940.97 638.56L1276.91 614.25L1309.03 690.64Z" />
		<path id="Path 29" class="shp6" d="M940.97 638.56L1038.19 388.56L1276.91 614.25L940.97 638.56Z" />
		<path id="Path 30" class="shp7" d="M1406.25 336.47L1798.61 405.92L1525.17 417.2L1406.25 336.47Z" />
		<path id="Path 31" class="shp6" d="M1798.61 405.92L1642.36 725.36L1525.17 417.2L1798.61 405.92ZM1642.36 725.36L1309.03 690.64L1525.17 417.2L1642.36 725.36ZM1309.03 690.64L1406.25 336.47L1525.17 417.2L1309.03 690.64Z" />
		<path id="Path 32" class="shp5" d="M1798.61 405.92L2083.33 336.47L2015.63 424.15L1798.61 405.92Z" />
		<path id="Path 33" class="shp9" d="M2083.33 336.47L2083.33 676.75L2015.63 424.15L2083.33 336.47Z" />
		<path id="Path 34" class="shp8" d="M2083.33 676.75L1642.36 725.36L2015.63 424.15L2083.33 676.75Z" />
		<path id="Path 35" class="shp9" d="M1642.36 725.36L1798.61 405.92L2015.63 424.15L1642.36 725.36Z" />
		<path id="Path 36" class="shp8" d="M0 780.92L336.81 607.31L173.61 867.72L0 780.92ZM336.81 607.31L388.89 1076.06L173.61 867.72L336.81 607.31Z" />
		<path id="Path 37" class="shp11" d="M388.89 1076.06L0 1013.56L173.61 867.72L388.89 1076.06Z" />
		<path id="Path 38" class="shp12" d="M0 1013.56L0 780.92L173.61 867.72L0 1013.56Z" />
		<path id="Path 39" class="shp8" d="M336.81 607.31L677.08 680.22L566.84 755.74L336.81 607.31Z" />
		<path id="Path 40" class="shp11" d="M677.08 680.22L656.25 937.17L566.84 755.74L677.08 680.22ZM656.25 937.17L388.89 1076.06L566.84 755.74L656.25 937.17Z" />
		<path id="Path 41" class="shp13" d="M388.89 1076.06L336.81 607.31L566.84 755.74L388.89 1076.06ZM677.08 680.22L940.97 638.56L825.52 958L677.08 680.22Z" />
		<path id="Path 42" class="shp12" d="M940.97 638.56L1114.58 1083L825.52 958L940.97 638.56ZM1114.58 1083L656.25 937.17L825.52 958L1114.58 1083Z" />
		<path id="Path 43" class="shp11" d="M656.25 937.17L677.08 680.22L825.52 958L656.25 937.17Z" />
		<path id="Path 44" class="shp13" d="M940.97 638.56L1309.03 690.64L1252.6 919.81L940.97 638.56Z" />
		<path id="Path 45" class="shp11" d="M1309.03 690.64L1399.31 961.47L1252.6 919.81L1309.03 690.64ZM1399.31 961.47L1114.58 1083L1252.6 919.81L1399.31 961.47ZM1114.58 1083L940.97 638.56L1252.6 919.81L1114.58 1083Z" />
		<path id="Path 46" class="shp13" d="M1309.03 690.64L1642.36 725.36L1591.15 849.49L1309.03 690.64ZM1642.36 725.36L1694.44 1006.61L1591.15 849.49L1642.36 725.36Z" />
		<path id="Path 47" class="shp12" d="M1694.44 1006.61L1399.31 961.47L1591.15 849.49L1694.44 1006.61Z" />
		<path id="Path 48" class="shp11" d="M1399.31 961.47L1309.03 690.64L1591.15 849.49L1399.31 961.47Z" />
		<path id="Path 49" class="shp13" d="M1642.36 725.36L2083.33 676.75L1834.2 944.98L1642.36 725.36Z" />
		<path id="Path 50" class="shp12" d="M2083.33 676.75L2083.33 947.58L1834.2 944.98L2083.33 676.75Z" />
		<path id="Path 51" class="shp11" d="M2083.33 947.58L1694.44 1006.61L1834.2 944.98L2083.33 947.58ZM1694.44 1006.61L1642.36 725.36L1834.2 944.98L1694.44 1006.61Z" />
		<path id="Path 52" class="shp12" d="M0 1013.56L388.89 1076.06L173.61 1214.94L0 1013.56Z" />
		<path id="Path 53" class="shp14" d="M388.89 1076.06L340.28 1444.11L173.61 1214.94L388.89 1076.06ZM340.28 1444.11L0 1492.72L173.61 1214.94L340.28 1444.11ZM0 1492.72L0 1013.56L173.61 1214.94L0 1492.72Z" />
		<path id="Path 54" class="shp12" d="M388.89 1076.06L656.25 937.17L621.53 1157.65L388.89 1076.06Z" />
		<path id="Path 55" class="shp14" d="M656.25 937.17L777.78 1357.31L621.53 1157.65L656.25 937.17Z" />
		<path id="Path 56" class="shp15" d="M777.78 1357.31L340.28 1444.11L621.53 1157.65L777.78 1357.31Z" />
		<path id="Path 57" class="shp14" d="M340.28 1444.11L388.89 1076.06L621.53 1157.65L340.28 1444.11Z" />
		<path id="Path 58" class="shp11" d="M656.25 937.17L1114.58 1083L934.9 1147.24L656.25 937.17Z" />
		<path id="Path 59" class="shp12" d="M1114.58 1083L1121.53 1412.86L934.9 1147.24L1114.58 1083ZM1121.53 1412.86L777.78 1357.31L934.9 1147.24L1121.53 1412.86Z" />
		<path id="Path 60" class="shp11" d="M777.78 1357.31L656.25 937.17L934.9 1147.24L777.78 1357.31ZM1114.58 1083L1399.31 961.47L1264.76 1124.67L1114.58 1083Z" />
		<path id="Path 61" class="shp12" d="M1399.31 961.47L1340.28 1388.56L1264.76 1124.67L1399.31 961.47Z" />
		<path id="Path 62" class="shp14" d="M1340.28 1388.56L1121.53 1412.86L1264.76 1124.67L1340.28 1388.56Z" />
		<path id="Path 63" class="shp11" d="M1121.53 1412.86L1114.58 1083L1264.76 1124.67L1121.53 1412.86ZM1399.31 961.47L1694.44 1006.61L1537.33 1212.34L1399.31 961.47Z" />
		<path id="Path 64" class="shp12" d="M1694.44 1006.61L1725.69 1381.61L1537.33 1212.34L1694.44 1006.61Z" />
		<path id="Path 65" class="shp14" d="M1725.69 1381.61L1340.28 1388.56L1537.33 1212.34L1725.69 1381.61ZM1340.28 1388.56L1399.31 961.47L1537.33 1212.34L1340.28 1388.56Z" />
		<path id="Path 66" class="shp11" d="M1694.44 1006.61L2083.33 947.58L1927.08 1223.63L1694.44 1006.61Z" />
		<path id="Path 67" class="shp14" d="M2083.33 947.58L2083.33 1412.86L1927.08 1223.63L2083.33 947.58ZM2083.33 1412.86L1725.69 1381.61L1927.08 1223.63L2083.33 1412.86ZM1725.69 1381.61L1694.44 1006.61L1927.08 1223.63L1725.69 1381.61Z" />
		<path id="Path 68" class="shp16" d="M0 1492.72L340.28 1444.11L173.61 1562.17L0 1492.72ZM340.28 1444.11L295.14 1735.78L173.61 1562.17L340.28 1444.11Z" />
		<path id="Path 69" class="shp17" d="M295.14 1735.78L0 1718.42L173.61 1562.17L295.14 1735.78ZM0 1718.42L0 1492.72L173.61 1562.17L0 1718.42Z" />
		<path id="Path 70" class="shp15" d="M340.28 1444.11L777.78 1357.31L526.04 1579.53L340.28 1444.11Z" />
		<path id="Path 71" class="shp14" d="M777.78 1357.31L590.28 1638.56L526.04 1579.53L777.78 1357.31Z" />
		<path id="Path 72" class="shp16" d="M590.28 1638.56L295.14 1735.78L526.04 1579.53L590.28 1638.56ZM295.14 1735.78L340.28 1444.11L526.04 1579.53L295.14 1735.78Z" />
		<path id="Path 73" class="shp14" d="M777.78 1357.31L1121.53 1412.86L920.14 1630.74L777.78 1357.31ZM1121.53 1412.86L1059.03 1652.44L920.14 1630.74L1121.53 1412.86Z" />
		<path id="Path 74" class="shp16" d="M1059.03 1652.44L590.28 1638.56L920.14 1630.74L1059.03 1652.44Z" />
		<path id="Path 75" class="shp15" d="M590.28 1638.56L777.78 1357.31L920.14 1630.74L590.28 1638.56Z" />
		<path id="Path 76" class="shp14" d="M1121.53 1412.86L1340.28 1388.56L1148.44 1655.05L1121.53 1412.86Z" />
		<path id="Path 77" class="shp15" d="M1340.28 1388.56L1343.75 1655.92L1148.44 1655.05L1340.28 1388.56Z" />
		<path id="Path 78" class="shp18" d="M1343.75 1655.92L1059.03 1652.44L1148.44 1655.05L1343.75 1655.92Z" />
		<path id="Path 79" class="shp11" d="M1059.03 1652.44L1121.53 1412.86L1148.44 1655.05L1059.03 1652.44Z" />
		<path id="Path 80" class="shp15" d="M1340.28 1388.56L1725.69 1381.61L1536.46 1534.39L1340.28 1388.56Z" />
		<path id="Path 81" class="shp14" d="M1725.69 1381.61L1843.75 1648.97L1536.46 1534.39L1725.69 1381.61Z" />
		<path id="Path 82" class="shp16" d="M1843.75 1648.97L1343.75 1655.92L1536.46 1534.39L1843.75 1648.97Z" />
		<path id="Path 83" class="shp14" d="M1343.75 1655.92L1340.28 1388.56L1536.46 1534.39L1343.75 1655.92ZM1725.69 1381.61L2083.33 1412.86L1969.62 1584.74L1725.69 1381.61Z" />
		<path id="Path 84" class="shp16" d="M2083.33 1412.86L2083.33 1836.47L1969.62 1584.74L2083.33 1412.86ZM2083.33 1836.47L1843.75 1648.97L1969.62 1584.74L2083.33 1836.47Z" />
		<path id="Path 85" class="shp15" d="M1843.75 1648.97L1725.69 1381.61L1969.62 1584.74L1843.75 1648.97Z" />
		<path id="Path 86" class="shp17" d="M0 1718.42L295.14 1735.78L173.61 1909.39L0 1718.42ZM295.14 1735.78L402.78 2083L173.61 1909.39L295.14 1735.78ZM402.78 2083L0 2083L173.61 1909.39L402.78 2083ZM0 2083L0 1718.42L173.61 1909.39L0 2083Z" />
		<path id="Path 87" class="shp16" d="M295.14 1735.78L590.28 1638.56L580.73 1996.19L295.14 1735.78ZM590.28 1638.56L722.22 2083L580.73 1996.19L590.28 1638.56Z" />
		<path id="Path 88" class="shp17" d="M722.22 2083L402.78 2083L580.73 1996.19L722.22 2083ZM402.78 2083L295.14 1735.78L580.73 1996.19L402.78 2083Z" />
		<path id="Path 89" class="shp15" d="M590.28 1638.56L1059.03 1652.44L839.41 1978.83L590.28 1638.56Z" />
		<path id="Path 90" class="shp16" d="M1059.03 1652.44L1086.81 2083L839.41 1978.83L1059.03 1652.44Z" />
		<path id="Path 91" class="shp17" d="M1086.81 2083L722.22 2083L839.41 1978.83L1086.81 2083Z" />
		<path id="Path 92" class="shp16" d="M722.22 2083L590.28 1638.56L839.41 1978.83L722.22 2083Z" />
		<path id="Path 93" class="shp19" d="M1059.03 1652.44L1343.75 1655.92L1217.01 1839.94L1059.03 1652.44Z" />
		<path id="Path 94" class="shp17" d="M1343.75 1655.92L1472.22 2083L1217.01 1839.94L1343.75 1655.92Z" />
		<path id="Path 95" class="shp16" d="M1472.22 2083L1086.81 2083L1217.01 1839.94L1472.22 2083Z" />
		<path id="Path 96" class="shp15" d="M1086.81 2083L1059.03 1652.44L1217.01 1839.94L1086.81 2083Z" />
		<path id="Path 97" class="shp16" d="M1343.75 1655.92L1843.75 1648.97L1627.6 1809.56L1343.75 1655.92Z" />
		<path id="Path 98" class="shp17" d="M1843.75 1648.97L1833.33 2083L1627.6 1809.56L1843.75 1648.97ZM1833.33 2083L1472.22 2083L1627.6 1809.56L1833.33 2083ZM1472.22 2083L1343.75 1655.92L1627.6 1809.56L1472.22 2083ZM1843.75 1648.97L2083.33 1836.47L2054.69 1846.89L1843.75 1648.97ZM2083.33 1836.47L2083.33 2083L2054.69 1846.89L2083.33 1836.47ZM2083.33 2083L1833.33 2083L2054.69 1846.89L2083.33 2083ZM1833.33 2083L1843.75 1648.97L2054.69 1846.89L1833.33 2083Z" />
	</g>
</svg>