
<!-- Generator: Adobe Illustrator 19.0.0, SVG Export Plug-In . SVG Version: 6.00 Build 0)  -->
<svg version="1.1"  id="Layer_1" xmlns="http://www.w3.org/2000/svg" preserveAspectRatio="none"  x="0px" y="0px"
	 viewBox="194 -104 1000 1000" enable-background="new 194 -104 1000 1000" xml:space="preserve">
<g>
	<path fill="#FEFDF2" d="M194-96h135l-51.667,83.334L194-96z"/>
	<path fill="#FEFDF2" d="M329-96l60,166.667L277.333-12.666L329-96z"/>
	<path fill="#FFF5D8" d="M389,70.667l-195-5l83.333-78.333L389,70.667z"/>
	<path fill="#FFF5D8" d="M194,65.667V-96l83.333,83.334L194,65.667z"/>
	<path fill="#FEFDF2" d="M329-96h158.333L444-12.666L329-96z"/>
	<path fill="#FFFCE8" d="M487.333-96l58.333,170L444-12.666L487.333-96z"/>
	<path fill="#FEF6E2" d="M545.667,74L389,70.667l55-83.333L545.667,74z"/>
	<path fill="#FFFCE8" d="M389,70.667L329-96l115,83.334L389,70.667z"/>
	<path fill="#FFFCE8" d="M487.333-96h165l-41.666,83.334L487.333-96z"/>
	<path fill="#FFFCE8" d="M652.333-96l40,186.667L610.667-12.666L652.333-96z"/>
	<path fill="#FFF8EC" d="M692.333,90.667L545.667,74l65-86.666L692.333,90.667z"/>
	<path fill="#FFFCE8" d="M545.667,74L487.333-96l123.333,83.334L545.667,74z"/>
	<path fill="#FEFDF2" d="M652.333-96h215l-90,83.334L652.333-96z"/>
	<path fill="#FFFCE8" d="M867.333-96L869,65.667l-91.667-78.333L867.333-96z"/>
	<path fill="#FFF8EC" d="M869,65.667l-176.667,25l85-103.333L869,65.667z"/>
	<path fill="#FEFDF2" d="M692.333,90.667L652.333-96l125,83.334L692.333,90.667z"/>
	<path fill="#FEFDF2" d="M867.333-96h183.334L944-12.666L867.333-96z"/>
	<path fill="#FEFDF2" d="M1050.667-96l6.666,195L944-12.666L1050.667-96z"/>
	<path fill="#FFF8EC" d="M1057.333,99L869,65.667l75-78.333L1057.333,99z"/>
	<path fill="#FFFCE8" d="M869,65.667L867.333-96L944-12.666L869,65.667z"/>
	<path fill="#FEFDF2" d="M1050.667-96H1194l-83.333,83.334L1050.667-96z"/>
	<path fill="#FEFDF2" d="M1194-96V65.667l-83.333-78.333L1194-96z"/>
	<path fill="#FFF8EC" d="M1194,65.667L1057.333,99l53.334-111.666L1194,65.667z"/>
	<path fill="#FFFCE8" d="M1057.333,99l-6.666-195l60,83.334L1057.333,99z"/>
	<path fill="#FFF5D8" d="M194,65.667l195,5L277.333,154L194,65.667z"/>
	<path fill="#FFECB8" d="M389,70.667l-33.333,125L277.333,154L389,70.667z"/>
	<path fill="#FEEBAC" d="M355.667,195.667L194,279l83.333-125L355.667,195.667z"/>
	<path fill="#FFECB8" d="M194,279V65.667L277.333,154L194,279z"/>
	<path fill="#FFF2CB" d="M389,70.667L545.667,74l-126.25,113.334L389,70.667z"/>
	<path fill="#FEEBAC" d="M545.667,74L519,230.667l-99.583-43.333L545.667,74z"/>
	<path fill="#FFDC83" d="M519,230.667l-163.333-35l63.75-8.333L519,230.667z"/>
	<path fill="#FFECB8" d="M355.667,195.667l33.333-125l30.417,116.667L355.667,195.667z"/>
	<path fill="#FEEBAC" d="M545.667,74l146.666,16.667L645.25,196.5L545.667,74z"/>
	<path fill="#FEEBAC" d="M692.333,90.667l-46.666,120L645.25,196.5L692.333,90.667z"/>
	<path fill="#FEEBAC" d="M645.667,210.667l-126.667,20L645.25,196.5L645.667,210.667z"/>
	<path fill="#FEEBAC" d="M519,230.667L545.667,74l99.583,122.5L519,230.667z"/>
	<path fill="#FFF2CB" d="M692.333,90.667l176.667-25L806.917,199L692.333,90.667z"/>
	<path fill="#FEE499" d="M869,65.667l-46.667,170L806.917,199L869,65.667z"/>
	<path fill="#FEE499" d="M822.333,235.667l-176.666-25L806.917,199L822.333,235.667z"/>
	<path fill="#FEEBAC" d="M645.667,210.667l46.666-120L806.917,199L645.667,210.667z"/>
	<path fill="#FFF2CB" d="M869,65.667L1057.333,99l-131.25,5.417L869,65.667z"/>
	<path fill="#FEEBAC" d="M1057.333,99l-75,153.334l-56.25-147.917L1057.333,99z"/>
	<path fill="#FEE499" d="M982.333,252.334l-160-16.667l103.75-131.25L982.333,252.334z"/>
	<path fill="#FEEBAC" d="M822.333,235.667l46.667-170l57.083,38.75L822.333,235.667z"/>
	<path fill="#FFECB8" d="M1057.333,99L1194,65.667l-32.5,42.083L1057.333,99z"/>
	<path fill="#FEE499" d="M1194,65.667V229l-32.5-121.25L1194,65.667z"/>
	<path fill="#FFDC83" d="M1194,229l-211.667,23.334L1161.5,107.75L1194,229z"/>
	<path fill="#FEE499" d="M982.333,252.334l75-153.334l104.167,8.75L982.333,252.334z"/>
	<path fill="#FFDC83" d="M194,279l161.667-83.333l-78.333,125L194,279z"/>
	<path fill="#FFD151" d="M355.667,195.667l25,225l-103.333-100L355.667,195.667z"/>
	<path fill="#FFD757" d="M380.667,420.667l-186.667-30l83.333-70L380.667,420.667z"/>
	<path fill="#FFD151" d="M194,390.667V279l83.333,41.667L194,390.667z"/>
	<path fill="#FFDC83" d="M355.667,195.667l163.333,35l-52.917,36.25L355.667,195.667z"/>
	<path fill="#FFD757" d="M519,230.667L509,354l-42.917-87.083L519,230.667z"/>
	<path fill="#FFD151" d="M509,354l-128.333,66.667l85.417-153.75L509,354z"/>
	<path fill="#FFD55F" d="M380.667,420.667l-25-225l110.417,71.25L380.667,420.667z"/>
	<path fill="#FFD55F" d="M519,230.667l126.667-20L590.25,364L519,230.667z"/>
	<path fill="#FFD151" d="M645.667,210.667L729,424l-138.75-60L645.667,210.667z"/>
	<path fill="#FFD151" d="M729,424l-220-70l81.25,10L729,424z"/>
	<path fill="#FFD757" d="M509,354l10-123.333L590.25,364L509,354z"/>
	<path fill="#FFD55F" d="M645.667,210.667l176.666,25l-27.083,110L645.667,210.667z"/>
	<path fill="#FFD757" d="M822.333,235.667l43.334,130l-70.417-20L822.333,235.667z"/>
	<path fill="#FFD757" d="M865.667,365.667L729,424l66.25-78.333L865.667,365.667z"/>
	<path fill="#FFD757" d="M729,424l-83.333-213.333l149.583,135L729,424z"/>
	<path fill="#FFDC83" d="M822.333,235.667l160,16.667l-24.583,59.583L822.333,235.667z"/>
	<path fill="#FFD55F" d="M982.333,252.334l25,134.999l-49.583-75.416L982.333,252.334z"/>
	<path fill="#FFD151" d="M1007.333,387.333l-141.666-21.666l92.083-53.75L1007.333,387.333z"/>
	<path fill="#FFD757" d="M865.667,365.667l-43.334-130l135.417,76.25L865.667,365.667z"/>
	<path fill="#FFD55F" d="M982.333,252.334L1194,229l-119.583,128.75L982.333,252.334z"/>
	<path fill="#FFD151" d="M1194,229v130l-119.583-1.25L1194,229z"/>
	<path fill="#FFD757" d="M1194,359l-186.667,28.333l67.084-29.583L1194,359z"/>
	<path fill="#FFD757" d="M1007.333,387.333l-25-134.999l92.084,105.416L1007.333,387.333z"/>
	<path fill="#FFD151" d="M194,390.667l186.667,30l-103.333,66.666L194,390.667z"/>
	<path fill="#FFCF37" d="M380.667,420.667l-23.333,176.666l-80-110L380.667,420.667z"/>
	<path fill="#FFCF37" d="M357.333,597.333L194,620.667l83.333-133.334L357.333,597.333z"/>
	<path fill="#FFCF37" d="M194,620.667v-230l83.333,96.666L194,620.667z"/>
	<path fill="#FFD151" d="M380.667,420.667L509,354l-16.667,105.833L380.667,420.667z"/>
	<path fill="#FFCF37" d="M509,354l58.333,201.667l-75-95.834L509,354z"/>
	<path fill="#FBC52C" d="M567.333,555.667l-210,41.666l135-137.5L567.333,555.667z"/>
	<path fill="#FFCF37" d="M357.333,597.333l23.333-176.666l111.667,39.166L357.333,597.333z"/>
	<path fill="#FFD757" d="M509,354l220,70l-86.25,30.833L509,354z"/>
	<path fill="#FFD151" d="M729,424l3.333,158.333l-89.583-127.5L729,424z"/>
	<path fill="#FFD151" d="M732.333,582.333l-165-26.666l75.417-100.834L732.333,582.333z"/>
	<path fill="#FFD757" d="M567.333,555.667L509,354l133.75,100.833L567.333,555.667z"/>
	<path fill="#FFD757" d="M729,424l136.667-58.333L801.083,444L729,424z"/>
	<path fill="#FFD151" d="M865.667,365.667l-28.334,205L801.083,444L865.667,365.667z"/>
	<path fill="#FFCF37" d="M837.333,570.667l-105,11.666L801.083,444L837.333,570.667z"/>
	<path fill="#FFD757" d="M732.333,582.333L729,424l72.083,20L732.333,582.333z"/>
	<path fill="#FFD757" d="M865.667,365.667l141.666,21.666l-75.416,98.75L865.667,365.667z"/>
	<path fill="#FFD151" d="M1007.333,387.333l15,180l-90.416-81.25L1007.333,387.333z"/>
	<path fill="#FFCF37" d="M1022.333,567.333l-185,3.334l94.584-84.584L1022.333,567.333z"/>
	<path fill="#FFCF37" d="M837.333,570.667l28.334-205l66.25,120.416L837.333,570.667z"/>
	<path fill="#FFD757" d="M1007.333,387.333L1194,359l-75,132.5L1007.333,387.333z"/>
	<path fill="#FFCF37" d="M1194,359v223.333l-75-90.833L1194,359z"/>
	<path fill="#FFCF37" d="M1194,582.333l-171.667-15L1119,491.5L1194,582.333z"/>
	<path fill="#FFCF37" d="M1022.333,567.333l-15-180L1119,491.5L1022.333,567.333z"/>
	<path fill="#FDC110" d="M194,620.667l163.333-23.334l-80,56.667L194,620.667z"/>
	<path fill="#FDC110" d="M357.333,597.333l-21.667,140L277.333,654L357.333,597.333z"/>
	<path fill="#FEBB1A" d="M335.667,737.333L194,729l83.333-75L335.667,737.333z"/>
	<path fill="#FDB714" d="M194,729V620.667L277.333,654L194,729z"/>
	<path fill="#FBC52C" d="M357.333,597.333l210-41.666L446.5,662.333L357.333,597.333z"/>
	<path fill="#FFCF37" d="M567.333,555.667l-90,135L446.5,662.333L567.333,555.667z"/>
	<path fill="#FDC110" d="M477.333,690.667l-141.667,46.666l110.833-75L477.333,690.667z"/>
	<path fill="#FEBB1A" d="M335.667,737.333l21.667-140l89.167,65L335.667,737.333z"/>
	<path fill="#FFCF37" d="M567.333,555.667l165,26.666l-96.666,104.584L567.333,555.667z"/>
	<path fill="#FFCF37" d="M732.333,582.333l-30,115l-66.666-10.416L732.333,582.333z"/>
	<path fill="#FDC110" d="M702.333,697.333l-225-6.666l158.333-3.75L702.333,697.333z"/>
	<path fill="#FBC52C" d="M477.333,690.667l90-135l68.334,131.25L477.333,690.667z"/>
	<path fill="#FFCF37" d="M732.333,582.333l105-11.666L745.25,698.583L732.333,582.333z"/>
	<path fill="#FBC52C" d="M837.333,570.667L839,699l-93.75-0.417L837.333,570.667z"/>
	
		<linearGradient id="SVGID_1_" gradientUnits="userSpaceOnUse" x1="386.5068" y1="849.3402" x2="387.5068" y2="848.5403" gradientTransform="matrix(136.6667 0 0 -1.6667 -52130.2578 2113.2466)">
		<stop  offset="0" style="stop-color:#49A9DF"/>
		<stop  offset="1" style="stop-color:#59C4F0"/>
	</linearGradient>
	<path fill="url(#SVGID_1_)" d="M839,699l-136.667-1.667l42.917,1.25L839,699z"/>
	<path fill="#FBC52C" d="M702.333,697.333l30-115l12.917,116.25L702.333,697.333z"/>
	<path fill="#FBC52C" d="M837.333,570.667l185-3.334L931.5,640.667L837.333,570.667z"/>
	<path fill="#FEBB1A" d="M1022.333,567.333L1079,695.667l-147.5-55L1022.333,567.333z"/>
	<path fill="#FDC110" d="M1079,695.667L839,699l92.5-58.333L1079,695.667z"/>
	<path fill="#FFCF37" d="M839,699l-1.667-128.333l94.167,70L839,699z"/>
	<path fill="#FFCF37" d="M1022.333,567.333l171.667,15l-54.583,82.5L1022.333,567.333z"/>
	<path fill="#FDC110" d="M1194,582.333v203.334l-54.583-120.834L1194,582.333z"/>
	<path fill="#FDB714" d="M1194,785.667l-115-90l60.417-30.834L1194,785.667z"/>
	<path fill="#FBC52C" d="M1079,695.667l-56.667-128.334l117.084,97.5L1079,695.667z"/>
	<path fill="#FDB714" d="M194,729l141.667,8.333l-58.333,83.334L194,729z"/>
	<path fill="#FEBB1A" d="M335.667,737.333L387.333,904l-110-83.333L335.667,737.333z"/>
	<path fill="#FDB714" d="M387.333,904H194l83.333-83.333L387.333,904z"/>
	<path fill="#FEBB1A" d="M194,904V729l83.333,91.667L194,904z"/>
	<path fill="#FDC110" d="M335.667,737.333l141.667-46.666l-4.583,171.666L335.667,737.333z"/>
	<path fill="#FEBB1A" d="M477.333,690.667L540.667,904l-67.917-41.667L477.333,690.667z"/>
	<path fill="#FDB714" d="M540.667,904H387.333l85.417-41.667L540.667,904z"/>
	<path fill="#FDB714" d="M387.333,904l-51.667-166.667l137.083,125L387.333,904z"/>
	<path fill="#FBC52C" d="M477.333,690.667l225,6.666L596.917,854L477.333,690.667z"/>
	<path fill="#FDC110" d="M702.333,697.333L715.667,904l-118.75-50L702.333,697.333z"/>
	<path fill="#FDB714" d="M715.667,904h-175l56.25-50L715.667,904z"/>
	<path fill="#FDC110" d="M540.667,904l-63.333-213.333L596.917,854L540.667,904z"/>
	<path fill="#FDC110" d="M702.333,697.333L839,699l-60.833,88.333L702.333,697.333z"/>
	<path fill="#FEBB1A" d="M839,699l61.667,205l-122.5-116.667L839,699z"/>
	<path fill="#FDC110" d="M900.667,904h-185l62.5-116.667L900.667,904z"/>
	<path fill="#FDB714" d="M715.667,904l-13.334-206.667l75.834,90L715.667,904z"/>
	<path fill="#FDB714" d="M839,699l240-3.333L975.25,772.75L839,699z"/>
	<path fill="#FEBB1A" d="M1079,695.667L1074,904l-98.75-131.25L1079,695.667z"/>
	<path fill="#FDB714" d="M1074,904H900.667l74.583-131.25L1074,904z"/>
	<path fill="#FEBB1A" d="M900.667,904L839,699l136.25,73.75L900.667,904z"/>
	<path fill="#F3B41B" d="M1079,695.667l115,90l-13.75,5L1079,695.667z"/>
	<path fill="#F3B41B" d="M1194,785.667V904l-13.75-113.333L1194,785.667z"/>
	<path fill="#FDB714" d="M1194,904h-120l106.25-113.333L1194,904z"/>
	<path fill="#FEBB1A" d="M1074,904l5-208.333l101.25,95L1074,904z"/>
</g>
</svg>
