<svg width="357" height="137" preserveAspectRatio="xMidYMid meet" viewBox="0 0 357 137" fill="none" xmlns="http://www.w3.org/2000/svg">
<path d="M0 20C0 8.9543 8.95431 0 20 0H337C348.046 0 357 8.95431 357 20V116.429C357 127.474 348.046 136.429 337 136.429H20C8.9543 136.429 0 127.474 0 116.429V20Z" fill="#FFC312"/>
<path d="M161.065 56.2567C159.165 56.2567 157.655 55.9667 156.535 55.3867C155.435 54.7867 154.605 53.6767 154.045 52.0567C153.485 50.4167 153.205 48.0467 153.205 44.9467C153.205 42.0067 153.495 39.7267 154.075 38.1067C154.655 36.4867 155.515 35.3667 156.655 34.7467C157.795 34.1067 159.305 33.7867 161.185 33.7867C162.225 33.7867 163.345 33.8767 164.545 34.0567C165.745 34.2167 166.805 34.4167 167.725 34.6567V36.9367C167.085 36.8367 166.205 36.7367 165.085 36.6367C163.965 36.5367 162.845 36.4867 161.725 36.4867C160.305 36.4867 159.205 36.7167 158.425 37.1767C157.665 37.6167 157.105 38.4467 156.745 39.6667C156.385 40.8667 156.205 42.6367 156.205 44.9767C156.205 47.3767 156.375 49.1867 156.715 50.4067C157.055 51.6067 157.605 52.4367 158.365 52.8967C159.125 53.3367 160.235 53.5567 161.695 53.5567C164.115 53.5567 166.125 53.4367 167.725 53.1967V55.5067C165.725 56.0067 163.505 56.2567 161.065 56.2567ZM177.363 56.2567C175.663 56.2567 174.303 56.0167 173.283 55.5367C172.263 55.0567 171.503 54.2267 171.003 53.0467C170.523 51.8467 170.283 50.1767 170.283 48.0367C170.283 45.8367 170.533 44.1467 171.033 42.9667C171.533 41.7667 172.283 40.9467 173.283 40.5067C174.303 40.0467 175.663 39.8167 177.363 39.8167C179.063 39.8167 180.413 40.0467 181.413 40.5067C182.433 40.9667 183.193 41.7967 183.693 42.9967C184.193 44.1767 184.443 45.8567 184.443 48.0367C184.443 50.1967 184.193 51.8767 183.693 53.0767C183.213 54.2567 182.463 55.0867 181.443 55.5667C180.443 56.0267 179.083 56.2567 177.363 56.2567ZM177.363 53.7967C178.363 53.7967 179.143 53.6667 179.703 53.4067C180.283 53.1267 180.713 52.5767 180.993 51.7567C181.293 50.9167 181.443 49.6667 181.443 48.0067C181.443 46.3467 181.293 45.1067 180.993 44.2867C180.713 43.4467 180.283 42.8967 179.703 42.6367C179.143 42.3767 178.363 42.2467 177.363 42.2467C176.343 42.2467 175.553 42.3767 174.993 42.6367C174.453 42.8967 174.033 43.4467 173.733 44.2867C173.453 45.1067 173.313 46.3467 173.313 48.0067C173.313 49.6867 173.453 50.9467 173.733 51.7867C174.033 52.6067 174.453 53.1467 174.993 53.4067C175.553 53.6667 176.343 53.7967 177.363 53.7967ZM193.328 56.2567C191.368 56.2567 189.918 55.6167 188.978 54.3367C188.038 53.0367 187.568 50.9867 187.568 48.1867C187.568 46.1667 187.758 44.5567 188.138 43.3567C188.538 42.1367 189.178 41.2467 190.058 40.6867C190.938 40.1067 192.128 39.8167 193.628 39.8167C195.008 39.8167 196.568 40.1067 198.308 40.6867V33.1867H201.308V56.0767H198.848L198.308 54.4867C197.808 54.9267 197.058 55.3367 196.058 55.7167C195.078 56.0767 194.168 56.2567 193.328 56.2567ZM194.288 53.7967C195.528 53.7967 196.868 53.3967 198.308 52.5967V42.8467C198.188 42.8067 197.868 42.7167 197.348 42.5767C196.828 42.4167 196.338 42.3067 195.878 42.2467C195.418 42.1667 194.968 42.1267 194.528 42.1267C193.548 42.1267 192.778 42.3067 192.218 42.6667C191.658 43.0067 191.248 43.6067 190.988 44.4667C190.728 45.3067 190.598 46.4967 190.598 48.0367C190.598 49.4767 190.718 50.6167 190.958 51.4567C191.198 52.2767 191.588 52.8767 192.128 53.2567C192.668 53.6167 193.388 53.7967 194.288 53.7967ZM211.753 56.2567C210.013 56.2567 208.643 56.0067 207.643 55.5067C206.663 55.0067 205.953 54.1667 205.513 52.9867C205.093 51.8067 204.883 50.1567 204.883 48.0367C204.883 45.8767 205.093 44.2067 205.513 43.0267C205.953 41.8467 206.663 41.0167 207.643 40.5367C208.623 40.0567 209.983 39.8167 211.723 39.8167C213.243 39.8167 214.453 39.9767 215.353 40.2967C216.253 40.6167 216.913 41.1667 217.333 41.9467C217.753 42.7267 217.963 43.8067 217.963 45.1867C217.963 46.6067 217.553 47.6367 216.733 48.2767C215.913 48.8967 214.733 49.2067 213.193 49.2067H207.883C207.903 50.4267 208.033 51.3767 208.273 52.0567C208.533 52.7167 208.993 53.1967 209.653 53.4967C210.313 53.7967 211.263 53.9467 212.503 53.9467H217.513V55.7467C216.413 55.9067 215.443 56.0267 214.603 56.1067C213.763 56.2067 212.813 56.2567 211.753 56.2567ZM212.923 47.3167C213.743 47.3167 214.333 47.1667 214.693 46.8667C215.073 46.5467 215.263 45.9967 215.263 45.2167C215.263 44.0167 214.993 43.1867 214.453 42.7267C213.933 42.2667 213.023 42.0367 211.723 42.0367C210.703 42.0367 209.913 42.1867 209.353 42.4867C208.813 42.7867 208.423 43.3167 208.183 44.0767C207.963 44.8167 207.853 45.8967 207.853 47.3167H212.923ZM226.094 56.1067C224.574 56.1067 223.444 55.7067 222.704 54.9067C221.984 54.1067 221.624 52.7767 221.624 50.9167V33.1867H224.624V50.5267C224.624 51.7067 224.784 52.5167 225.104 52.9567C225.444 53.3967 225.974 53.6667 226.694 53.7667L228.194 53.9467V56.1067H226.094ZM236.948 56.2567C235.208 56.2567 233.838 56.0067 232.838 55.5067C231.858 55.0067 231.148 54.1667 230.708 52.9867C230.288 51.8067 230.078 50.1567 230.078 48.0367C230.078 45.8767 230.288 44.2067 230.708 43.0267C231.148 41.8467 231.858 41.0167 232.838 40.5367C233.818 40.0567 235.178 39.8167 236.918 39.8167C238.438 39.8167 239.648 39.9767 240.548 40.2967C241.448 40.6167 242.108 41.1667 242.528 41.9467C242.948 42.7267 243.158 43.8067 243.158 45.1867C243.158 46.6067 242.748 47.6367 241.928 48.2767C241.108 48.8967 239.928 49.2067 238.388 49.2067H233.078C233.098 50.4267 233.228 51.3767 233.468 52.0567C233.728 52.7167 234.188 53.1967 234.848 53.4967C235.508 53.7967 236.458 53.9467 237.698 53.9467H242.708V55.7467C241.608 55.9067 240.638 56.0267 239.798 56.1067C238.958 56.2067 238.008 56.2567 236.948 56.2567ZM238.118 47.3167C238.938 47.3167 239.528 47.1667 239.888 46.8667C240.268 46.5467 240.458 45.9967 240.458 45.2167C240.458 44.0167 240.188 43.1867 239.648 42.7267C239.128 42.2667 238.218 42.0367 236.918 42.0367C235.898 42.0367 235.108 42.1867 234.548 42.4867C234.008 42.7867 233.618 43.3167 233.378 44.0767C233.158 44.8167 233.048 45.8967 233.048 47.3167H238.118ZM252.429 56.2567C251.429 56.2567 250.279 56.2067 248.979 56.1067C247.699 56.0267 246.789 55.9067 246.249 55.7467V53.9467H252.999C253.959 53.9467 254.669 53.8167 255.129 53.5567C255.589 53.2767 255.819 52.7267 255.819 51.9067V51.2467C255.819 49.9667 254.959 49.3267 253.239 49.3267H250.899C249.359 49.3267 248.169 49.0167 247.329 48.3967C246.489 47.7567 246.069 46.7067 246.069 45.2467V44.3767C246.069 42.8367 246.519 41.7067 247.419 40.9867C248.339 40.2467 249.849 39.8767 251.949 39.8767C252.829 39.8767 253.859 39.9367 255.039 40.0567C256.219 40.1567 257.129 40.2767 257.769 40.4167V42.2167H251.409C250.469 42.2167 249.779 42.3767 249.339 42.6967C248.899 43.0167 248.679 43.5767 248.679 44.3767V44.9767C248.679 45.7367 248.889 46.2367 249.309 46.4767C249.749 46.7167 250.449 46.8367 251.409 46.8367H253.809C255.309 46.8367 256.449 47.1867 257.229 47.8867C258.029 48.5867 258.429 49.5867 258.429 50.8867V52.1167C258.429 53.6567 257.919 54.7367 256.899 55.3567C255.899 55.9567 254.409 56.2567 252.429 56.2567ZM267.459 56.2567C266.459 56.2567 265.309 56.2067 264.009 56.1067C262.729 56.0267 261.819 55.9067 261.279 55.7467V53.9467H268.029C268.989 53.9467 269.699 53.8167 270.159 53.5567C270.619 53.2767 270.849 52.7267 270.849 51.9067V51.2467C270.849 49.9667 269.989 49.3267 268.269 49.3267H265.929C264.389 49.3267 263.199 49.0167 262.359 48.3967C261.519 47.7567 261.099 46.7067 261.099 45.2467V44.3767C261.099 42.8367 261.549 41.7067 262.449 40.9867C263.369 40.2467 264.879 39.8767 266.979 39.8767C267.859 39.8767 268.889 39.9367 270.069 40.0567C271.249 40.1567 272.159 40.2767 272.799 40.4167V42.2167H266.439C265.499 42.2167 264.809 42.3767 264.369 42.6967C263.929 43.0167 263.709 43.5767 263.709 44.3767V44.9767C263.709 45.7367 263.919 46.2367 264.339 46.4767C264.779 46.7167 265.479 46.8367 266.439 46.8367H268.839C270.339 46.8367 271.479 47.1867 272.259 47.8867C273.059 48.5867 273.459 49.5867 273.459 50.8867V52.1167C273.459 53.6567 272.949 54.7367 271.929 55.3567C270.929 55.9567 269.439 56.2567 267.459 56.2567ZM153.067 96.2567C151.167 96.2567 149.657 95.9667 148.537 95.3867C147.437 94.7867 146.607 93.6767 146.047 92.0567C145.487 90.4167 145.207 88.0467 145.207 84.9467C145.207 82.0067 145.497 79.7267 146.077 78.1067C146.657 76.4867 147.517 75.3667 148.657 74.7467C149.797 74.1067 151.307 73.7867 153.187 73.7867C154.227 73.7867 155.347 73.8767 156.547 74.0567C157.747 74.2167 158.807 74.4167 159.727 74.6567V76.9367C159.087 76.8367 158.207 76.7367 157.087 76.6367C155.967 76.5367 154.847 76.4867 153.727 76.4867C152.307 76.4867 151.207 76.7167 150.427 77.1767C149.667 77.6167 149.107 78.4467 148.747 79.6667C148.387 80.8667 148.207 82.6367 148.207 84.9767C148.207 87.3767 148.377 89.1867 148.717 90.4067C149.057 91.6067 149.607 92.4367 150.367 92.8967C151.127 93.3367 152.237 93.5567 153.697 93.5567C156.117 93.5567 158.127 93.4367 159.727 93.1967V95.5067C157.727 96.0067 155.507 96.2567 153.067 96.2567ZM169.365 96.2567C167.665 96.2567 166.305 96.0167 165.285 95.5367C164.265 95.0567 163.505 94.2267 163.005 93.0467C162.525 91.8467 162.285 90.1767 162.285 88.0367C162.285 85.8367 162.535 84.1467 163.035 82.9667C163.535 81.7667 164.285 80.9467 165.285 80.5067C166.305 80.0467 167.665 79.8167 169.365 79.8167C171.065 79.8167 172.415 80.0467 173.415 80.5067C174.435 80.9667 175.195 81.7967 175.695 82.9967C176.195 84.1767 176.445 85.8567 176.445 88.0367C176.445 90.1967 176.195 91.8767 175.695 93.0767C175.215 94.2567 174.465 95.0867 173.445 95.5667C172.445 96.0267 171.085 96.2567 169.365 96.2567ZM169.365 93.7967C170.365 93.7967 171.145 93.6667 171.705 93.4067C172.285 93.1267 172.715 92.5767 172.995 91.7567C173.295 90.9167 173.445 89.6667 173.445 88.0067C173.445 86.3467 173.295 85.1067 172.995 84.2867C172.715 83.4467 172.285 82.8967 171.705 82.6367C171.145 82.3767 170.365 82.2467 169.365 82.2467C168.345 82.2467 167.555 82.3767 166.995 82.6367C166.455 82.8967 166.035 83.4467 165.735 84.2867C165.455 85.1067 165.315 86.3467 165.315 88.0067C165.315 89.6867 165.455 90.9467 165.735 91.7867C166.035 92.6067 166.455 93.1467 166.995 93.4067C167.555 93.6667 168.345 93.7967 169.365 93.7967ZM180.11 80.0267H182.51L183.11 81.7667C184.01 81.1467 184.92 80.6567 185.84 80.2967C186.78 79.9367 187.81 79.7567 188.93 79.7567C189.89 79.7567 190.72 79.9667 191.42 80.3867C192.12 80.8067 192.67 81.3767 193.07 82.0967C193.87 81.4767 194.84 80.9367 195.98 80.4767C197.14 79.9967 198.23 79.7567 199.25 79.7567C200.97 79.7567 202.24 80.2667 203.06 81.2867C203.88 82.2867 204.29 83.6467 204.29 85.3667V96.0767H201.29V85.6367C201.29 84.6767 201.01 83.9167 200.45 83.3567C199.91 82.7767 199.17 82.4867 198.23 82.4867C197.47 82.4867 196.67 82.6367 195.83 82.9367C195.01 83.2167 194.22 83.5967 193.46 84.0767C193.62 84.6167 193.7 85.1467 193.7 85.6667V96.0767H190.7V85.6367C190.7 84.6767 190.43 83.9167 189.89 83.3567C189.35 82.7767 188.61 82.4867 187.67 82.4867C186.83 82.4867 186.06 82.6067 185.36 82.8467C184.68 83.0867 183.93 83.4467 183.11 83.9267V96.0767H180.11V80.0267ZM208.411 80.0267H210.871L211.411 81.6467C212.071 81.1667 212.851 80.7467 213.751 80.3867C214.651 80.0067 215.541 79.8167 216.421 79.8167C218.381 79.8167 219.821 80.5667 220.741 82.0667C221.681 83.5667 222.151 85.5567 222.151 88.0367C222.151 90.7767 221.691 92.8367 220.771 94.2167C219.871 95.5967 218.421 96.2867 216.421 96.2867C215.601 96.2867 214.741 96.1667 213.841 95.9267C212.961 95.6667 212.151 95.3267 211.411 94.9067V103.187H208.411V80.0267ZM215.521 93.7667C217.941 93.7667 219.151 91.8567 219.151 88.0367C219.151 86.0567 218.811 84.6067 218.131 83.6867C217.471 82.7467 216.611 82.2767 215.551 82.2767C214.271 82.2767 212.891 82.6767 211.411 83.4767V92.6267C212.031 92.9867 212.691 93.2667 213.391 93.4667C214.111 93.6667 214.821 93.7667 215.521 93.7667ZM229.023 96.2567C227.823 96.2567 226.843 95.8967 226.083 95.1767C225.323 94.4567 224.943 93.4767 224.943 92.2367V90.9767C224.943 89.6967 225.373 88.6767 226.233 87.9167C227.113 87.1367 228.393 86.7467 230.073 86.7467H235.083V85.0667C235.083 84.4067 234.973 83.8767 234.753 83.4767C234.533 83.0567 234.133 82.7367 233.553 82.5167C232.993 82.2967 232.183 82.1867 231.123 82.1867H226.203V80.4167C227.963 80.0167 229.943 79.8067 232.143 79.7867C234.183 79.7867 235.683 80.1867 236.643 80.9867C237.623 81.7667 238.113 83.0567 238.113 84.8567V96.0767H235.743L235.233 94.2767C235.053 94.4367 234.623 94.6767 233.943 94.9967C233.283 95.3167 232.503 95.6067 231.603 95.8667C230.723 96.1267 229.863 96.2567 229.023 96.2567ZM230.463 94.0667C230.943 94.0667 231.523 93.9867 232.203 93.8267C232.883 93.6467 233.513 93.4567 234.093 93.2567C234.693 93.0367 235.023 92.9067 235.083 92.8667V88.2467L230.883 88.4267C228.943 88.5467 227.973 89.4067 227.973 91.0067V91.7267C227.973 92.5467 228.213 93.1467 228.693 93.5267C229.173 93.8867 229.763 94.0667 230.463 94.0667ZM242.19 80.0267H244.59L245.19 81.7667C245.97 81.1867 246.85 80.7067 247.83 80.3267C248.83 79.9467 249.83 79.7567 250.83 79.7567C252.53 79.7567 253.78 80.2767 254.58 81.3167C255.38 82.3367 255.78 83.6567 255.78 85.2767V96.0767H252.78V85.6367C252.78 84.6767 252.51 83.9167 251.97 83.3567C251.43 82.7767 250.69 82.4867 249.75 82.4867C248.91 82.4867 248.14 82.6067 247.44 82.8467C246.76 83.0867 246.01 83.4467 245.19 83.9267V96.0767H242.19V80.0267ZM260.306 77.3267C260.146 77.3267 260.016 77.2867 259.916 77.2067C259.816 77.1067 259.766 76.9767 259.766 76.8167V74.2967C259.766 73.9367 259.946 73.7567 260.306 73.7567H262.526C262.686 73.7567 262.806 73.8067 262.886 73.9067C262.966 74.0067 263.006 74.1367 263.006 74.2967V76.8167C263.006 77.1567 262.846 77.3267 262.526 77.3267H260.306ZM259.886 80.0267H262.886V96.0767H259.886V80.0267ZM273.633 96.2567C271.933 96.2567 270.573 96.0167 269.553 95.5367C268.533 95.0567 267.773 94.2267 267.273 93.0467C266.793 91.8467 266.553 90.1767 266.553 88.0367C266.553 85.8367 266.803 84.1467 267.303 82.9667C267.803 81.7667 268.553 80.9467 269.553 80.5067C270.573 80.0467 271.933 79.8167 273.633 79.8167C275.333 79.8167 276.683 80.0467 277.683 80.5067C278.703 80.9667 279.463 81.7967 279.963 82.9967C280.463 84.1767 280.713 85.8567 280.713 88.0367C280.713 90.1967 280.463 91.8767 279.963 93.0767C279.483 94.2567 278.733 95.0867 277.713 95.5667C276.713 96.0267 275.353 96.2567 273.633 96.2567ZM273.633 93.7967C274.633 93.7967 275.413 93.6667 275.973 93.4067C276.553 93.1267 276.983 92.5767 277.263 91.7567C277.563 90.9167 277.713 89.6667 277.713 88.0067C277.713 86.3467 277.563 85.1067 277.263 84.2867C276.983 83.4467 276.553 82.8967 275.973 82.6367C275.413 82.3767 274.633 82.2467 273.633 82.2467C272.613 82.2467 271.823 82.3767 271.263 82.6367C270.723 82.8967 270.303 83.4467 270.003 84.2867C269.723 85.1067 269.583 86.3467 269.583 88.0067C269.583 89.6867 269.723 90.9467 270.003 91.7867C270.303 92.6067 270.723 93.1467 271.263 93.4067C271.823 93.6667 272.613 93.7967 273.633 93.7967ZM284.378 80.0267H286.778L287.378 81.7667C288.158 81.1867 289.038 80.7067 290.018 80.3267C291.018 79.9467 292.018 79.7567 293.018 79.7567C294.718 79.7567 295.968 80.2767 296.768 81.3167C297.568 82.3367 297.968 83.6567 297.968 85.2767V96.0767H294.968V85.6367C294.968 84.6767 294.698 83.9167 294.158 83.3567C293.618 82.7767 292.878 82.4867 291.938 82.4867C291.098 82.4867 290.328 82.6067 289.628 82.8467C288.948 83.0867 288.198 83.4467 287.378 83.9267V96.0767H284.378V80.0267Z" fill="white"/>
<path d="M57.0871 38.9023C59.4311 38.9629 61.7517 39.3753 63.9675 40.1251C66.8815 41.0679 69.6931 42.29 72.3611 43.7736C79.1094 47.5261 85.2949 52.1718 90.7424 57.5789C94.5693 61.2879 98.0533 65.3202 101.154 69.6289C103.765 73.2183 105.957 77.0815 107.691 81.1465C109.062 84.1389 109.842 87.3573 109.991 90.6327C110.043 91.6286 109.891 92.6245 109.544 93.5624C109.198 94.5003 108.664 95.3615 107.974 96.0956C107.205 96.7557 106.309 97.2596 105.339 97.5779C104.369 97.8961 103.344 98.0225 102.324 97.9495C99.98 97.8889 97.6594 97.4765 95.4436 96.7267C92.5295 95.7839 89.718 94.5618 87.05 93.0782C80.3017 89.3258 74.1162 84.6801 68.6687 79.2729C64.8418 75.564 61.3578 71.5316 58.2574 67.2229C55.6465 63.6335 53.4538 59.7704 51.72 55.7053C50.3781 52.747 49.6117 49.5702 49.4602 46.3375C49.4089 45.3416 49.5608 44.3456 49.9072 43.4077C50.2536 42.4698 50.7876 41.6087 51.4779 40.8745C52.2321 40.1982 53.1165 39.6755 54.0796 39.3369C55.0426 38.9983 56.065 38.8506 57.0871 38.9023V38.9023ZM57.0871 36.5949C55.7507 36.5324 54.4148 36.7304 53.1574 37.1773C51.9 37.6242 50.7461 38.3112 49.7629 39.1982C42.7614 46.0614 50.4892 64.7182 67.0344 80.8901C79.4231 93.019 93.2645 100.296 102.364 100.296C103.695 100.369 105.028 100.184 106.285 99.7507C107.542 99.3174 108.699 98.6449 109.689 97.772C116.69 90.9088 108.962 72.252 92.4171 56.0801C80.0284 43.9511 66.1869 36.6738 57.0871 36.6738V36.5949Z" fill="white"/>
<path d="M102.385 36.6737V38.9023C103.404 38.8521 104.423 39.0006 105.382 39.3392C106.342 39.6778 107.223 40.1997 107.974 40.8745C108.664 41.6086 109.198 42.4698 109.545 43.4077C109.891 44.3456 110.043 45.3415 109.992 46.3374C109.85 49.5609 109.098 52.7307 107.772 55.6856C106.038 59.7506 103.846 63.6137 101.235 67.2031C98.1344 71.5118 94.6504 75.5442 90.8234 79.2532C85.3759 84.6603 79.1904 89.306 72.4422 93.0584C69.7741 94.542 66.9626 95.7642 64.0485 96.707C61.8147 97.5118 59.4661 97.9709 57.0875 98.0678C56.0654 98.1195 55.043 97.9718 54.0799 97.6332C53.1168 97.2946 52.2324 96.7719 51.4783 96.0956C50.7879 95.3614 50.254 94.5003 49.9076 93.5624C49.5612 92.6245 49.4092 91.6286 49.4606 90.6327C49.6018 87.4092 50.3544 84.2393 51.68 81.2845C53.4138 77.2195 55.6065 73.3564 58.2174 69.767C61.3177 65.4582 64.8018 61.4259 68.6287 57.7169C74.0762 52.3098 80.2617 47.6641 87.01 43.9116C89.678 42.428 92.4895 41.2059 95.4036 40.2631C97.6374 39.4583 99.986 38.9991 102.365 38.9023V36.6737H102.385ZM102.365 36.6737C93.2648 36.6737 79.4234 43.9511 67.0347 56.08C50.4896 72.2519 42.8223 90.9088 49.7632 97.772C50.7529 98.6448 51.9097 99.3174 53.1669 99.7507C54.424 100.184 55.7565 100.369 57.0875 100.296C66.1873 100.296 80.0287 93.019 92.4174 80.8901C108.963 64.7182 116.63 46.0613 109.689 39.1981C108.699 38.3252 107.542 37.6527 106.285 37.2194C105.028 36.7861 103.696 36.6007 102.365 36.6737V36.6737Z" fill="white"/>
<path d="M79.7257 53.2401C85.1392 53.2537 90.5408 53.7355 95.8673 54.6798C100.309 55.4193 104.653 56.6363 108.821 58.3086C111.9 59.4706 114.727 61.1902 117.154 63.3771C118.668 64.6823 119.595 66.517 119.737 68.4851C119.672 69.481 119.405 70.4543 118.951 71.3483C118.497 72.2422 117.866 73.0388 117.094 73.6916C114.667 75.8786 111.84 77.5982 108.76 78.7602C104.612 80.4283 100.288 81.6452 95.8673 82.389C90.5377 83.3002 85.1362 83.749 79.7257 83.7301C74.3152 83.749 68.9137 83.3002 63.5841 82.389C59.1427 81.6494 54.7984 80.4325 50.6305 78.7602C47.5512 77.5982 44.7241 75.8786 42.2974 73.6916C41.5362 73.0337 40.916 72.2348 40.4727 71.3411C40.0294 70.4474 39.7718 69.4767 39.7147 68.4851C39.7795 67.4891 40.0466 66.5158 40.5004 65.6219C40.9542 64.7279 41.5857 63.9313 42.3579 63.2785C44.7846 61.0916 47.6118 59.372 50.691 58.21C54.8436 56.5756 59.1672 55.3917 63.5841 54.6798C68.9137 53.7685 74.3152 53.3197 79.7257 53.3387V53.2401ZM79.7257 51.0312C56.3204 51.0312 37.354 58.92 37.354 68.5837C37.354 78.2474 56.3204 86.1361 79.7257 86.1361C103.131 86.1361 122.097 78.2474 122.097 68.5837C122.097 58.92 103.131 51.0312 79.7257 51.0312V51.0312Z" fill="white"/>
<path d="M79.7261 29.3765C80.745 29.4399 81.7408 29.7009 82.6554 30.1445C83.5699 30.5881 84.3849 31.2053 85.0528 31.9601C87.2902 34.3321 89.0495 37.0955 90.2383 40.1052C91.9449 44.1602 93.19 48.3864 93.9509 52.7075C94.8832 57.9168 95.3423 63.1965 95.3229 68.4849C95.3423 73.7734 94.8832 79.0531 93.9509 84.2624C93.1943 88.6037 91.9492 92.8499 90.2383 96.9238C89.0495 99.9336 87.2902 102.697 85.0528 105.069C84.3797 105.813 83.5623 106.419 82.648 106.852C81.7337 107.286 80.7406 107.538 79.7261 107.593C78.7072 107.53 77.7114 107.269 76.7968 106.825C75.8822 106.382 75.0672 105.765 74.3994 105.01C72.1619 102.638 70.4027 99.8744 69.2139 96.8647C67.5417 92.8058 66.3306 88.5797 65.6022 84.2624C64.6699 79.0531 64.2107 73.7734 64.2301 68.4849C64.2107 63.1965 64.6699 57.9168 65.6022 52.7075C66.3588 48.3662 67.6039 44.12 69.3148 40.0461C70.5035 37.0363 72.2628 34.2729 74.5002 31.9009C75.8356 30.4215 77.7126 29.5148 79.7261 29.3765V29.3765ZM79.7261 27.0691C69.799 27.0691 61.7686 45.6076 61.7686 68.4849C61.7686 91.3623 69.8394 109.901 79.7261 109.901C89.6128 109.901 97.6836 91.3623 97.6836 68.4849C97.6836 45.6076 89.6532 27.0691 79.7261 27.0691Z" fill="white"/>
<path d="M79.7261 58.1113C75.2468 58.1113 70.4043 59.196 70.4043 61.5824V75.3877C70.4043 77.774 75.2468 78.8784 79.7059 78.8784H79.827C81.1449 78.8565 82.4596 78.7445 83.7615 78.5432C87.131 78.0107 89.068 76.8471 89.068 75.3679V61.5626C89.0479 59.196 84.2054 58.1113 79.7261 58.1113ZM86.5257 75.3482C85.5772 76.0227 84.4486 76.4132 83.2772 76.4724C82.1037 76.663 80.9157 76.7554 79.7261 76.7485C75.4889 76.7485 73.2493 75.7624 72.9264 75.3482V73.238C75.1219 73.9305 77.4194 74.2637 79.7261 74.2241C82.0327 74.2637 84.3302 73.9305 86.5257 73.238V75.3482ZM72.9264 64.0673C75.1207 64.7669 77.4183 65.1067 79.7261 65.0731C82.0339 65.1067 84.3314 64.7669 86.5257 64.0673V66.0395C86.2029 66.4537 83.9834 67.4398 79.7261 67.4398C75.4687 67.4398 73.2493 66.4537 72.9264 66.0395V64.0673ZM72.9264 70.7333V68.6428C75.1184 69.3518 77.4176 69.6919 79.7261 69.6486C82.0345 69.6919 84.3337 69.3518 86.5257 68.6428V70.7333C86.2029 71.1475 83.9834 72.1336 79.7261 72.1336C75.4687 72.1336 73.2493 71.1475 72.9264 70.7333V70.7333ZM79.7261 60.2216C83.8825 60.2216 86.1625 61.1682 86.4854 61.5824C86.1625 62.0163 83.8825 62.9629 79.7261 62.9629C75.5696 62.9629 73.3098 62.0163 72.987 61.5824C73.3098 61.1682 75.6907 60.2216 79.7261 60.2216Z" fill="white"/>
<path d="M56.2601 93.3149C57.5639 93.3149 58.6208 92.2818 58.6208 91.0074C58.6208 89.733 57.5639 88.7 56.2601 88.7C54.9563 88.7 53.8994 89.733 53.8994 91.0074C53.8994 92.2818 54.9563 93.3149 56.2601 93.3149Z" fill="white"/>
<path d="M103.192 93.3149C104.496 93.3149 105.552 92.2818 105.552 91.0074C105.552 89.733 104.496 88.7 103.192 88.7C101.888 88.7 100.831 89.733 100.831 91.0074C100.831 92.2818 101.888 93.3149 103.192 93.3149Z" fill="white"/>
<path d="M56.2601 48.2702C57.5639 48.2702 58.6208 47.2371 58.6208 45.9627C58.6208 44.6884 57.5639 43.6553 56.2601 43.6553C54.9563 43.6553 53.8994 44.6884 53.8994 45.9627C53.8994 47.2371 54.9563 48.2702 56.2601 48.2702Z" fill="white"/>
<path d="M103.192 48.2702C104.496 48.2702 105.552 47.2371 105.552 45.9627C105.552 44.6884 104.496 43.6553 103.192 43.6553C101.888 43.6553 100.831 44.6884 100.831 45.9627C100.831 47.2371 101.888 48.2702 103.192 48.2702Z" fill="white"/>
<rect width="78.0564" height="2.91259" transform="matrix(0.00152127 0.999999 -0.999999 0.00156579 134.243 27.0685)" fill="white"/>
</svg>
